<?xml version="1.0" encoding="UTF-8"?>
<svg width="24px" height="24px" viewBox="0 0 24 24" version="1.1" xmlns="http://www.w3.org/2000/svg" xmlns:xlink="http://www.w3.org/1999/xlink">
    <title>icon-clubhouse</title>
    <g id="icon-clubhouse" stroke="none" stroke-width="1" fill="none" fill-rule="evenodd">
        <g id="Group" transform="translate(2.000000, 1.000000)" fill="#000000" fill-rule="nonzero">
            <g id="Combined-Shape">
                <path d="M3.006,22.058 C1.34583204,22.058 0,20.712168 0,19.052 L0,19.052 L0,8.02 C0,7.71140418 0.142477794,7.42009414 0.386071496,7.23063836 L0.386071496,7.23063836 L9.4120715,0.210638365 C9.77317727,-0.0702127882 10.2788227,-0.0702127882 10.6399285,0.210638365 L10.6399285,0.210638365 L19.6659285,7.23063836 C19.9095222,7.42009414 20.052,7.71140418 20.052,8.02 L20.052,8.02 L20.052,19.052 C20.052,20.712168 18.706168,22.058 17.046,22.058 L17.046,22.058 Z M10.026,2.266 L2,8.508 L2,19.052 C2,19.5705586 2.39234979,19.9974789 2.89638522,20.0520969 L2.89638522,20.0520969 L3.006,20.058 L6.016,20.058 L6.017,11.029 C6.017,10.5161642 6.40304019,10.0934928 6.90037887,10.0357277 L7.017,10.029 L13.034,10.029 C13.5468358,10.029 13.9695072,10.4150402 14.0272723,10.9123789 L14.034,11.029 L14.033,20.058 L17.046,20.058 C17.5645586,20.058 17.9914789,19.6656502 18.0460969,19.1616148 L18.052,19.052 L18.052,8.509 L10.026,2.266 Z M12.033,12.029 L8.016,12.029 L8.016,20.058 L12.033,20.058 L12.033,12.029 Z"></path>
            </g>
        </g>
    </g>
</svg>