<?xml version="1.0" encoding="UTF-8"?>
<svg width="24px" height="24px" viewBox="0 0 24 24" version="1.1" xmlns="http://www.w3.org/2000/svg" xmlns:xlink="http://www.w3.org/1999/xlink">
    <title>icon-menu</title>
    <g id="icon-menu" stroke="none" stroke-width="1" fill="none" fill-rule="evenodd">
        <g id="Group" transform="translate(4.000000, 5.000000)" fill="#000000" fill-rule="nonzero">
            <g id="Combined-Shape">
                <path d="M15.675,12.037 C16.2272847,12.037 16.675,12.4847153 16.675,13.037 C16.675,13.5498358 16.2889598,13.9725072 15.7916211,14.0302723 L15.675,14.037 L1,14.037 C0.44771525,14.037 1.24344979e-14,13.5892847 1.24344979e-14,13.037 C1.24344979e-14,12.5241642 0.38604019,12.1014928 0.883378875,12.0437277 L1,12.037 L15.675,12.037 Z M15.675,6.019 C16.2272847,6.019 16.675,6.46671525 16.675,7.019 C16.675,7.53183584 16.2889598,7.95450716 15.7916211,8.01227227 L15.675,8.019 L1,8.019 C0.44771525,8.019 1.24344979e-14,7.57128475 1.24344979e-14,7.019 C1.24344979e-14,6.50616416 0.38604019,6.08349284 0.883378875,6.02572773 L1,6.019 L15.675,6.019 Z M15.675,0 C16.2272847,0 16.675,0.44771525 16.675,1 C16.675,1.51283584 16.2889598,1.93550716 15.7916211,1.99327227 L15.675,2 L1,2 C0.44771525,2 1.24344979e-14,1.55228475 1.24344979e-14,1 C1.24344979e-14,0.487164161 0.38604019,0.0644928393 0.883378875,0.00672773133 L1,0 L15.675,0 Z"></path>
            </g>
        </g>
    </g>
</svg>