<?xml version="1.0" encoding="UTF-8"?>
<svg width="24px" height="24px" viewBox="0 0 24 24" version="1.1" xmlns="http://www.w3.org/2000/svg" xmlns:xlink="http://www.w3.org/1999/xlink">
    <title>icon-fixtures</title>
    <g id="icon-fixtures" stroke="none" stroke-width="1" fill="none" fill-rule="evenodd">
        <g id="Group" transform="translate(2.000000, 1.000000)" fill="#000000" fill-rule="nonzero">
            <g id="Combined-Shape">
                <path d="M14.041,-4.4408921e-16 C14.5538358,-4.4408921e-16 14.9765072,0.38604019 15.0342723,0.883378875 L15.041,1 L15.04,2.006 L17.051,2.006 C18.6518762,2.006 19.9604682,3.2574178 20.0518971,4.83537467 L20.057,5.012 L20.057,19.057 C20.057,20.717168 18.711168,22.063 17.051,22.063 L17.051,22.063 L3.006,22.063 C1.34583204,22.063 1.77635684e-15,20.717168 1.77635684e-15,19.057 L1.77635684e-15,19.057 L1.77635684e-15,5.012 C1.77635684e-15,3.35183204 1.34583204,2.006 3.006,2.006 L3.006,2.006 L5.015,2.006 L5.016,1 C5.016,0.44771525 5.46371525,-4.4408921e-16 6.016,-4.4408921e-16 C6.52883584,-4.4408921e-16 6.95150716,0.38604019 7.00927227,0.883378875 L7.016,1 L7.015,2.006 L13.04,2.006 L13.041,1 C13.041,0.44771525 13.4887153,-4.4408921e-16 14.041,-4.4408921e-16 Z M18.057,10.025 L2,10.025 L2,19.057 C2,19.5755586 2.39234979,20.0024789 2.89638522,20.0570969 L3.006,20.063 L17.051,20.063 C17.6065985,20.063 18.057,19.6125985 18.057,19.057 L18.057,19.057 L18.057,10.025 Z M5.015,4.006 L3.006,4.006 C2.45040154,4.006 2,4.45640154 2,5.012 L2,5.012 L2,8.025 L18.057,8.025 L18.057,5.012 C18.057,4.49344144 17.6646502,4.06652108 17.1606148,4.01190307 L17.051,4.006 L15.04,4.006 L15.041,5.013 C15.041,5.56528475 14.5932847,6.013 14.041,6.013 C13.5281642,6.013 13.1054928,5.62695981 13.0477277,5.12962113 L13.041,5.013 L13.04,4.006 L7.015,4.006 L7.016,5.013 C7.016,5.56528475 6.56828475,6.013 6.016,6.013 C5.50316416,6.013 5.08049284,5.62695981 5.02272773,5.12962113 L5.016,5.013 L5.015,4.006 Z"></path>
            </g>
        </g>
    </g>
</svg>