<?xml version="1.0" encoding="UTF-8"?>
<svg width="24px" height="24px" viewBox="0 0 24 24" version="1.1" xmlns="http://www.w3.org/2000/svg" xmlns:xlink="http://www.w3.org/1999/xlink">
    <title>icon-results</title>
    <g id="icon-results" stroke="none" stroke-width="1" fill="none" fill-rule="evenodd">
        <g id="Group" transform="translate(3.000000, 1.000000)" fill="#000000" fill-rule="nonzero">
            <g id="Combined-Shape">
                <path d="M12.032,0 C13.1365695,0 14.032,0.8954305 14.032,2 L14.032,2 L14.032,2.006 L15.041,2.006 C16.6418762,2.006 17.9504682,3.2574178 18.0418971,4.83537467 L18.047,5.012 L18.047,19.053 C18.047,20.6538762 16.7955822,21.9624682 15.2176253,22.0538971 L15.041,22.059 L3.006,22.059 C1.40512375,22.059 0.0965317988,20.8075822 0.0051028788,19.2296253 L-1.77635684e-15,19.053 L-1.77635684e-15,5.012 C-1.77635684e-15,3.41112375 1.2514178,2.1025318 2.82937467,2.01110288 L3.006,2.006 L4.012,2.006 C4.012,0.945638205 4.82787779,0.0818348781 5.86273766,0.00548573643 L6.012,0 Z M4.012,4.006 L3.006,4.006 C2.48744144,4.006 2.06052108,4.39834979 2.00590307,4.90238522 L2,5.012 L2,19.053 C2,19.5715586 2.39234979,19.9984789 2.89638522,20.0530969 L3.006,20.059 L15.041,20.059 C15.5595586,20.059 15.9864789,19.6666502 16.0410969,19.1626148 L16.047,19.053 L16.047,5.012 C16.047,4.49344144 15.6546502,4.06652108 15.1506148,4.01190307 L15.041,4.006 L14.032,4.006 C14.032,5.0633618 13.2161222,5.92716512 12.1812623,6.00351426 L12.032,6.009 L6.012,6.009 C4.9074305,6.009 4.012,5.1135695 4.012,4.009 L4.012,4.009 L4.012,4.006 Z M13.2038765,9.792663 C13.5644778,10.1530296 13.5923921,10.7202516 13.2874949,11.1126421 L13.204337,11.2068765 L8.599337,15.8148765 C8.23894829,16.1755 7.6716842,16.2033925 7.27929515,15.8984463 L7.18506204,15.8152756 L5.09006204,13.7212756 C4.69944453,13.3308445 4.69929338,12.6976795 5.08972444,12.307062 C5.45012233,11.946492 6.01734675,11.9186271 6.40971077,12.2235583 L6.50393796,12.3067244 L7.891,13.693 L11.789663,9.79312351 C12.1800601,9.40247207 12.8132251,9.4022659 13.2038765,9.792663 Z M12.032,2 L6.012,2 L6.012,4.009 L12.032,4.009 L12.032,2 Z"></path>
            </g>
        </g>
    </g>
</svg>