<?xml version="1.0" encoding="UTF-8"?>
<svg width="24px" height="24px" viewBox="0 0 24 24" version="1.1" xmlns="http://www.w3.org/2000/svg" xmlns:xlink="http://www.w3.org/1999/xlink">
    <title>icon-standings</title>
    <g id="icon-standings" stroke="none" stroke-width="1" fill="none" fill-rule="evenodd">
        <g id="Group" transform="translate(1.000000, 1.000000)" fill="#000000" fill-rule="nonzero">
            <g id="Combined-Shape">
                <path d="M13,0 C14.1045695,0 15,0.8954305 15,2 L15,2 L15,6 C15,7.1045695 14.1045695,8 13,8 L13,8 L11.998,8 L12,8.028 L12,10.258 L17,10.258 C17.5128358,10.258 17.9355072,10.6440402 17.9932723,11.1413789 L18,11.258 L18,13.751 C18,13.8372032 17.9890926,13.9208588 17.9685826,14.000662 L20,14 C21.1045695,14 22,14.8954305 22,16 L22,16 L22,20 C22,21.1045695 21.1045695,22 20,22 L20,22 L16,22 C14.8954305,22 14,21.1045695 14,20 L14,20 L14,16 C14,14.8954305 14.8954305,14 16,14 L16,14 L16.0314174,14.000662 C16.0202934,13.9573789 16.0119941,13.9129625 16.0067277,13.8676211 L16,13.751 L16,12.258 L5.887,12.258 L5.888,13.751 C5.888,13.8372032 5.87709257,13.9208588 5.85658257,14.000662 L6,14 C7.1045695,14 8,14.8954305 8,16 L8,16 L8,20 C8,21.1045695 7.1045695,22 6,22 L6,22 L2,22 C0.8954305,22 0,21.1045695 0,20 L0,20 L0,16 C0,14.8954305 0.8954305,14 2,14 L2,14 L3.91941743,14.000662 C3.90829336,13.9573789 3.89999407,13.9129625 3.89472773,13.8676211 L3.888,13.751 L3.888,11.258 C3.888,10.7451642 4.27404019,10.3224928 4.77137887,10.2647277 L4.888,10.258 L9.887,10.258 L9.888,8.028 L9.889,8 L9,8 C7.9456382,8 7.08183488,7.18412221 7.00548574,6.14926234 L7,6 L7,2 C7,0.8954305 7.8954305,0 9,0 L9,0 Z M20,16 L16,16 L16,20 L20,20 L20,16 Z M6,16 L2,16 L2,20 L6,20 L6,16 Z M13,2 L9,2 L9,6 L13,6 L13,2 Z"></path>
            </g>
        </g>
    </g>
</svg>