<?xml version="1.0" encoding="UTF-8"?>
<svg width="24px" height="24px" viewBox="0 0 24 24" version="1.1" xmlns="http://www.w3.org/2000/svg" xmlns:xlink="http://www.w3.org/1999/xlink">
    <title>icon-arrow-right</title>
    <g id="icon-arrow-right" stroke="none" stroke-width="1" fill="none" fill-rule="evenodd">
        <g id="Group" transform="translate(4.001733, 7.000000)" fill="#000000" fill-rule="nonzero">
            <g id="Combined-Shape">
                <path d="M0.291160123,4.76489322 C0.358750866,4.69730248 0.433610061,4.64141013 0.513221706,4.59721618 L4.81916012,0.292893219 C5.20968441,-0.0976310729 5.84284939,-0.0976310729 6.23337369,0.292893219 C6.59385765,0.65337718 6.62158718,1.22060824 6.31656229,1.61289944 L6.23337369,1.70710678 L3.44,4.5 L14.4982669,4.5 C15.0505517,4.5 15.4982669,4.94771525 15.4982669,5.5 C15.4982669,6.01283584 15.1122267,6.43550716 14.614888,6.49327227 L14.4982669,6.5 L3.441,6.5 L6.23337369,9.29289322 C6.62389798,9.68341751 6.62389798,10.3165825 6.23337369,10.7071068 C5.87288972,11.0675907 5.30565867,11.0953203 4.91336746,10.7902954 L4.81916012,10.7071068 L0.513221706,6.40278382 C0.433610061,6.35858987 0.358750866,6.30269752 0.291160123,6.23510678 C0.110918142,6.0548648 0.0138647678,5.82293605 5.21804822e-15,5.58703139 L5.22238502e-15,5.41296861 C0.0138647678,5.17706395 0.110918142,4.9451352 0.291160123,4.76489322 Z" transform="translate(7.749133, 5.500000) rotate(-180.000000) translate(-7.749133, -5.500000) "></path>
            </g>
        </g>
    </g>
</svg>