<?xml version="1.0" encoding="UTF-8"?>
<svg width="16" height="17" viewBox="0 0 16 17" fill="none" xmlns="http://www.w3.org/2000/svg">
<title>icon-clock</title>
<path id="icon-clock" d="M6.66667 2.50033C6.47778 2.50033 6.31956 2.43633 6.192 2.30833C6.064 2.18077 6 2.02255 6 1.83366C6 1.64477 6.064 1.48633 6.192 1.35833C6.31956 1.23077 6.47778 1.16699 6.66667 1.16699H9.33333C9.52222 1.16699 9.68067 1.23077 9.80867 1.35833C9.93622 1.48633 10 1.64477 10 1.83366C10 2.02255 9.93622 2.18077 9.80867 2.30833C9.68067 2.43633 9.52222 2.50033 9.33333 2.50033H6.66667ZM8 9.83366C8.18889 9.83366 8.34733 9.76966 8.47533 9.64166C8.60289 9.5141 8.66667 9.35588 8.66667 9.16699V6.50033C8.66667 6.31144 8.60289 6.15299 8.47533 6.02499C8.34733 5.89744 8.18889 5.83366 8 5.83366C7.81111 5.83366 7.65289 5.89744 7.52533 6.02499C7.39733 6.15299 7.33333 6.31144 7.33333 6.50033V9.16699C7.33333 9.35588 7.39733 9.5141 7.52533 9.64166C7.65289 9.76966 7.81111 9.83366 8 9.83366ZM8 15.167C7.17778 15.167 6.40267 15.0088 5.67467 14.6923C4.94711 14.3754 4.31111 13.9448 3.76667 13.4003C3.22222 12.8559 2.79156 12.2199 2.47467 11.4923C2.15822 10.7643 2 9.98921 2 9.16699C2 8.34477 2.15822 7.56966 2.47467 6.84166C2.79156 6.1141 3.22222 5.4781 3.76667 4.93366C4.31111 4.38921 4.94711 3.95877 5.67467 3.64233C6.40267 3.32544 7.17778 3.16699 8 3.16699C8.68889 3.16699 9.35 3.2781 9.98333 3.50033C10.6167 3.72255 11.2111 4.04477 11.7667 4.46699L12.25 3.98366C12.3722 3.86144 12.5222 3.80033 12.7 3.80033C12.8778 3.80033 13.0333 3.86699 13.1667 4.00033C13.2889 4.12255 13.35 4.2781 13.35 4.46699C13.35 4.65588 13.2889 4.81144 13.1667 4.93366L12.7 5.40033C13.1222 5.95588 13.4444 6.55033 13.6667 7.18366C13.8889 7.81699 14 8.4781 14 9.16699C14 9.98921 13.8418 10.7643 13.5253 11.4923C13.2084 12.2199 12.7778 12.8559 12.2333 13.4003C11.6889 13.9448 11.0529 14.3754 10.3253 14.6923C9.59733 15.0088 8.82222 15.167 8 15.167ZM8 13.8337C9.28889 13.8337 10.3889 13.3781 11.3 12.467C12.2111 11.5559 12.6667 10.4559 12.6667 9.16699C12.6667 7.8781 12.2111 6.7781 11.3 5.86699C10.3889 4.95588 9.28889 4.50033 8 4.50033C6.71111 4.50033 5.61111 4.95588 4.7 5.86699C3.78889 6.7781 3.33333 7.8781 3.33333 9.16699C3.33333 10.4559 3.78889 11.5559 4.7 12.467C5.61111 13.3781 6.71111 13.8337 8 13.8337Z" fill="black"/>
</svg>
