<svg width="300" height="180" viewBox="0 0 300 180" fill="none" xmlns="http://www.w3.org/2000/svg">
<rect width="300" height="180" rx="10" fill="#CAC599"/>
<path d="M35.95 29.582H40.598V30.17C40.598 30.814 40.4953 31.4347 40.29 32.032C40.0847 32.62 39.786 33.1567 39.394 33.642C39.002 34.118 38.484 34.5007 37.84 34.79C37.196 35.07 36.4727 35.21 35.67 35.21C34.1673 35.21 32.926 34.7433 31.946 33.81C30.9753 32.8767 30.49 31.6493 30.49 30.128C30.49 28.616 30.9707 27.384 31.932 26.432C32.8933 25.4707 34.144 24.99 35.684 24.99C37.1587 24.99 38.414 25.4287 39.45 26.306L38.456 27.524C37.6907 26.824 36.7433 26.474 35.614 26.474C34.5593 26.474 33.7053 26.8193 33.052 27.51C32.408 28.1913 32.086 29.0593 32.086 30.114C32.086 31.1687 32.4173 32.0367 33.08 32.718C33.752 33.39 34.6293 33.726 35.712 33.726C36.7107 33.726 37.4947 33.446 38.064 32.886C38.6427 32.326 38.9647 31.682 39.03 30.954H35.95V29.582ZM42.3792 29.302C43.0512 28.6487 43.8958 28.322 44.9132 28.322C45.9305 28.322 46.7752 28.6487 47.4472 29.302C48.1192 29.9553 48.4552 30.7767 48.4552 31.766C48.4552 32.7553 48.1192 33.5767 47.4472 34.23C46.7752 34.8833 45.9305 35.21 44.9132 35.21C43.8958 35.21 43.0512 34.8833 42.3792 34.23C41.7072 33.5767 41.3712 32.7553 41.3712 31.766C41.3712 30.7767 41.7072 29.9553 42.3792 29.302ZM46.4112 30.24C46.0285 29.8573 45.5292 29.666 44.9132 29.666C44.2972 29.666 43.7932 29.8573 43.4012 30.24C43.0185 30.6227 42.8272 31.1313 42.8272 31.766C42.8272 32.4007 43.0185 32.9093 43.4012 33.292C43.7932 33.6747 44.2972 33.866 44.9132 33.866C45.5292 33.866 46.0285 33.6747 46.4112 33.292C46.8032 32.9093 46.9992 32.4007 46.9992 31.766C46.9992 31.1313 46.8032 30.6227 46.4112 30.24ZM51.1629 25.2V35H49.7909V25.2H51.1629ZM55.6364 35.21C54.7497 35.21 54.0031 34.8973 53.3964 34.272C52.7897 33.6467 52.4864 32.8113 52.4864 31.766C52.4864 30.7207 52.7897 29.8853 53.3964 29.26C54.0031 28.6347 54.7497 28.322 55.6364 28.322C56.6444 28.322 57.3724 28.7093 57.8204 29.484H57.8484V25.2H59.2204V35H57.8484V34.048H57.8204C57.3724 34.8227 56.6444 35.21 55.6364 35.21ZM54.4884 33.292C54.8524 33.6747 55.3331 33.866 55.9304 33.866C56.5277 33.866 57.0084 33.6747 57.3724 33.292C57.7364 32.9 57.9184 32.3913 57.9184 31.766C57.9184 31.1407 57.7364 30.6367 57.3724 30.254C57.0084 29.862 56.5277 29.666 55.9304 29.666C55.3331 29.666 54.8524 29.862 54.4884 30.254C54.1244 30.6367 53.9424 31.1407 53.9424 31.766C53.9424 32.3913 54.1244 32.9 54.4884 33.292Z" fill="#445D73"/>
<path d="M255.292 36.156C254.807 36.156 254.391 35.9913 254.044 35.662C253.697 35.3153 253.524 34.882 253.524 34.362C253.524 33.8593 253.697 33.4433 254.044 33.114C254.391 32.7673 254.807 32.594 255.292 32.594C255.777 32.594 256.185 32.7587 256.514 33.088C256.843 33.4173 257.008 33.842 257.008 34.362C257.008 34.882 256.835 35.3153 256.488 35.662C256.159 35.9913 255.76 36.156 255.292 36.156ZM261.183 36.156C260.697 36.156 260.281 35.9913 259.935 35.662C259.588 35.3153 259.415 34.882 259.415 34.362C259.415 33.8593 259.588 33.4433 259.935 33.114C260.281 32.7673 260.697 32.594 261.183 32.594C261.668 32.594 262.075 32.7587 262.405 33.088C262.734 33.4173 262.899 33.842 262.899 34.362C262.899 34.882 262.725 35.3153 262.379 35.662C262.049 35.9913 261.651 36.156 261.183 36.156ZM267.073 36.156C266.588 36.156 266.172 35.9913 265.825 35.662C265.479 35.3153 265.305 34.882 265.305 34.362C265.305 33.8593 265.479 33.4433 265.825 33.114C266.172 32.7673 266.588 32.594 267.073 32.594C267.559 32.594 267.966 32.7587 268.295 33.088C268.625 33.4173 268.789 33.842 268.789 34.362C268.789 34.882 268.616 35.3153 268.269 35.662C267.94 35.9913 267.541 36.156 267.073 36.156Z" fill="#445D73"/>
<path d="M35.6475 145.118L33.9115 145.608L35.0315 147.008L34.2055 147.624L33.2115 146.112L32.2175 147.638L31.3915 147.022L32.5115 145.622L30.7755 145.132L31.0975 144.166L32.7775 144.796L32.6935 142.99H33.7295L33.6455 144.782L35.3255 144.152L35.6475 145.118ZM39.5563 143.34C40.4336 143.34 41.1336 143.564 41.6563 144.012C42.1883 144.451 42.4543 145.034 42.4543 145.762C42.4543 146.313 42.305 146.784 42.0063 147.176C41.7076 147.568 41.2923 147.825 40.7603 147.946V147.974C41.4136 148.049 41.913 148.296 42.2583 148.716C42.613 149.127 42.7903 149.677 42.7903 150.368C42.7903 151.255 42.5103 151.95 41.9503 152.454C41.3996 152.958 40.639 153.21 39.6683 153.21C38.6976 153.21 37.9323 152.967 37.3723 152.482C36.8123 151.997 36.5183 151.325 36.4903 150.466H37.8623C37.8996 150.923 38.077 151.283 38.3943 151.544C38.7116 151.796 39.1363 151.922 39.6683 151.922C40.7883 151.922 41.3483 151.376 41.3483 150.284C41.3483 149.705 41.171 149.29 40.8163 149.038C40.471 148.786 39.9063 148.665 39.1223 148.674H38.6743V147.442H39.1223C40.3916 147.442 41.0263 146.961 41.0263 146C41.0263 145.561 40.8956 145.225 40.6343 144.992C40.3823 144.749 40.0136 144.628 39.5283 144.628C39.0336 144.628 38.6463 144.745 38.3663 144.978C38.0956 145.202 37.9556 145.529 37.9463 145.958H36.5743C36.6023 145.155 36.8823 144.521 37.4143 144.054C37.9556 143.578 38.6696 143.34 39.5563 143.34ZM47.1723 146.784C48.0496 146.784 48.7496 147.064 49.2723 147.624C49.795 148.184 50.0563 148.931 50.0563 149.864C50.0563 150.9 49.7623 151.717 49.1743 152.314C48.5863 152.911 47.7836 153.21 46.7663 153.21C45.9916 153.21 45.3196 153.042 44.7503 152.706C44.1903 152.37 43.7703 151.885 43.4903 151.25L44.6523 150.536C45.119 151.46 45.8236 151.922 46.7663 151.922C47.345 151.922 47.7976 151.745 48.1243 151.39C48.4603 151.026 48.6283 150.527 48.6283 149.892C48.6283 149.295 48.465 148.823 48.1383 148.478C47.8116 148.133 47.373 147.96 46.8223 147.96C46.4863 147.96 46.169 148.03 45.8703 148.17C45.581 148.31 45.357 148.497 45.1983 148.73H43.9803L44.4703 143.55H49.3003V144.866H45.5763L45.3103 147.4H45.3383C45.7956 146.989 46.407 146.784 47.1723 146.784ZM56.4741 152.454C55.8954 152.958 55.1114 153.21 54.1221 153.21C53.1328 153.21 52.3488 152.958 51.7701 152.454C51.1914 151.941 50.9021 151.25 50.9021 150.382C50.9021 149.785 51.0561 149.271 51.3641 148.842C51.6721 148.403 52.0968 148.105 52.6381 147.946V147.918C52.1994 147.787 51.8448 147.531 51.5741 147.148C51.3034 146.765 51.1681 146.327 51.1681 145.832C51.1681 145.085 51.4388 144.483 51.9801 144.026C52.5214 143.569 53.2354 143.34 54.1221 143.34C55.0088 143.34 55.7228 143.569 56.2641 144.026C56.8054 144.483 57.0761 145.085 57.0761 145.832C57.0761 146.327 56.9408 146.765 56.6701 147.148C56.3994 147.531 56.0448 147.787 55.6061 147.918V147.946C56.1474 148.105 56.5721 148.403 56.8801 148.842C57.1881 149.271 57.3421 149.785 57.3421 150.382C57.3421 151.25 57.0528 151.941 56.4741 152.454ZM53.0161 146.966C53.2868 147.209 53.6554 147.33 54.1221 147.33C54.5888 147.33 54.9574 147.209 55.2281 146.966C55.4988 146.714 55.6341 146.373 55.6341 145.944C55.6341 145.515 55.4988 145.179 55.2281 144.936C54.9574 144.684 54.5888 144.558 54.1221 144.558C53.6554 144.558 53.2868 144.684 53.0161 144.936C52.7454 145.179 52.6101 145.515 52.6101 145.944C52.6101 146.373 52.7454 146.714 53.0161 146.966ZM52.8061 151.544C53.1141 151.843 53.5528 151.992 54.1221 151.992C54.6914 151.992 55.1301 151.843 55.4381 151.544C55.7461 151.245 55.9001 150.821 55.9001 150.27C55.9001 149.747 55.7368 149.337 55.4101 149.038C55.0928 148.73 54.6634 148.576 54.1221 148.576C53.5808 148.576 53.1468 148.73 52.8201 149.038C52.5028 149.337 52.3441 149.747 52.3441 150.27C52.3441 150.821 52.4981 151.245 52.8061 151.544ZM59.6979 153L63.0439 148.898L63.0159 148.87C62.5306 149.402 61.9006 149.668 61.1259 149.668C60.2859 149.668 59.5859 149.369 59.0259 148.772C58.4659 148.175 58.1859 147.433 58.1859 146.546C58.1859 145.603 58.4893 144.833 59.0959 144.236C59.7119 143.639 60.5006 143.34 61.4619 143.34C62.4699 143.34 63.2633 143.657 63.8419 144.292C64.4299 144.927 64.7239 145.785 64.7239 146.868C64.7239 147.559 64.5839 148.226 64.3039 148.87C64.0333 149.505 63.5759 150.223 62.9319 151.026L61.3359 153H59.6979ZM61.4759 148.408C62.0266 148.408 62.4699 148.24 62.8059 147.904C63.1419 147.559 63.3099 147.101 63.3099 146.532C63.3099 145.953 63.1419 145.491 62.8059 145.146C62.4699 144.801 62.0173 144.628 61.4479 144.628C60.8973 144.628 60.4539 144.801 60.1179 145.146C59.7819 145.491 59.6139 145.949 59.6139 146.518C59.6139 147.087 59.7819 147.545 60.1179 147.89C60.4633 148.235 60.9159 148.408 61.4759 148.408Z" fill="#445D73"/>
<path d="M44.28 74.48C44.28 76.26 43.73 77.68 42.63 78.74C41.55 79.78 40.05 80.35 38.13 80.45V82.31H37.29V80.45C35.27 80.37 33.7 79.78 32.58 78.68C31.46 77.58 30.9 76.12 30.9 74.3H33.9C34 75.48 34.33 76.33 34.89 76.85C35.47 77.37 36.27 77.65 37.29 77.69V70.67C35.47 69.89 34.24 69.24 33.6 68.72C32.34 67.72 31.71 66.36 31.71 64.64C31.71 63.08 32.19 61.82 33.15 60.86C34.13 59.9 35.51 59.38 37.29 59.3V57.14H38.13V59.3C39.85 59.36 41.24 59.85 42.3 60.77C43.36 61.67 43.89 63 43.89 64.76H40.89C40.81 63.06 39.89 62.16 38.13 62.06V67.79C39.95 68.59 41.14 69.19 41.7 69.59C43.42 70.75 44.28 72.38 44.28 74.48ZM34.77 64.49C34.77 65.17 34.98 65.73 35.4 66.17C35.84 66.61 36.47 67.03 37.29 67.43V62.09C35.61 62.25 34.77 63.05 34.77 64.49ZM38.13 77.66C40.19 77.54 41.22 76.57 41.22 74.75C41.22 73.85 40.95 73.13 40.41 72.59C39.89 72.03 39.13 71.52 38.13 71.06V77.66ZM45.9258 80V77.84L52.9158 69.92C53.8958 68.82 54.5758 67.91 54.9558 67.19C55.3558 66.47 55.5558 65.77 55.5558 65.09C55.5558 64.17 55.2658 63.44 54.6858 62.9C54.1258 62.34 53.3558 62.06 52.3758 62.06C51.3358 62.06 50.5058 62.36 49.8858 62.96C49.2658 63.54 48.9458 64.35 48.9258 65.39H45.9858C46.0258 63.51 46.6258 62.03 47.7858 60.95C48.9658 59.85 50.5358 59.3 52.4958 59.3C54.3958 59.3 55.8858 59.8 56.9658 60.8C58.0658 61.8 58.6158 63.18 58.6158 64.94C58.6158 65.98 58.3658 67 57.8658 68C57.3858 69 56.5558 70.15 55.3758 71.45L50.2158 77.18H58.5858V80H45.9258ZM65.0672 76.43V80L62.9372 84.29H61.4672L63.0572 80H61.4972V76.43H65.0672ZM75.3712 66.68C77.2512 66.68 78.7512 67.28 79.8712 68.48C80.9912 69.68 81.5512 71.28 81.5512 73.28C81.5512 75.5 80.9212 77.25 79.6612 78.53C78.4012 79.81 76.6812 80.45 74.5012 80.45C72.8412 80.45 71.4012 80.09 70.1812 79.37C68.9812 78.65 68.0812 77.61 67.4812 76.25L69.9712 74.72C70.9712 76.7 72.4812 77.69 74.5012 77.69C75.7412 77.69 76.7112 77.31 77.4113 76.55C78.1312 75.77 78.4912 74.7 78.4912 73.34C78.4912 72.06 78.1412 71.05 77.4412 70.31C76.7412 69.57 75.8012 69.2 74.6212 69.2C73.9012 69.2 73.2212 69.35 72.5812 69.65C71.9612 69.95 71.4812 70.35 71.1412 70.85H68.5312L69.5812 59.75H79.9312V62.57H71.9512L71.3812 68H71.4412C72.4212 67.12 73.7312 66.68 75.3712 66.68ZM89.0477 59.3C90.9277 59.3 92.4277 59.78 93.5477 60.74C94.6877 61.68 95.2577 62.93 95.2577 64.49C95.2577 65.67 94.9377 66.68 94.2977 67.52C93.6577 68.36 92.7677 68.91 91.6277 69.17V69.23C93.0277 69.39 94.0977 69.92 94.8377 70.82C95.5977 71.7 95.9777 72.88 95.9777 74.36C95.9777 76.26 95.3777 77.75 94.1777 78.83C92.9977 79.91 91.3677 80.45 89.2877 80.45C87.2077 80.45 85.5677 79.93 84.3677 78.89C83.1677 77.85 82.5377 76.41 82.4777 74.57H85.4177C85.4977 75.55 85.8777 76.32 86.5577 76.88C87.2377 77.42 88.1477 77.69 89.2877 77.69C91.6877 77.69 92.8877 76.52 92.8877 74.18C92.8877 72.94 92.5077 72.05 91.7477 71.51C91.0077 70.97 89.7977 70.71 88.1177 70.73H87.1577V68.09H88.1177C90.8377 68.09 92.1977 67.06 92.1977 65C92.1977 64.06 91.9177 63.34 91.3577 62.84C90.8177 62.32 90.0277 62.06 88.9877 62.06C87.9277 62.06 87.0977 62.31 86.4977 62.81C85.9177 63.29 85.6177 63.99 85.5977 64.91H82.6577C82.7177 63.19 83.3177 61.83 84.4577 60.83C85.6177 59.81 87.1477 59.3 89.0477 59.3ZM97.4742 80V77.84L104.464 69.92C105.444 68.82 106.124 67.91 106.504 67.19C106.904 66.47 107.104 65.77 107.104 65.09C107.104 64.17 106.814 63.44 106.234 62.9C105.674 62.34 104.904 62.06 103.924 62.06C102.884 62.06 102.054 62.36 101.434 62.96C100.814 63.54 100.494 64.35 100.474 65.39H97.5342C97.5742 63.51 98.1742 62.03 99.3342 60.95C100.514 59.85 102.084 59.3 104.044 59.3C105.944 59.3 107.434 59.8 108.514 60.8C109.614 61.8 110.164 63.18 110.164 64.94C110.164 65.98 109.914 67 109.414 68C108.934 69 108.104 70.15 106.924 71.45L101.764 77.18H110.134V80H97.4742Z" fill="#293845"/>
<path d="M247.945 141.246H258.061V157.754H247.945V141.246Z" fill="#FF5F00"/>
<path d="M248.986 149.5C248.985 147.911 249.346 146.342 250.041 144.912C250.736 143.482 251.748 142.229 252.999 141.248C251.449 140.031 249.588 139.274 247.628 139.064C245.667 138.854 243.688 139.199 241.914 140.06C240.141 140.921 238.646 142.263 237.601 143.932C236.555 145.602 236 147.532 236 149.502C236 151.472 236.555 153.402 237.601 155.071C238.646 156.741 240.141 158.083 241.914 158.944C243.688 159.805 245.667 160.15 247.628 159.94C249.588 159.73 251.449 158.973 252.999 157.756C251.747 156.774 250.735 155.521 250.04 154.09C249.345 152.66 248.984 151.09 248.986 149.5V149.5Z" fill="#EB001B"/>
<path d="M270.001 149.501C270.001 151.471 269.446 153.401 268.4 155.07C267.354 156.74 265.859 158.082 264.085 158.943C262.312 159.804 260.332 160.149 258.372 159.938C256.411 159.728 254.55 158.971 253 157.753C254.251 156.771 255.262 155.517 255.958 154.088C256.653 152.658 257.015 151.089 257.015 149.499C257.015 147.909 256.653 146.34 255.958 144.911C255.262 143.481 254.251 142.227 253 141.245C254.55 140.028 256.411 139.27 258.372 139.06C260.332 138.85 262.312 139.195 264.085 140.055C265.859 140.916 267.354 142.258 268.4 143.928C269.446 145.598 270.001 147.528 270.001 149.498V149.501Z" fill="#F79E1B"/>
<circle cx="261" cy="30" r="9" fill="white" stroke="#BFCAD3" stroke-width="2"/>
</svg>