<?xml version="1.0" encoding="utf-8"?>
<!-- Generator: Adobe Illustrator 25.2.3, SVG Export Plug-In . SVG Version: 6.00 Build 0)  -->
<svg version="1.1" id="Layer_1" xmlns="http://www.w3.org/2000/svg" xmlns:xlink="http://www.w3.org/1999/xlink" x="0px" y="0px"
	 viewBox="0 0 300 180" style="enable-background:new 0 0 300 180;" xml:space="preserve">
<style type="text/css">
	.st0{clip-path:url(#SVGID_1_);}
	.st1{fill:#18474E;}
	.st2{fill:#C3CFD9;}
	.st3{fill:#FF5F00;}
	.st4{fill:#EB001B;}
	.st5{fill:#F79E1B;}
	.st6{opacity:0.3;fill:none;enable-background:new    ;}
	.st7{fill:none;}
	.st8{fill:#FFFFFF;stroke:#BFCAD3;stroke-width:2;}
	.st9{fill:#4B5C6B;}
	.st10{fill:#FFFFFF;}
	.st11{fill-rule:evenodd;clip-rule:evenodd;fill:#FFFFFF;}
	.st12{fill-rule:evenodd;clip-rule:evenodd;fill:#FF6600;}
</style>
<g>
	<g>
		<defs>
			<path id="SVGID_3_" d="M3,0h294c1.7,0,3,1.3,3,3v174c0,1.7-1.3,3-3,3H3c-1.7,0-3-1.3-3-3V3C0,1.3,1.3,0,3,0z"/>
		</defs>
		<clipPath id="SVGID_1_">
			<use xlink:href="#SVGID_3_"  style="overflow:visible;"/>
		</clipPath>
		<g class="st0">
			<path class="st1" d="M10,0h280c5.5,0,10,4.5,10,10v160c0,5.5-4.5,10-10,10H10c-5.5,0-10-4.5-10-10V10C0,4.5,4.5,0,10,0z"/>
			<path class="st2" d="M255.3,31.2c-0.5,0-0.9-0.2-1.2-0.5c-0.3-0.3-0.5-0.8-0.5-1.3c0-0.5,0.2-0.9,0.5-1.2
				c0.3-0.3,0.8-0.5,1.2-0.5c0.5,0,0.9,0.2,1.2,0.5c0.3,0.3,0.5,0.8,0.5,1.3s-0.2,1-0.5,1.3C256.2,31,255.8,31.2,255.3,31.2z
				 M261.2,31.2c-0.5,0-0.9-0.2-1.2-0.5c-0.3-0.3-0.5-0.8-0.5-1.3c0-0.5,0.2-0.9,0.5-1.2c0.3-0.3,0.8-0.5,1.2-0.5
				c0.5,0,0.9,0.2,1.2,0.5c0.3,0.3,0.5,0.8,0.5,1.3s-0.2,1-0.5,1.3C262,31,261.7,31.2,261.2,31.2z M267.1,31.2
				c-0.5,0-0.9-0.2-1.2-0.5c-0.3-0.3-0.5-0.8-0.5-1.3c0-0.5,0.2-0.9,0.5-1.2c0.3-0.3,0.8-0.5,1.2-0.5c0.5,0,0.9,0.2,1.2,0.5
				c0.3,0.3,0.5,0.8,0.5,1.3s-0.2,1-0.5,1.3C267.9,31,267.5,31.2,267.1,31.2z"/>
			<path class="st2" d="M32.6,132.9v8.1h-1.2v-6.9h-0.5v-1.2H32.6z M34.1,141v-0.9l2.8-3.2c0.4-0.4,0.7-0.8,0.8-1.1
				c0.2-0.3,0.2-0.6,0.2-0.8c0-0.4-0.1-0.7-0.3-0.9c-0.2-0.2-0.5-0.3-0.9-0.3c-0.4,0-0.7,0.1-1,0.4c-0.2,0.2-0.4,0.6-0.4,1h-1.2
				c0-0.8,0.3-1.3,0.7-1.8c0.5-0.4,1.1-0.7,1.9-0.7c0.8,0,1.4,0.2,1.8,0.6c0.4,0.4,0.7,1,0.7,1.7c0,0.4-0.1,0.8-0.3,1.2
				c-0.2,0.4-0.5,0.9-1,1.4l-2.1,2.3h3.3v1.1H34.1z M45.8,131.6l0.9,0.5l-5.6,10.1l-0.9-0.5L45.8,131.6z M47.4,141v-0.9l2.8-3.2
				c0.4-0.4,0.7-0.8,0.8-1.1c0.2-0.3,0.2-0.6,0.2-0.8c0-0.4-0.1-0.7-0.3-0.9c-0.2-0.2-0.5-0.3-0.9-0.3c-0.4,0-0.7,0.1-1,0.4
				c-0.2,0.2-0.4,0.6-0.4,1h-1.2c0-0.8,0.3-1.3,0.7-1.8c0.5-0.4,1.1-0.7,1.9-0.7c0.8,0,1.4,0.2,1.8,0.6c0.4,0.4,0.7,1,0.7,1.7
				c0,0.4-0.1,0.8-0.3,1.2c-0.2,0.4-0.5,0.9-1,1.4l-2.1,2.3h3.3v1.1H47.4z M56,132.7c0.8,0,1.4,0.2,1.8,0.6c0.5,0.4,0.7,0.9,0.7,1.5
				c0,0.5-0.1,0.9-0.4,1.2s-0.6,0.6-1.1,0.7v0c0.6,0.1,1,0.3,1.3,0.6c0.3,0.4,0.5,0.8,0.5,1.4c0,0.8-0.2,1.4-0.7,1.8
				c-0.5,0.4-1.1,0.6-2,0.6c-0.8,0-1.5-0.2-2-0.6s-0.7-1-0.8-1.7h1.2c0,0.4,0.2,0.7,0.5,0.9c0.3,0.2,0.6,0.3,1.1,0.3
				c1,0,1.4-0.5,1.4-1.4c0-0.5-0.2-0.9-0.5-1.1c-0.3-0.2-0.8-0.3-1.5-0.3h-0.4v-1.1h0.4c1.1,0,1.6-0.4,1.6-1.2
				c0-0.4-0.1-0.7-0.3-0.9c-0.2-0.2-0.5-0.3-0.9-0.3c-0.4,0-0.8,0.1-1,0.3c-0.2,0.2-0.4,0.5-0.4,0.8h-1.2c0-0.7,0.3-1.2,0.7-1.6
				C54.6,132.9,55.3,132.7,56,132.7z"/>
			<path class="st2" d="M32.3,149.6v6.9h3.5v1.5h-5v-8.4H32.3z M38.9,152.3c0.8,0,1.5,0.3,2,0.8c0.5,0.5,0.7,1.2,0.7,2.2v0.3h-4.1
				c0,0.4,0.2,0.8,0.5,1c0.3,0.2,0.6,0.3,1.1,0.3c0.6,0,1.2-0.3,1.7-0.8l0.7,1.1c-0.7,0.7-1.5,1-2.4,1c-0.9,0-1.6-0.3-2.2-0.8
				c-0.5-0.5-0.8-1.2-0.8-2.1s0.3-1.6,0.8-2.1C37.4,152.5,38.1,152.3,38.9,152.3z M38.9,153.5c-0.8,0-1.2,0.4-1.3,1.1h2.6
				c0-0.4-0.2-0.6-0.4-0.8C39.5,153.6,39.2,153.5,38.9,153.5z M45.1,152.3c0.8,0,1.5,0.3,2,0.8c0.5,0.5,0.7,1.2,0.7,2.2v0.3h-4.1
				c0,0.4,0.2,0.8,0.5,1c0.3,0.2,0.6,0.3,1.1,0.3c0.6,0,1.2-0.3,1.7-0.8l0.7,1.1c-0.7,0.7-1.5,1-2.4,1c-0.9,0-1.6-0.3-2.2-0.8
				c-0.5-0.5-0.8-1.2-0.8-2.1s0.3-1.6,0.8-2.1C43.5,152.5,44.2,152.3,45.1,152.3z M45,153.5c-0.8,0-1.2,0.4-1.3,1.1h2.6
				c0-0.4-0.2-0.6-0.4-0.8C45.7,153.6,45.4,153.5,45,153.5z M59.6,149.6l2.1,8.4h-1.6l-1.3-5.5h0l-1.7,4.2H56l-1.7-4.2h0l-1.3,5.5
				h-1.6l2.1-8.4h1.2l1.9,4.8h0l1.9-4.8H59.6z M64,156.3v1.7h-1.7v-1.7H64z M72.8,158.2c-1.3,0-2.4-0.4-3.3-1.2
				c-0.8-0.8-1.3-1.9-1.3-3.2s0.4-2.4,1.3-3.2c0.8-0.8,1.9-1.2,3.3-1.2c1.1,0,2.1,0.3,3,0.9l-0.9,1.3c-0.7-0.5-1.4-0.7-2.1-0.7
				c-0.8,0-1.5,0.3-2.1,0.8c-0.5,0.5-0.8,1.2-0.8,2c0,0.8,0.3,1.5,0.8,2c0.5,0.5,1.2,0.8,2.1,0.8c0.8,0,1.5-0.2,2.1-0.7l0.9,1.3
				C74.9,157.9,73.9,158.2,72.8,158.2z M78.8,158.2c-0.8,0-1.4-0.3-1.9-0.8c-0.5-0.5-0.8-1.2-0.8-2.2s0.3-1.6,0.8-2.2
				c0.5-0.5,1.1-0.8,1.9-0.8c0.8,0,1.5,0.3,1.8,1h0v-0.8h1.5v5.5h-1.5v-0.8h0C80.2,157.9,79.6,158.2,78.8,158.2z M78,156.4
				c0.3,0.3,0.6,0.4,1.1,0.4s0.8-0.1,1.1-0.4c0.3-0.3,0.4-0.7,0.4-1.1c0-0.5-0.1-0.8-0.4-1.1c-0.3-0.3-0.6-0.4-1.1-0.4
				s-0.8,0.1-1.1,0.4c-0.3,0.3-0.4,0.7-0.4,1.1C77.6,155.7,77.8,156.1,78,156.4z M86.7,152.3v1.6h-0.2c-0.6,0-1,0.1-1.3,0.4
				s-0.4,0.8-0.4,1.4v2.3h-1.5v-5.5h1.5v1.2h0C85.1,152.7,85.8,152.3,86.7,152.3L86.7,152.3z M89.6,158.2c-0.8,0-1.4-0.3-1.9-0.8
				c-0.5-0.5-0.8-1.2-0.8-2.2s0.3-1.6,0.8-2.2c0.5-0.5,1.1-0.8,1.9-0.8c0.8,0,1.5,0.3,1.8,1h0v-3.6h1.5v8.4h-1.5v-0.8h0
				C91,157.9,90.4,158.2,89.6,158.2z M88.8,156.4c0.3,0.3,0.6,0.4,1.1,0.4s0.8-0.1,1.1-0.4c0.3-0.3,0.4-0.7,0.4-1.1
				c0-0.5-0.1-0.8-0.4-1.1c-0.3-0.3-0.6-0.4-1.1-0.4s-0.8,0.1-1.1,0.4c-0.3,0.3-0.4,0.7-0.4,1.1C88.4,155.7,88.6,156.1,88.8,156.4z
				 M95.7,149.6v3.6h0c0.4-0.6,1-1,1.8-1c0.6,0,1.1,0.2,1.5,0.6c0.4,0.4,0.6,1,0.6,1.7v3.4h-1.5v-3.1c0-0.9-0.4-1.3-1.2-1.3
				c-0.9,0-1.3,0.5-1.3,1.6v2.7h-1.5v-8.4H95.7z M101.4,153.1c0.6-0.6,1.3-0.8,2.2-0.8s1.6,0.3,2.2,0.8c0.6,0.6,0.9,1.3,0.9,2.1
				s-0.3,1.6-0.9,2.1c-0.6,0.6-1.3,0.8-2.2,0.8s-1.6-0.3-2.2-0.8c-0.6-0.6-0.9-1.3-0.9-2.1S100.8,153.7,101.4,153.1z M104.7,154.1
				c-0.3-0.3-0.7-0.4-1.1-0.4c-0.5,0-0.8,0.1-1.1,0.4c-0.3,0.3-0.4,0.7-0.4,1.1s0.1,0.9,0.4,1.1c0.3,0.3,0.7,0.4,1.1,0.4
				c0.5,0,0.8-0.1,1.1-0.4c0.3-0.3,0.4-0.7,0.4-1.1S105,154.4,104.7,154.1z M109.1,149.6v8.4h-1.5v-8.4H109.1z M112.8,158.2
				c-0.8,0-1.4-0.3-1.9-0.8c-0.5-0.5-0.8-1.2-0.8-2.2s0.3-1.6,0.8-2.2c0.5-0.5,1.1-0.8,1.9-0.8c0.8,0,1.5,0.3,1.8,1h0v-3.6h1.5v8.4
				h-1.5v-0.8h0C114.3,157.9,113.6,158.2,112.8,158.2z M112.1,156.4c0.3,0.3,0.6,0.4,1.1,0.4s0.8-0.1,1.1-0.4
				c0.3-0.3,0.4-0.7,0.4-1.1c0-0.5-0.1-0.8-0.4-1.1c-0.3-0.3-0.6-0.4-1.1-0.4s-0.8,0.1-1.1,0.4c-0.3,0.3-0.4,0.7-0.4,1.1
				C111.7,155.7,111.8,156.1,112.1,156.4z M120,152.3c0.8,0,1.5,0.3,2,0.8c0.5,0.5,0.7,1.2,0.7,2.2v0.3h-4.1c0,0.4,0.2,0.8,0.5,1
				c0.3,0.2,0.6,0.3,1.1,0.3c0.6,0,1.2-0.3,1.7-0.8l0.7,1.1c-0.7,0.7-1.5,1-2.4,1c-0.9,0-1.6-0.3-2.2-0.8c-0.5-0.5-0.8-1.2-0.8-2.1
				s0.3-1.6,0.8-2.1C118.4,152.5,119.1,152.3,120,152.3z M119.9,153.5c-0.8,0-1.2,0.4-1.3,1.1h2.6c0-0.4-0.2-0.6-0.4-0.8
				C120.6,153.6,120.3,153.5,119.9,153.5z M127,152.3v1.6h-0.2c-0.6,0-1,0.1-1.3,0.4c-0.3,0.3-0.4,0.8-0.4,1.4v2.3h-1.5v-5.5h1.5
				v1.2h0C125.4,152.7,126,152.3,127,152.3L127,152.3z"/>
			<path class="st2" d="M34.1,117.8c0.9,0,1.6,0.3,2.1,0.8s0.8,1.3,0.8,2.2c0,1-0.3,1.9-0.9,2.5s-1.4,0.9-2.4,0.9
				c-0.8,0-1.4-0.2-2-0.5c-0.6-0.3-1-0.8-1.3-1.5l1.2-0.7c0.5,0.9,1.2,1.4,2.1,1.4c0.6,0,1-0.2,1.4-0.5c0.3-0.4,0.5-0.9,0.5-1.5
				c0-0.6-0.2-1.1-0.5-1.4c-0.3-0.3-0.8-0.5-1.3-0.5c-0.3,0-0.7,0.1-1,0.2c-0.3,0.1-0.5,0.3-0.7,0.6h-1.2l0.5-5.2h4.8v1.3h-3.7
				l-0.3,2.5h0C32.7,118,33.3,117.8,34.1,117.8z M44.6,121v1.3h-1v1.7h-1.3v-1.7h-4.6v-1.1l4.6-6.6h1.3v6.5H44.6z M39.1,121h3.1
				v-4.4h-0.1L39.1,121z M47.6,114.6v9.4h-1.4v-8.1h-0.6v-1.4H47.6z M49.5,124v-1l3.3-3.7c0.5-0.5,0.8-0.9,1-1.3
				c0.2-0.3,0.3-0.7,0.3-1c0-0.4-0.1-0.8-0.4-1c-0.3-0.3-0.6-0.4-1.1-0.4c-0.5,0-0.9,0.1-1.2,0.4c-0.3,0.3-0.4,0.6-0.4,1.1h-1.4
				c0-0.9,0.3-1.6,0.8-2.1c0.6-0.5,1.3-0.8,2.2-0.8c0.9,0,1.6,0.2,2.1,0.7c0.5,0.5,0.8,1.1,0.8,1.9c0,0.5-0.1,1-0.4,1.4
				c-0.2,0.5-0.6,1-1.2,1.6l-2.4,2.7h3.9v1.3H49.5z M66.2,114.6v1.2l-3.8,8.3h-1.5l3.8-8.1h-4.4v-1.3H66.2z M70.3,117.8
				c0.9,0,1.6,0.3,2.1,0.8c0.5,0.6,0.8,1.3,0.8,2.2c0,1-0.3,1.9-0.9,2.5s-1.4,0.9-2.4,0.9c-0.8,0-1.4-0.2-2-0.5
				c-0.6-0.3-1-0.8-1.3-1.5l1.2-0.7c0.5,0.9,1.2,1.4,2.1,1.4c0.6,0,1-0.2,1.4-0.5c0.3-0.4,0.5-0.9,0.5-1.5c0-0.6-0.2-1.1-0.5-1.4
				c-0.3-0.3-0.8-0.5-1.3-0.5c-0.3,0-0.7,0.1-1,0.2c-0.3,0.1-0.5,0.3-0.7,0.6h-1.2l0.5-5.2h4.8v1.3h-3.7l-0.3,2.5h0
				C68.9,118,69.5,117.8,70.3,117.8z M76.3,114.6v9.4h-1.4v-8.1h-0.6v-1.4H76.3z M78.1,124v-1l3.3-3.7c0.5-0.5,0.8-0.9,1-1.3
				c0.2-0.3,0.3-0.7,0.3-1c0-0.4-0.1-0.8-0.4-1c-0.3-0.3-0.6-0.4-1.1-0.4c-0.5,0-0.9,0.1-1.2,0.4c-0.3,0.3-0.4,0.6-0.4,1.1h-1.4
				c0-0.9,0.3-1.6,0.8-2.1c0.6-0.5,1.3-0.8,2.2-0.8c0.9,0,1.6,0.2,2.1,0.7c0.5,0.5,0.8,1.1,0.8,1.9c0,0.5-0.1,1-0.3,1.4
				c-0.2,0.5-0.6,1-1.2,1.6l-2.4,2.7H84v1.3H78.1z M92.2,114.3c0.9,0,1.6,0.2,2.1,0.7c0.5,0.4,0.8,1,0.8,1.8c0,0.6-0.1,1-0.4,1.4
				c-0.3,0.4-0.7,0.6-1.2,0.8v0c0.7,0.1,1.2,0.3,1.5,0.7c0.4,0.4,0.5,1,0.5,1.7c0,0.9-0.3,1.6-0.8,2.1c-0.6,0.5-1.3,0.8-2.3,0.8
				c-1,0-1.7-0.2-2.3-0.7s-0.9-1.2-0.9-2h1.4c0,0.5,0.2,0.8,0.5,1.1c0.3,0.3,0.7,0.4,1.3,0.4c1.1,0,1.7-0.5,1.7-1.6
				c0-0.6-0.2-1-0.5-1.2c-0.3-0.3-0.9-0.4-1.7-0.4h-0.4v-1.2h0.4c1.3,0,1.9-0.5,1.9-1.4c0-0.4-0.1-0.8-0.4-1
				c-0.3-0.2-0.6-0.4-1.1-0.4c-0.5,0-0.9,0.1-1.2,0.3c-0.3,0.2-0.4,0.6-0.4,1h-1.4c0-0.8,0.3-1.4,0.8-1.9
				C90.6,114.6,91.3,114.3,92.2,114.3z M103.1,121v1.3h-1v1.7h-1.3v-1.7h-4.6v-1.1l4.6-6.6h1.3v6.5H103.1z M97.7,121h3.1v-4.4h-0.1
				L97.7,121z M106.2,114.6v9.4h-1.4v-8.1h-0.6v-1.4H106.2z M108,124v-1l3.3-3.7c0.5-0.5,0.8-0.9,1-1.3c0.2-0.3,0.3-0.7,0.3-1
				c0-0.4-0.1-0.8-0.4-1c-0.3-0.3-0.6-0.4-1.1-0.4c-0.5,0-0.9,0.1-1.2,0.4c-0.3,0.3-0.4,0.6-0.4,1.1h-1.4c0-0.9,0.3-1.6,0.8-2.1
				c0.6-0.5,1.3-0.8,2.2-0.8c0.9,0,1.6,0.2,2.1,0.7c0.5,0.5,0.8,1.1,0.8,1.9c0,0.5-0.1,1-0.3,1.4c-0.2,0.5-0.6,1-1.2,1.6l-2.4,2.7
				h3.9v1.3H108z M122.1,114.3c0.9,0,1.6,0.2,2.1,0.7c0.5,0.4,0.8,1,0.8,1.8c0,0.6-0.1,1-0.4,1.4c-0.3,0.4-0.7,0.6-1.2,0.8v0
				c0.7,0.1,1.2,0.3,1.5,0.7c0.4,0.4,0.5,1,0.5,1.7c0,0.9-0.3,1.6-0.8,2.1c-0.6,0.5-1.3,0.8-2.3,0.8c-1,0-1.7-0.2-2.3-0.7
				c-0.6-0.5-0.9-1.2-0.9-2h1.4c0,0.5,0.2,0.8,0.5,1.1c0.3,0.3,0.7,0.4,1.3,0.4c1.1,0,1.7-0.5,1.7-1.6c0-0.6-0.2-1-0.5-1.2
				c-0.3-0.3-0.9-0.4-1.7-0.4h-0.4v-1.2h0.4c1.3,0,1.9-0.5,1.9-1.4c0-0.4-0.1-0.8-0.4-1c-0.3-0.2-0.6-0.4-1.1-0.4
				c-0.5,0-0.9,0.1-1.2,0.3c-0.3,0.2-0.4,0.6-0.4,1h-1.4c0-0.8,0.3-1.4,0.8-1.9C120.5,114.6,121.2,114.3,122.1,114.3z M133.1,121
				v1.3h-1v1.7h-1.3v-1.7h-4.6v-1.1l4.6-6.6h1.3v6.5H133.1z M127.6,121h3.1v-4.4h-0.1L127.6,121z M137.2,117.8
				c0.9,0,1.6,0.3,2.1,0.8c0.5,0.6,0.8,1.3,0.8,2.2c0,1-0.3,1.9-0.9,2.5s-1.4,0.9-2.4,0.9c-0.8,0-1.4-0.2-2-0.5
				c-0.6-0.3-1-0.8-1.3-1.5l1.2-0.7c0.5,0.9,1.2,1.4,2.1,1.4c0.6,0,1-0.2,1.4-0.5c0.3-0.4,0.5-0.9,0.5-1.5c0-0.6-0.2-1.1-0.5-1.4
				c-0.3-0.3-0.8-0.5-1.3-0.5c-0.3,0-0.7,0.1-1,0.2c-0.3,0.1-0.5,0.3-0.7,0.6H134l0.5-5.2h4.8v1.3h-3.7l-0.3,2.5h0
				C135.9,118,136.5,117.8,137.2,117.8z M144.2,124.2c-1,0-1.8-0.3-2.4-0.9c-0.6-0.6-0.9-1.5-0.9-2.5c0-0.8,0.1-1.5,0.4-2.2
				c0.3-0.7,0.8-1.4,1.5-2.2l1.7-2h1.7l-3.5,4.1l0,0c0.5-0.6,1.1-0.9,1.8-0.9c0.9,0,1.6,0.3,2.1,0.9c0.6,0.6,0.8,1.4,0.8,2.3
				c0,1-0.3,1.8-0.9,2.4C146,123.9,145.2,124.2,144.2,124.2z M144.2,122.9c0.6,0,1-0.2,1.4-0.5c0.3-0.4,0.5-0.8,0.5-1.5
				c0-0.6-0.2-1.1-0.5-1.4c-0.3-0.4-0.8-0.5-1.4-0.5c-0.6,0-1,0.2-1.4,0.5c-0.3,0.4-0.5,0.8-0.5,1.4c0,0.6,0.2,1.1,0.5,1.4
				C143.2,122.7,143.6,122.9,144.2,122.9z"/>
			<path class="st3" d="M247.9,141.2h10.1v16.5h-10.1V141.2z"/>
			<path class="st4" d="M249,149.5c0-1.6,0.4-3.2,1.1-4.6c0.7-1.4,1.7-2.7,3-3.7c-1.5-1.2-3.4-2-5.4-2.2c-2-0.2-3.9,0.1-5.7,1
				c-1.8,0.9-3.3,2.2-4.3,3.9c-1,1.7-1.6,3.6-1.6,5.6s0.6,3.9,1.6,5.6c1,1.7,2.5,3,4.3,3.9c1.8,0.9,3.8,1.2,5.7,1
				c2-0.2,3.8-1,5.4-2.2c-1.3-1-2.3-2.2-3-3.7C249.3,152.7,249,151.1,249,149.5L249,149.5z"/>
			<path class="st5" d="M270,149.5c0,2-0.6,3.9-1.6,5.6c-1,1.7-2.5,3-4.3,3.9c-1.8,0.9-3.8,1.2-5.7,1c-2-0.2-3.8-1-5.4-2.2
				c1.3-1,2.3-2.2,3-3.7c0.7-1.4,1.1-3,1.1-4.6c0-1.6-0.4-3.2-1.1-4.6c-0.7-1.4-1.7-2.7-3-3.7c1.6-1.2,3.4-2,5.4-2.2
				c2-0.2,3.9,0.1,5.7,1c1.8,0.9,3.3,2.2,4.3,3.9C269.4,145.6,270,147.5,270,149.5L270,149.5z"/>
			<rect x="71" y="-20" class="st6" width="245" height="169"/>
			<rect x="30" y="22" class="st7" width="108" height="28"/>
			<circle class="st8" cx="260" cy="32" r="9"/>
			<circle class="st9" cx="260" cy="32" r="5"/>
			<path class="st10" d="M185,40.2V29.6h1.2v1.3h0c0.6-1,1.5-1.6,2.8-1.6c1,0,1.9,0.4,2.6,1.1c0.7,0.7,1.1,1.7,1.1,2.9
				c0,1.2-0.4,2.1-1.1,2.9c-0.7,0.7-1.6,1.1-2.6,1.1c-1.3,0-2.2-0.5-2.8-1.6h0v4.5H185z M186.8,35.3c0.5,0.5,1.1,0.8,1.9,0.8
				s1.4-0.3,1.9-0.8s0.7-1.2,0.7-2s-0.2-1.5-0.7-2s-1.1-0.8-1.9-0.8s-1.4,0.3-1.9,0.8c-0.5,0.5-0.7,1.2-0.7,2S186.4,34.8,186.8,35.3
				z M198,29.4v1.3h-0.2c-0.8,0-1.4,0.2-1.8,0.7c-0.4,0.5-0.6,1.2-0.6,2.1V37h-1.2v-7.4h1.2v1.7h0c0.2-0.6,0.5-1,0.9-1.4
				c0.4-0.4,1-0.5,1.6-0.5H198z M200.4,26v1.9H199V26H200.4z M199.1,37v-7.4h1.2V37H199.1z M202.3,37v-7.4h1.2v1.3h0
				c0.4-1,1.2-1.6,2.3-1.6c1.2,0,1.9,0.5,2.4,1.6h0c0.2-0.6,0.5-1,1-1.2c0.4-0.3,0.9-0.4,1.5-0.4c0.8,0,1.4,0.2,1.8,0.7
				c0.5,0.5,0.7,1.2,0.7,2.3V37H212v-4.6c0-1.3-0.6-1.9-1.7-1.9c-0.6,0-1.1,0.2-1.5,0.6c-0.4,0.4-0.5,1.1-0.5,2V37h-1.2v-4.4
				c0-1.4-0.6-2.1-1.7-2.1c-0.6,0-1.1,0.2-1.5,0.7c-0.4,0.4-0.5,1.1-0.5,2.1V37H202.3z M218.2,37.2c-1,0-1.9-0.4-2.6-1.1
				c-0.7-0.7-1-1.7-1-2.9c0-1.2,0.3-2.1,1-2.9c0.7-0.7,1.6-1.1,2.6-1.1c1.3,0,2.2,0.5,2.8,1.6h0v-1.3h1.2V37H221v-1.3h0
				C220.4,36.7,219.5,37.2,218.2,37.2z M216.5,35.3c0.5,0.5,1.1,0.8,1.9,0.8c0.8,0,1.4-0.3,1.9-0.8c0.5-0.5,0.7-1.2,0.7-2
				s-0.2-1.5-0.7-2c-0.5-0.5-1.1-0.8-1.9-0.8c-0.8,0-1.4,0.3-1.9,0.8s-0.7,1.2-0.7,2S216,34.8,216.5,35.3z M227.9,29.4v1.3h-0.2
				c-0.8,0-1.4,0.2-1.8,0.7c-0.4,0.5-0.6,1.2-0.6,2.1V37h-1.2v-7.4h1.2v1.7h0c0.2-0.6,0.5-1,0.9-1.4c0.4-0.4,1-0.5,1.6-0.5H227.9z
				 M234.2,29.6h1.3l-4.8,10.6h-1.2l1.9-4l-3.1-6.6h1.4l2.3,5.3L234.2,29.6z"/>
		</g>
		<g class="st0">
			<g id="g11">
				<path id="path13" class="st11" d="M32.6,36c0.9,0,1.5,0.2,1.9,0.6c0.4,0.4,0.6,1.2,0.6,2.3v14.8c0,2-0.4,3-3,3h-0.3v0.9h11.4
					v-0.9l-0.3,0c-2.5,0-2.9-0.9-2.9-3V39c0-1.2,0.2-1.9,0.6-2.3c0.4-0.4,1-0.6,2-0.6h0.7v-0.9H31.9V36L32.6,36L32.6,36z"/>
				<path id="path15" class="st11" d="M69,50.1c0,0-0.2-0.9-0.2-1.4v-6.7c0-3.9,0.5-5.9-2.9-5.9v-0.9h7.9V36c-3.5,0-3.1,1.9-3.1,5.9
					v15.7l-1.1,0L52.4,39.7c0,0,0.2,0.9,0.2,1.4v11c-0.1,4,0.4,4.5,3,4.5v0.9h-8.3v-0.9c2.6,0,3.1-0.3,3.1-4.8v0.3V41.3l0-1.7
					c0.1-2.2-0.7-3.5-3.3-3.5v-0.9h7.6C54.8,35.2,69,50.1,69,50.1z"/>
				<path id="path17" class="st11" d="M97.7,34.7h-0.9l0,0.3c-0.1,0.4-0.2,1.2-0.7,1.2c-0.1,0-0.5-0.1-0.9-0.3
					c-1.8-0.8-4.1-1.2-6-1.2c-3.8,0-7.2,1.3-9.6,3.8c-2.2,2.2-3.5,5.3-3.4,8.6c0,3.2,1.3,5.8,3.8,7.9c2.6,2.2,5.4,3.1,9.6,3.1
					c3.5,0,5.5-0.5,8.5-2.1l0.5-0.3v-5.9c0-2.5,0.3-2.9,2.4-3l0.3,0v-0.9h-10v0.9l0.3,0c2.3,0.1,2.7,0.5,2.7,2.6v5.5
					c-1.7,1.1-2.9,1.5-4.5,1.5c-2.3,0-4.3-0.9-5.9-2.4c-1.8-1.8-2.7-4.5-2.7-7.5c0-3.3,0.9-6,2.7-7.8c1.4-1.4,3.3-2.2,5.5-2.2
					c1.9,0,4.2,0.8,5.7,2c1.2,1,1.9,2,2.4,3.6l0.1,0.2h0.9L97.7,34.7z"/>
			</g>
			<g id="g19">
				<path id="path21" class="st11" d="M141.4,57.5c0.6-0.1,1.1-0.1,1.6-0.5c1.9,0.3,3.8-0.2,5.3-1.2c0.8-0.6,1.5-1.4,2-2.1
					c0.5-0.7,0.9-1.4,1.1-2.1c0.2-0.5,0.3-1,0.5-1.5c0.5-2.4,0.3-5.2-0.5-7.5c-0.1-0.4-0.3-0.8-0.5-1.2c-1-2-2.3-4.2-4.4-5.5
					c-1.2-0.7-2.2-1.9-2.9-3c-0.4-0.3-0.7-0.7-1.2-0.8c0.1,0.2,0.3,0.4,0.3,0.7l0,0c-0.5,0-0.9-0.2-1.2-0.6l0.4-0.3
					c-0.1-0.1-0.3-0.1-0.5-0.1c-1.4-0.2-2.6,0.5-3.8,0.8l0,0.1c0.8,0.3,0.9,1.2,1.4,1.8c0.1-0.1,0.3,0,0.5,0c0.2,0,0.4,0.2,0.7,0.1
					c0-0.2-0.1-0.3-0.1-0.5c0.1-0.1,0.3,0,0.4,0c0.4,0.2,1.1,0,1.3,0.5c-0.5,0-0.9,0.1-1.3,0.2c0,0.2,0.2,0.3,0.2,0.5
					c-0.4-0.2-0.8-0.3-1.2-0.3l0,0.1c0.5,0.6,1.3,1,2,1.2c1.1,0.2,2-0.3,3-0.1c2.5,1.2,4.7,3.8,5.6,6.3c0,0.1,0.1,0.2,0.1,0.4
					c0.8,2.3,0.9,5.1,0.1,7.5c-0.4,1-0.9,1.9-1.6,2.7c-0.3,0.3-0.6,0.6-0.9,0.9c-1.1,0.8-2.4,1.2-3.7,0.8c-0.1-0.1-0.3-0.1-0.2-0.2
					c0-0.2,0.1-0.4,0.1-0.6c0.2-1.1,0.3-2.3,0.3-3.5c0-0.1,0-0.1,0-0.2c-0.1-1.7-0.4-3.3-1.1-4.8c-0.4-0.9-0.9-1.8-1.5-2.7
					c-0.7-1-1.6-1.9-2.8-2.3c-0.7-0.2-1.6-0.2-2.1,0.4c-0.4,0.3-0.5,0.8-0.5,1.3c-0.6,0.4-1.3,0.6-2,0.7c-0.2,0-0.4,0.1-0.6,0.1
					c-0.2,0-0.4,0-0.5,0c-0.9-0.1-1.8-0.6-2.5-1.1c0-0.4,0-0.7,0-1.1c-0.4-0.2-0.7-0.6-0.7-1l0,0c0.2,0.1,0.4,0.2,0.6,0.3
					c-0.1-0.5-0.2-1.1-0.5-1.6c-0.3-0.1-0.5-0.2-0.7-0.3c-0.3-0.2-0.5-0.5-0.5-0.8c0.2,0.2,0.7,0.2,0.9,0.4c-0.3-1-0.3-2.1-0.9-3
					c-0.3-0.7-1-1-1.5-1.4c-0.2-0.2-0.3-0.6-0.6-0.6c-0.3-0.1-0.3-0.4-0.4-0.6c0.2,0,0.3,0.1,0.5,0.2c-0.4-1.1-0.8-2.3-1.9-3
					l-0.2,0.1c-0.4,0.1-0.9,0.1-1.3,0.1c0.2-0.3,0.5-0.4,0.8-0.5c-0.3-0.2-0.6-0.3-1-0.3c-0.2,0.2-0.6,0.3-0.9,0.4l0,0
					c0-0.3-0.1-0.6,0.3-0.6c-0.4-0.2-1-0.1-1.3,0c-0.1,0.3-0.4,0.5-0.4,0.8c-0.2,0.2-0.4,0.5-0.6,0.7c0-0.5,0.2-1,0.3-1.5
					c-0.3,0.1-0.6,0.3-0.9,0.4c-0.5-0.3-1-0.6-1.6-0.8c0,0-0.2,0-0.1,0c0.5,0.3,0.3,0.9,0.3,1.4l-0.3-0.2c-0.1-0.4-0.5-0.6-0.6-1
					c-0.5,0.1-0.8,0.2-1.2,0.4l-0.1,0c0.3,0,0.6,0.3,0.8,0.5c-0.5,0-0.9-0.2-1.4-0.2c0,0-0.1-0.1-0.2-0.1c-0.2,0.1-0.5,0.3-0.7,0.4
					c-0.5,0.5-1,1-1.2,1.6c0.2,0,0.4,0,0.5,0.1c-0.3,0.2-0.5,0.4-0.8,0.6c-0.1,0.4-0.1,0.8-0.1,1.2c-0.2,0.3-0.5,0.6-0.6,0.9
					c-0.4,1.4-0.5,3-0.5,4.6c-0.1,0.1-0.3,0.2-0.5,0.3l0,1.4h0c0.1-0.3,0.4-0.5,0.6-0.7h0.1c0,0.3-0.1,0.6-0.1,1l-0.4,0.3
					c-0.4,0.4-0.1,0.9-0.1,1.3c0,0.1,0,0.3,0.1,0.3c0-0.2,0.2-0.3,0.3-0.5c0.2,0,0.3-0.2,0.5-0.2c-0.1,0.4-0.2,0.7-0.4,1
					c-0.1,0-0.1,0.1-0.2,0.2c-0.1,0.1-0.1,0.2-0.1,0.3c0.3,1.7,0.8,3.3,1.4,4.9c-0.4,0.7-0.6,1.4-0.9,2.1c0,0.1-0.1,0.2-0.1,0.3
					c-0.3,0.8-0.4,1.7-0.8,2.5c-0.2-0.1-0.3-0.2-0.5-0.3c-0.8-0.3-1.6-0.1-2.2,0.5c-0.5-0.1-1,0-1.4,0.3c-0.3,0.2-0.5,0.5-0.6,0.7
					c-0.1,0.2-0.1,0.4-0.1,0.7c-0.3,0.2-0.5,0.6-0.6,0.9c-0.1,0.8,0.1,1.5,0.6,2.1L141.4,57.5L141.4,57.5z"/>
				<path id="path23" class="st11" d="M136.8,41.8c0,0.2-0.1,0.4,0,0.5c0.2-0.2,0.5-0.2,0.7-0.3c0.6-0.1,1.2,0.1,1.8,0.3
					c-0.1-0.2-0.2-0.5-0.4-0.7c-0.3-0.1-0.8,0.1-0.9-0.3c-0.2-0.2-0.5,0-0.7,0C137.1,41.4,136.9,41.5,136.8,41.8L136.8,41.8z"/>
				<path id="path25" class="st11" d="M115.3,35.7C115.3,35.7,115.3,35.7,115.3,35.7C115.3,35.7,115.3,35.7,115.3,35.7L115.3,35.7z"
					/>
				<path id="path27" class="st11" d="M117.9,41.9l0.4-0.4c0,0,0.1,0,0.1,0l0,0.8c0.2,0.2,0.5,0.3,0.7,0.3c0-0.2,0.2-0.4,0.3-0.5
					c0.1-0.1,0-0.4,0.2-0.5l0,0c0.1,0.2,0,0.5,0.2,0.7c0,0.1,0,0.3,0,0.4c0.3,0,0.6-0.1,0.8-0.2c0-0.3,0.1-0.5,0.1-0.7
					c0.1-0.1-0.1-0.2,0.1-0.2c0.1,0.2,0.3,0.4,0.4,0.7c0.4-0.4,0.6-1,0.7-1.5c-0.1-0.2-0.3-0.2-0.4-0.3c-1.2-0.4-2.7-0.5-3.9,0.1
					C117.5,41,117.6,41.6,117.9,41.9z"/>
				<path id="path29" class="st11" d="M106.7,55.1c0,0.5,0,1,0,1.6c0.1,0.2,0.3,0.4,0.5,0.4l0-0.4c0.1-0.5-0.2-1,0.1-1.4
					c0.2,0.1,0.4,0.2,0.6,0.3c0.1-0.5,0-1-0.5-1.3C107.5,54.2,106.7,55.1,106.7,55.1z"/>
				<path id="path31" class="st11" d="M108.4,54.3c-0.3,0.8-0.5,1.8-0.1,2.7c0.2-0.1,0.4-0.2,0.6-0.4c0-0.7-0.1-1.4,0.3-1.9
					c0.3,0.1,0.6,0.4,0.7,0.8c0.2-0.3,0.3-0.7,0.2-1.1c0-0.3-0.3-0.2-0.5-0.4c0.1-0.3,0-0.6,0.3-0.7l-0.8,0.1
					C108.8,53.7,108.6,54,108.4,54.3z"/>
				<path id="path33" class="st11" d="M110.2,56.8c0,0.1,0,0.2,0.1,0.2c0.1-0.6,0.6-1,0.8-1.5c0.1-0.2,0.1-0.4,0.3-0.6
					c0.3,0,0.5,0.2,0.7,0.2c0.1,0.1,0,0.1,0,0.2c-0.1,0.5-0.2,0.9-0.2,1.4h0c0.4-0.4,0.6-0.8,0.9-1.3l0-0.4c0.1-0.5-0.5-0.8-0.8-1
					l0.3-0.4l-0.4-0.1c-0.5,0-0.9,0.3-1.3,0.6C110.3,54.9,110.2,55.8,110.2,56.8L110.2,56.8z"/>
				<path id="path35" class="st11" d="M112.1,52.6c0.2,0,0.3-0.1,0.5,0c0.6,0.2,1.3,0.5,1.8,1l0.6,1.5l0.3-0.9l-0.2-0.5
					c-0.2-0.4-0.6-0.3-0.9-0.3c-0.1-0.1,0-0.3,0.1-0.4c0.1-0.5-0.5-0.5-0.7-0.7c0-0.3-0.4-0.2-0.6-0.2l-0.1-0.1c0-0.1-0.1-0.1-0.2,0
					c0,0,0,0,0-0.1l-0.2,0C112.2,52.1,112.1,52.3,112.1,52.6L112.1,52.6z"/>
				<path id="path37" class="st11" d="M112.5,51c0,0.1,0.1,0.2,0.1,0.2c0.3-0.1,0.6-0.3,1-0.2c0.5,0.4,1,0.8,1.5,1.1l0.2,0
					c0.1,0,0.3,0,0.4,0.2c0.1,0.2-0.1,0.3-0.2,0.5c0.3,0.2,0.2,0.6,0.4,0.9l0.5-0.7c-0.1-0.3,0-0.8-0.5-0.8
					c-0.2-0.1-0.3-0.2-0.3-0.4c-0.3-0.3-0.7-0.4-1-0.7c-0.2-0.2-0.4-0.5-0.7-0.6c-0.2-0.1-0.5-0.2-0.7-0.2
					C112.8,50.2,112.8,50.8,112.5,51z"/>
				<path id="path39" class="st11" d="M113.1,49.6l0.1,0.1c0.4,0,0.7-0.2,1-0.2c0.2,0.1,0.5,0.1,0.8,0.3c0.2,0.3,0.4,0.6,0.7,0.7
					c0.6,0.1,0.9,0.7,1.1,1.1v-0.2c0.1-0.3,0-0.7-0.1-0.9c-0.1-0.1-0.3-0.2-0.5-0.4c0-0.1,0-0.1,0-0.2c-0.2-0.2-0.5-0.4-0.8-0.5
					c-0.4-0.5-1.1-0.4-1.7-0.5L113.1,49.6L113.1,49.6z"/>
				<path id="path41" class="st11" d="M113.1,44.5c0.1,0.2,0.1,0.5,0.2,0.7c0.2-0.4,0.6-0.6,0.9-1c-0.2-0.1-0.4-0.2-0.7-0.2v0
					C113.4,44.1,113.2,44.2,113.1,44.5z"/>
				<path id="path43" class="st11" d="M114.4,46.8l0.3-0.3c0.3-0.3,0.6-0.7,0.6-1.1c-0.2-0.1-0.5,0-0.7,0
					C114.5,45.8,114.4,46.3,114.4,46.8L114.4,46.8z"/>
				<path id="path45" class="st11" d="M114.6,47.8c0.5,0,1,0.1,1.3-0.1l0.4-1.3c-0.1,0-0.3-0.1-0.4,0
					C115.7,46.9,115.2,47.5,114.6,47.8z"/>
				<path id="path47" class="st11" d="M114.8,43.3c0.3,0.5,0.8,1,1.4,1.1c-0.1-0.6-0.6-1-0.8-1.5l0-0.2c-0.2-0.2-0.4-0.3-0.7-0.4
					C114.6,42.6,114.7,43,114.8,43.3L114.8,43.3z"/>
				<path id="path49" class="st11" d="M116.5,47.8c0.4,0.1,0.8,0,1.1-0.1c0.5-0.1,0.8-0.7,0.9-1.1h-0.6l-0.7,0.7
					C117,47.4,116.7,47.6,116.5,47.8L116.5,47.8z"/>
				<path id="path51" class="st11" d="M116.4,42.6c0.1,0.5,0.3,1,0.7,1.5l0.1-1C117.2,43.1,116.4,42.6,116.4,42.6z"/>
				<path id="path53" class="st11" d="M118.7,45.4c0-0.4-0.1-0.8-0.1-1.1c-0.2-0.1-0.5-0.1-0.7-0.3C117.9,44.5,118.3,45,118.7,45.4z
					"/>
				<path id="path55" class="st11" d="M118.1,48.9c0.4-0.1,0.9-0.3,1.3-0.5c0.3-0.4,0.7-0.7,0.7-1.1c-0.3,0.1-0.6,0-0.9,0.1
					c-0.2,0.3-0.3,0.7-0.6,0.9C118.5,48.6,118.2,48.7,118.1,48.9z"/>
				<path id="path57" class="st11" d="M118.8,49.8l0.5,0.7c0.3,0.1,0.6,0.1,0.9-0.1l-0.2-0.6C119.6,49.9,119.2,49.9,118.8,49.8z"/>
				<path id="path59" class="st11" d="M119.6,44.8l0.2,0.9c0.5-0.4,0.6-1,0.6-1.6C120.1,44.5,120,44.7,119.6,44.8L119.6,44.8z"/>
				<path id="path61" class="st11" d="M121,46.5c0,0.1,0,0.3,0.1,0.4c0.5,0.2,0.6,0.9,1.1,1.1c0.3,0.1,0.7,0,1-0.2
					c-0.2-0.2-0.5-0.4-0.7-0.7c-0.1-0.1-0.3-0.2-0.3-0.3L121,46.5L121,46.5z"/>
				<path id="path63" class="st11" d="M121.5,49.8c0.2,0.3,0.6,0.4,0.9,0.5c-0.1-0.1,0,0,0,0l-0.4-0.9c-0.2,0-0.4,0-0.6,0
					C121.4,49.5,121.4,49.6,121.5,49.8L121.5,49.8z"/>
				<path id="path65" class="st11" d="M122.2,45.5c-0.2-0.5-0.3-1-0.3-1.5c-0.2,0.3-0.4,0.4-0.6,0.7
					C121.2,45.1,121.9,45.3,122.2,45.5z"/>
				<path id="path67" class="st11" d="M123.1,45c0.3,0.3,0.8,0.2,1.1,0.1c-0.1-0.3-0.6-0.4-0.7-0.7c0-0.5-0.1-1-0.3-1.4
					C122.9,43.6,122.6,44.3,123.1,45z"/>
				<path id="path69" class="st11" d="M123.5,46.5c0.7,0.5,1.4,1.1,2.4,0.9c0.1,0,0.2,0,0.2-0.1c-0.3-0.2-0.6-0.3-0.9-0.5l-0.3-0.5
					h-0.2C124.3,46.4,123.9,46.4,123.5,46.5L123.5,46.5z"/>
				<path id="path71" class="st11" d="M123.5,52.2L123.5,52.2c0.5-0.3,1-0.4,1.5-0.6c0.1,0,0,0.2,0.2,0.3c0.3-0.1,0.7-0.1,1-0.2
					c0.4,0,0.7,0,1,0.2c0.2,0.3,0.7,0.3,1,0.5l0-0.5c-0.7-0.8-1.7-0.8-2.6-0.8l0-0.1c-0.2,0-0.5,0-0.7,0.1c-0.3,0-0.6,0.2-0.9,0.3
					C123.7,51.6,123.6,51.9,123.5,52.2z"/>
				<path id="path73" class="st11" d="M124.1,43.5c0.3,0.4,0.7,0.6,1.1,0.5c-0.2-0.2-0.5-0.5-0.5-0.8c0.1-0.6-0.6-0.7-1-1
					C123.9,42.7,123.8,43.2,124.1,43.5z"/>
				<path id="path75" class="st11" d="M124,53.4L124,53.4c0.5-0.2,1-0.1,1.4-0.3c0.2-0.1,0.2,0.2,0.4,0.3c0.3,0.2,0.4,0.8,0.9,0.7
					c0.6,0.3,0.4,1,0.5,1.5l0.5-0.3c0-0.3,0.1-0.6-0.1-0.8c-0.1-0.3-0.5-0.3-0.7-0.6c0.2-0.4-0.3-0.5-0.4-0.8l0,0l0.7,0.1
					c0.3,0.2,0.3,0.4,0.4,0.7c0.6,0.1,0.7,0.8,0.9,1.2c0.1-0.3,0.2-0.6,0.3-0.9c0-0.2-0.3-0.2-0.5-0.3c0-0.4-0.2-0.7-0.5-0.9
					c-0.6-0.2-1.2-0.5-1.9-0.5l-0.6,0.2c-0.3,0.1-0.7,0-0.9,0.2C124.1,52.7,124.1,53.1,124,53.4L124,53.4z"/>
				<path id="path77" class="st11" d="M124.4,50.5l0.1,0.1c0.3-0.1,0.6-0.3,0.9-0.4c0.5-0.1,0.8,0.4,1.2,0.1c0.1-0.1,0.3,0,0.4,0.1
					c0.2,0.3,0.6,0.3,0.9,0.4c-0.1-0.4-0.3-0.9-0.8-1c-0.2-0.1-0.4-0.1-0.6-0.2c-0.5-0.6-0.9,0.5-1.5,0.2
					C124.7,50,124.4,50.2,124.4,50.5z"/>
				<path id="path79" class="st11" d="M124.5,53.9c0.2,0.2,0.5,0.5,0.8,0.5c0.4,0.2,0.3,0.8,0.5,1.1l0.3-0.2l0,0l0,0l0,0
					c0.1-0.2,0-0.6-0.1-0.8c-0.2-0.1-0.4,0-0.5-0.1c0-0.2-0.2-0.3-0.3-0.5c-0.1-0.1-0.3,0-0.4,0L124.5,53.9L124.5,53.9z"/>
				<path id="path81" class="st11" d="M125.4,45.4c0.2,0.4,0.7,0.6,1,0.9c0.3,0.1,0.7,0.2,1,0.1c-0.3-0.2-0.6-0.5-0.8-0.8
					c-0.1-0.1-0.1-0.3-0.3-0.4C126,45.2,125.7,45.2,125.4,45.4L125.4,45.4z"/>
				<path id="path83" class="st11" d="M125.8,42.9c0.3,0.4,0.8,0.2,1.3,0.3v0l-0.7-0.6C126.2,42.5,126,42.7,125.8,42.9L125.8,42.9z"
					/>
				<path id="path85" class="st11" d="M112.9,36.2l0.4,1.3c0-0.7,0.3-1.3,0.3-2l0.3-0.4l-0.6,0.2C113,35.5,112.9,35.9,112.9,36.2z"
					/>
				<path id="path87" class="st11" d="M113.1,34l0.6-0.3v-0.8c-0.2,0.1-0.4,0.4-0.5,0.6L113.1,34z"/>
				<path id="path89" class="st11" d="M124.5,35.3c-0.1,0.2-0.3,0.2-0.5,0.3c0.3-0.5,0.4-1.3,0.2-1.9c0.2-0.1,0.3-0.1,0.5-0.2l0,0
					l0.4-0.3c0.5-0.4,0.3-1,0.5-1.5c-0.3-0.4-0.3-0.9-0.7-1.2l0,0c-0.3-0.4-0.8-0.3-1.2-0.5c-0.5-0.2-0.9,0.2-1.3,0.4
					c-0.2,0-0.1,0.2-0.2,0.2c-0.1,0.3-0.2,0.5-0.3,0.8c-0.7-0.1-1.4,0-2,0.4c-0.3-0.2-0.7-0.3-1-0.4c-0.3,0-0.5,0-0.7-0.1
					c-0.3-0.3-0.3-0.8-0.8-0.9c-0.2-0.1-0.2-0.2-0.2-0.4c-0.3,0-0.6-0.2-0.9-0.3c-0.4-0.2-0.8,0.1-1.1,0.3c-0.1,0.1-0.3,0.1-0.5,0.2
					c-0.3,0.4-0.5,0.8-0.7,1.2c0,0.4,0.2,0.7,0.4,1c0.2,0.5,0.7,0.8,1.1,1c-0.2,0.7-0.2,1.5,0,2.2c0,0,0,0,0,0c0,0,0,0,0,0
					c-0.1,0-0.1,0-0.2,0h0c0.1,0.7,0.4,1.3,0.9,1.8c0.2,0.1,0.1,0.3,0.2,0.4c0,0.1,0.1,0.2,0,0.3c-1.1,0-2.1,0.2-3,0.7
					c-0.2,0.1-0.1,0.4-0.1,0.6c0.6-0.4,1.3-0.7,2-0.8c0.3,0,0.7-0.1,1,0l0,0.6c-0.8,0.4-1.7,0.7-2.5,1.4c0,0.2,0,0.5,0,0.7l0.6-0.5
					c0.6-0.5,1.3-0.9,2-1.1c0.2,0.2,0.4,0.5,0.6,0.6c0.4-0.3,0.9-0.5,1.4-0.6c0.3-0.2,0.7,0,0.8-0.3l0.1-0.6c0,0,0,0-0.1,0
					c-0.3-0.2-0.5-0.5-0.5-0.9c-0.1,0.1-0.2,0.1-0.4,0.1c-0.1,0-0.2-0.1-0.3-0.2c0-0.1-0.1-0.4,0.1-0.5c0.5-0.3,1-0.3,1.6-0.3
					c0.4,0.1,1,0,1.2,0.5c0,0.1,0,0.3-0.2,0.4c-0.2,0.1-0.3,0-0.5-0.1c-0.1,0.3-0.3,0.7-0.7,0.8l0.1,0.4c0,0.2,0.1,0.5,0.4,0.4
					c0.7,0.2,1.3,0.5,1.8,0.9c0.2-0.2,0.4-0.4,0.5-0.6c1,0.4,1.9,1.1,2.8,1.9l0-0.6c-0.8-0.7-1.7-1.2-2.7-1.6c0-0.2,0.1-0.4,0.1-0.6
					c1.1,0.1,2.2,0.4,3.1,0.9l0-0.5c-1-0.5-2-0.9-3.2-0.9c0-0.1-0.1-0.2,0-0.2c0.6-0.1,1-0.7,1.1-1.2c0.3-0.3,0.7-0.7,0.6-1.2
					c0,0,0-0.1,0-0.1C124.5,35.6,124.6,35.4,124.5,35.3z"/>
				<path id="path91" class="st11" d="M125.5,37.1l0.6-0.2l0.1-0.3c0.2-0.5-0.2-0.8-0.4-1.2L125.5,37.1L125.5,37.1z"/>
				<path id="path93" class="st11" d="M127,39.4c0.3,0.3,0.5,0.8,1,0.6c0-0.2-0.1-0.4-0.2-0.6c-0.1-0.1-0.2-0.6-0.4-0.4
					c-0.2-0.1-0.2-0.3-0.4-0.5C126.9,38.8,127,39.1,127,39.4z"/>
				<path id="path95" class="st11" d="M127.1,41.4c0.1,0.1,0.1,0.3,0.2,0.5c0.2,0.1,0.5,0.1,0.7,0.1c0.2,0,0.3,0.2,0.5,0
					c-0.2-0.2-0.4-0.4-0.6-0.6C127.6,41.2,127.3,41.3,127.1,41.4z"/>
				<path id="path97" class="st11" d="M127.4,44.7c0.5,0.3,1.1,0.6,1.7,0.5c0.1,0,0.2,0,0.2-0.1c-0.4-0.1-0.8-0.5-1.2-0.6
					c-0.2-0.4-0.5,0.1-0.8,0.1C127.3,44.6,127.4,44.6,127.4,44.7z"/>
				<path id="path99" class="st11" d="M128.9,50.9l0.1,0.2c0.1,0.7,0.6,1.4,0.3,2.2c0.2,0.1,0.3,0.4,0.4,0.6h0c0.2-0.6,0-1.2,0-1.9
					C129.8,51.5,129.2,51.2,128.9,50.9z"/>
				<path id="path101" class="st11" d="M129,43.7c0.4,0.3,0.9,0.3,1.4,0.2c-0.3-0.1-0.6-0.3-0.8-0.5L129,43.7z"/>
				<path id="path103" class="st11" d="M130.7,45.8c0,0.3,0.2,0.5,0.4,0.7c0.1-0.2,0.2-0.3,0.2-0.5c-0.1-0.3-0.2-0.6-0.5-0.8
					C130.8,45.4,130.7,45.6,130.7,45.8z"/>
				<path id="path105" class="st11" d="M130.8,49c0,0.3,0.3,0.4,0.5,0.6c0.1,0.2-0.1,0.3-0.1,0.4c0.3,0.3,0.4,0.7,0.4,1.2
					c0.1-0.4,0.3-0.8,0.3-1.3c0-0.3-0.5-0.2-0.4-0.6c0.1-0.4,0-0.7-0.1-1c0-0.1-0.1-0.1-0.1-0.1C131.1,48.5,130.7,48.7,130.8,49z"/>
				<path id="path107" class="st11" d="M131.7,47.4l0.4,0.7c0.2,0,0.3-0.2,0.4-0.3c0.1-0.3-0.2-0.5-0.2-0.7c-0.1-0.2,0-0.4-0.1-0.5
					c-0.1-0.1-0.2-0.1-0.3-0.1L131.7,47.4L131.7,47.4z"/>
				<path id="path109" class="st11" d="M132.2,45.5c0.3,0.2,0.6,0.4,0.8,0.7c0.2,0.7,0.6,1.4,0.9,2.1c0.1,0.5,0.2,0.9,0.3,1.4
					c0,0.1,0,0.4,0.2,0.4c0.1-0.5,0.2-1,0.2-1.6c-0.2-0.2-0.4-0.3-0.6-0.5v0c0-0.1,0.1-0.3,0.3-0.2c0.1-0.1,0.3-0.1,0.2-0.3
					c-0.4-0.4-0.3-1-0.9-1.1c-0.2-0.1-0.3-0.3-0.3-0.5C132.9,45.6,132.5,45.5,132.2,45.5z"/>
				<path id="path111" class="st11" d="M132.5,49.3c0.4,0.3,0.2,0.8,0.2,1.2c-0.1,0.3,0.3,0.1,0.4,0.3c0.2,0.3,0.1,0.8,0,1.1
					c0.2-0.3,0.4-0.5,0.6-0.9c0-0.1,0.1-0.2,0.1-0.3c0.1-0.2-0.2-0.1-0.3-0.1c-0.1,0-0.2-0.1-0.1-0.2c0.2-0.4,0-0.8-0.1-1.1
					c-0.1-0.3,0-0.7-0.1-0.9C133,48.7,132.4,48.8,132.5,49.3L132.5,49.3z"/>
				<path id="path113" class="st11" d="M133.2,44.3c0.6,0.6,1.1,1.3,1.8,1.9c0-0.3,0-0.5,0-0.8c-0.1-0.2-0.3-0.3-0.4-0.5
					C134,44.9,133.7,44.2,133.2,44.3z"/>
				<path id="path115" class="st11" d="M134.8,47.7c0,0.1,0,0.1,0.1,0.2c0.3,0.4,0.5,0.9,0.7,1.4c-0.1-0.5,0.3-1.2-0.2-1.6
					c-0.1-0.2-0.3-0.1-0.4-0.1L134.8,47.7z"/>
				<path id="path117" class="st11" d="M136.5,52.8c0.2,0.1,0.4-0.1,0.6-0.2c0.2,0,0.3,0.1,0.5,0.1c0.1,0.1,0,0.2,0,0.3
					c0.4,0.1,0.8,0.3,1.2,0.5l0.1-0.1c0-0.3-0.2-0.5-0.4-0.7c-0.1-0.1-0.4,0-0.5-0.2c0.1-0.1,0.1-0.3,0.1-0.4
					c-0.2,0-0.4-0.1-0.6-0.2c-0.1,0-0.2-0.1-0.3,0C136.9,52.3,136.8,52.6,136.5,52.8L136.5,52.8z"/>
				<path id="path119" class="st11" d="M137,44c0.2,0,0.4-0.1,0.5-0.2c0.5-0.4,1.2-0.1,1.7-0.1c-0.1-0.2-0.3-0.4-0.4-0.5
					c-0.2-0.1-0.4-0.2-0.6-0.2c-0.5-0.3-0.8,0.2-1.2,0.4C137,43.5,136.9,43.8,137,44z"/>
				<path id="path121" class="st11" d="M137,45.4C137,45.4,137,45.4,137,45.4c0.1,0,0,0.1,0.1,0.2c0.2-0.1,0.4-0.2,0.5-0.3
					c0.5,0,0.8-0.5,1.2-0.5c0.8,0.1,1.5,0.3,2.2,0.7c0-0.5-0.4-0.9-0.8-1.1c-0.2-0.1-0.4,0-0.6,0.2c-0.5,0.3-0.2-0.4-0.6-0.4
					c-0.4,0.1-0.9,0.3-1.3,0.2c-0.3,0.1-0.5,0.4-0.8,0.3C137,44.9,136.9,45.2,137,45.4L137,45.4z"/>
				<path id="path123" class="st11" d="M137.3,47c0.1,0.2,0.4,0.1,0.6,0.2l0.6-0.2c0-0.1-0.2-0.1-0.1-0.3c0.2-0.2,0.4-0.1,0.6-0.1
					c0.3,0,0.6-0.3,0.9-0.1c0,0,0,0.1,0,0.1c-0.1,0.2,0.1,0.4,0.2,0.4c0.3,0.1,0.7,0.4,1,0.2c0-0.3-0.1-0.6-0.2-0.8
					c-0.3,0-0.5-0.3-0.8-0.4c-0.1,0.1-0.3,0.2-0.4,0.2c-0.5-0.1-1.2-0.5-1.7-0.1c-0.2,0.2-0.5,0.2-0.8,0.3
					C137.2,46.5,137.3,46.8,137.3,47z"/>
				<path id="path125" class="st11" d="M137.6,51.1c0,0.1-0.2,0.3,0.1,0.4c0.5,0,1-0.2,1.4,0.1c0.1,0.1,0.1,0.3,0.1,0.4l0.6,0.5
					c0.1-0.3,0.2-0.6,0.2-0.9c0-0.2-0.2-0.4-0.4-0.6c-0.4,0-0.6-0.5-1-0.4c-0.2-0.1-0.4,0.1-0.6,0.1C137.7,50.9,137.7,51,137.6,51.1
					L137.6,51.1z"/>
				<path id="path127" class="st11" d="M137.7,47.8c0.1,0.2,0.2,0.5,0.4,0.5c0.4-0.2,1-0.3,1.5-0.1c0.2,0,0.2,0.2,0.1,0.3
					c0.2,0.1,0.5,0.3,0.8,0.4l-0.1-0.4c0-0.5-0.6-0.5-0.6-0.9c-0.5-0.2-1-0.2-1.5-0.1c-0.2,0.1-0.4,0.1-0.6,0.2
					C137.7,47.8,137.7,47.8,137.7,47.8z"/>
				<path id="path129" class="st11" d="M137.9,50.1c0.3-0.1,0.4-0.4,0.7-0.4c0.4,0,0.9,0.2,1.1,0.6c0.2,0.1,0.1,0.4,0.4,0.4
					c-0.1-0.3,0-0.7,0-1c-0.3-0.5-1-0.1-1.3-0.7l-0.5,0c-0.4,0.1-0.3,0.5-0.3,0.8C137.9,49.9,137.9,50,137.9,50.1L137.9,50.1z"/>
				<path id="path131" class="st11" d="M140.4,53.2c0.2,0.4,0.7,0.8,0.7,1.3c0.1-0.1,0.2-0.3,0.3-0.4c0-0.1-0.2-0.1-0.2-0.3
					c-0.1-0.2,0-0.3,0.1-0.5c-0.1-0.3-0.3-0.5-0.6-0.7C140.7,52.6,140.4,53.2,140.4,53.2z"/>
				<path id="path133" class="st11" d="M141.3,52.1l0.5,0.7c0.2-0.3,0.2-0.8,0.1-1.3c0-0.1-0.1-0.2-0.3-0.1
					C141.5,51.5,141.5,51.8,141.3,52.1L141.3,52.1z"/>
				<path id="path135" class="st11" d="M139.2,32.9c0.2,0.1,0.4,0.2,0.6,0.2c0.1-0.1,0.3-0.1,0.5-0.1c0.3,0.2,0.6,0,0.9,0
					c-0.3-0.3-0.6-0.4-0.9-0.6C139.9,32.5,139.6,32.8,139.2,32.9z"/>
				<path id="path137" class="st11" d="M142,33.5c0.4,0,0.6,0.4,0.9,0.6c0.3,0,0.6,0.3,0.7,0.5l-0.1-0.4c-0.1-0.4-0.3-0.7-0.6-1
					C142.6,33.4,142.3,33.4,142,33.5z"/>
				<path id="path139" class="st12" d="M115.8,30.4l0.2,0c0.5,0.3,1.4,0.4,1.5,1.2c-0.6,0.2-1.1,0.5-1.5,1c-0.3-0.3-1-0.2-1.1-0.8
					C114.9,31.3,115.1,30.6,115.8,30.4L115.8,30.4z"/>
				<path id="path141" class="st12" d="M116.3,34c0.6-0.1,1.3,0,1.9,0c0.2,0.1,0.3,0.2,0.4,0.4c0,0.8-0.3,1.5-0.3,2.3
					c-0.3,0.1-0.6,0.4-0.6,0.7c-0.3,0.1-0.5,0.2-0.7,0.4c-0.1-0.2-0.1-0.6,0.1-0.8c0.3-0.4,1-0.3,0.9-0.9c0.2-0.3,0-0.7,0-1
					c-0.1-0.2-0.1,0.1-0.3,0.1c-0.2,0-0.5,0.1-0.7,0c-0.1-0.2-0.3-0.3-0.4-0.5c-0.2-0.1-0.4-0.3-0.5-0.5L116.3,34z"/>
				<path id="path143" class="st12" d="M117.1,38.6c0.3,0,0.6-0.1,0.9,0.1c-0.1,0.1-0.2,0.1-0.3,0.2l-0.5,0.2
					C117,39,117.1,38.7,117.1,38.6z"/>
				<path id="path145" class="st12" d="M118.3,32.7c0.3-0.1,0.6-0.3,0.9-0.2c-0.2,0.2-0.4,0.5-0.6,0.8l-1,0
					C117.8,33.1,118.1,32.8,118.3,32.7z"/>
				<path id="path147" class="st12" d="M121.1,32.5c0.4-0.1,0.4,0.4,0.7,0.5c0.1,0.1,0.2,0.2,0.1,0.3c-0.2,0.1-0.5,0-0.8,0.1
					c-0.3-0.2-0.1-0.7-0.6-0.7c0,0-0.1-0.1,0-0.2C120.8,32.4,121,32.5,121.1,32.5L121.1,32.5z"/>
				<path id="path149" class="st12" d="M120.9,34.4c0.2-0.2,0.4-0.3,0.7-0.3l1.8,0c0.1,0.1-0.1,0.1-0.1,0.2
					c-0.1,0.1-0.3,0.1-0.4,0.2c-0.2,0-0.2,0.3-0.4,0.4c-0.3,0.3-0.6,0.1-0.9,0.1c-0.1-0.1-0.2-0.2-0.3-0.3l-0.1,0.1
					c0.1,0.4,0.1,0.8,0.2,1.2l0.4,0.3c0,0.6,0.8,0.5,1.1,0.8c-0.1,0.2-0.2,0.4-0.4,0.6c-0.3-0.3-0.6-0.4-0.9-0.5
					c0-0.4-0.4-0.6-0.7-0.8C120.9,35.8,120.9,35.1,120.9,34.4L120.9,34.4z"/>
				<path id="path151" class="st12" d="M121.5,38.7h0.8l-0.1,0.4l-0.8-0.4C121.4,38.7,121.5,38.7,121.5,38.7L121.5,38.7z"/>
				<path id="path153" class="st12" d="M123,30.7l0.6-0.2c0.4,0.2,0.7,0.4,1,0.6c0.3,0.5,0.2,1.1,0.1,1.7c-0.2,0.2-0.6,0-0.8,0.3h0
					c-0.2-0.7-0.9-1.2-1.5-1.6C122.6,31.3,122.7,30.9,123,30.7L123,30.7z"/>
				<path id="path155" class="st11" d="M137.7,57.5h3.7c0.6-0.1,1.1-0.1,1.6-0.5c1.9,0.3,3.8-0.2,5.3-1.2c0.8-0.6,1.5-1.4,2-2.1
					c0.5-0.7,0.9-1.4,1.1-2.1c0.2-0.5,0.3-1,0.5-1.5c0.5-2.4,0.3-5.2-0.5-7.5c-0.1-0.4-0.3-0.8-0.5-1.2c-1-2-2.3-4.2-4.4-5.5
					c-1.2-0.7-2.2-1.9-2.9-3c-0.4-0.3-0.7-0.8-1.2-0.8c0.1,0.2,0.3,0.4,0.3,0.7l0,0c-0.5,0-0.9-0.2-1.2-0.6l0.4-0.3
					c-0.1-0.1-0.3-0.1-0.5-0.1c-1.4-0.2-2.6,0.5-3.8,0.8l0,0.1c0.8,0.3,0.9,1.2,1.4,1.8c0.1-0.1,0.3,0,0.5-0.1
					c0.2,0,0.4,0.2,0.7,0.1c0-0.2-0.1-0.3-0.1-0.5c0.1-0.1,0.3,0,0.4,0c0.4,0.2,1.1,0,1.3,0.5c-0.5,0-0.9,0.1-1.3,0.2
					c0,0.2,0.2,0.3,0.2,0.5c-0.4-0.2-0.8-0.3-1.2-0.3l0,0.1c0.5,0.6,1.2,1,2,1.2c1.1,0.2,2-0.3,3-0.1c2.5,1.2,4.7,3.8,5.6,6.3
					c0,0.1,0.1,0.2,0.1,0.4c0.8,2.3,0.9,5.1,0.1,7.5c-0.4,1-0.9,1.9-1.6,2.7c-0.3,0.3-0.6,0.6-0.9,0.9c-1.1,0.8-2.4,1.2-3.7,0.8
					c-0.1-0.1-0.3-0.1-0.2-0.2c0-0.2,0.1-0.4,0.1-0.6c0.2-1.1,0.3-2.3,0.3-3.5c0-0.1,0-0.1,0-0.2c-0.1-1.7-0.4-3.3-1.1-4.8
					c-0.4-0.9-0.9-1.8-1.5-2.7c-0.7-1-1.6-1.9-2.8-2.3c-0.7-0.2-1.6-0.2-2.1,0.4c-0.4,0.3-0.5,0.8-0.5,1.3c-0.6,0.4-1.3,0.6-2,0.7
					c-0.2,0-0.4,0.1-0.6,0.1c-0.2,0-0.4,0-0.5,0c-0.9-0.1-1.8-0.6-2.5-1.1c0-0.4,0-0.7,0-1.1c-0.4-0.2-0.7-0.6-0.7-1l0,0
					c0.2,0.1,0.4,0.2,0.6,0.3c-0.1-0.5-0.2-1.1-0.5-1.6c-0.3-0.1-0.5-0.2-0.7-0.3c-0.3-0.2-0.4-0.5-0.5-0.8c0.2,0.2,0.7,0.2,0.9,0.4
					c-0.3-1-0.3-2.1-0.9-3c-0.3-0.7-1-1-1.5-1.4c-0.2-0.2-0.3-0.6-0.6-0.6c-0.3-0.1-0.3-0.4-0.4-0.6c0.2,0,0.3,0.1,0.5,0.2
					c-0.4-1.1-0.8-2.3-1.9-3l-0.2,0.1c-0.4,0.1-0.9,0.1-1.3,0.1c0.2-0.3,0.5-0.4,0.8-0.5c-0.3-0.2-0.6-0.3-1-0.4
					c-0.2,0.2-0.6,0.3-0.9,0.4l0,0c0-0.3-0.1-0.6,0.3-0.6c-0.4-0.2-1-0.1-1.3,0c-0.1,0.3-0.4,0.5-0.4,0.8c-0.2,0.2-0.4,0.5-0.6,0.7
					c0-0.5,0.2-1,0.3-1.5c-0.3,0.1-0.6,0.3-0.9,0.4c-0.5-0.3-1-0.6-1.6-0.8c0,0-0.2,0-0.1,0c0.5,0.3,0.3,0.9,0.3,1.4l-0.3-0.2
					c-0.1-0.4-0.5-0.6-0.6-1c-0.5,0.1-0.8,0.2-1.2,0.4l-0.1,0c0.3,0,0.6,0.3,0.8,0.5c-0.5,0-0.9-0.2-1.4-0.2c0,0-0.1-0.1-0.2-0.1
					c-0.2,0.1-0.5,0.3-0.7,0.4c-0.5,0.5-1,1-1.2,1.6c0.2,0,0.4,0,0.5,0.1c-0.3,0.2-0.5,0.4-0.8,0.6c-0.1,0.4-0.1,0.8-0.1,1.2
					c-0.2,0.3-0.5,0.6-0.6,0.9c-0.4,1.4-0.5,3-0.5,4.6c-0.1,0.1-0.3,0.2-0.5,0.3l0,1.4h0c0.1-0.3,0.4-0.5,0.6-0.7h0.1
					c0,0.3-0.1,0.6-0.1,1l-0.4,0.3c-0.4,0.4-0.1,0.9-0.1,1.3c0,0.1,0,0.3,0.1,0.3c0-0.2,0.2-0.3,0.3-0.5c0.2,0,0.3-0.2,0.5-0.2
					c-0.1,0.4-0.2,0.7-0.4,1c-0.1,0-0.1,0.1-0.2,0.2c-0.1,0.1-0.1,0.2-0.1,0.3c0.3,1.7,0.8,3.3,1.4,4.9c-0.4,0.7-0.6,1.4-0.9,2.1
					c0,0.1-0.1,0.2-0.1,0.3c-0.3,0.8-0.4,1.7-0.8,2.5c-0.2-0.1-0.3-0.2-0.5-0.3c-0.8-0.3-1.6-0.1-2.2,0.5c-0.5-0.1-1,0-1.4,0.3
					c-0.3,0.2-0.5,0.5-0.6,0.8c-0.1,0.2-0.1,0.4-0.1,0.7c-0.3,0.2-0.5,0.6-0.6,0.9c-0.1,0.8,0.1,1.5,0.6,2.1L137.7,57.5L137.7,57.5z
					"/>
				<path id="path157" class="st12" d="M151.4,42.5c-0.1-0.4-0.3-0.8-0.5-1.2c-1-2-2.3-4.2-4.4-5.5c-1.2-0.7-2.2-1.9-2.9-3
					c-0.4-0.3-0.7-0.8-1.2-0.8c0.1,0.2,0.3,0.4,0.3,0.7l0,0c-0.5,0-0.9-0.2-1.2-0.6l0.4-0.3c-0.1-0.1-0.3-0.1-0.5-0.1
					c-1.4-0.2-2.6,0.5-3.8,0.8l0,0.1c0.8,0.3,0.9,1.2,1.4,1.8c0.1-0.1,0.3,0,0.5-0.1c0.2,0,0.4,0.2,0.7,0.1c0-0.2-0.1-0.3-0.1-0.5
					c0.1-0.1,0.3,0,0.4,0c0.4,0.2,1.1,0,1.3,0.5c-0.5,0-0.9,0.1-1.3,0.2c0,0.2,0.2,0.3,0.2,0.5c-0.4-0.2-0.8-0.3-1.2-0.3l0,0.1
					c0.5,0.6,1.2,1,2,1.2c1.1,0.2,2-0.3,3-0.1c2.5,1.2,4.7,3.8,5.6,6.3c0,0.1,0.1,0.2,0.1,0.4c0.8,2.3,0.9,5.1,0.1,7.5
					c-0.4,1-0.9,1.9-1.6,2.7c-0.3,0.3-0.6,0.6-0.9,0.9c-1.1,0.8-2.4,1.2-3.7,0.8c-0.1-0.1-0.3-0.1-0.2-0.2c0-0.2,0.1-0.4,0.1-0.6
					c0.2-1.1,0.3-2.3,0.3-3.5c0-0.1,0-0.1,0-0.2c-0.1-1.7-0.4-3.3-1.1-4.8c-0.4-0.9-0.9-1.8-1.5-2.7c-0.7-1-1.6-1.9-2.8-2.3
					c-0.7-0.2-1.6-0.2-2.1,0.4c-0.4,0.3-0.5,0.8-0.5,1.3c-0.6,0.4-1.3,0.6-2,0.7c-0.2,0-0.4,0.1-0.6,0.1c-0.2,0-0.4,0-0.5,0
					c-0.9-0.1-1.8-0.6-2.5-1.1c0-0.4,0-0.7,0-1.1c-0.4-0.2-0.7-0.6-0.7-1l0,0c0.2,0.1,0.4,0.2,0.6,0.3c-0.1-0.5-0.2-1.1-0.5-1.6
					c-0.3-0.1-0.5-0.2-0.7-0.3c-0.3-0.2-0.4-0.5-0.5-0.8c0.2,0.2,0.7,0.2,0.9,0.4c-0.3-1-0.3-2.1-0.9-3c-0.3-0.7-1-1-1.5-1.4
					c-0.2-0.2-0.3-0.6-0.6-0.6c-0.3-0.1-0.3-0.4-0.4-0.6c0.2,0,0.3,0.1,0.5,0.2c-0.4-1.1-0.8-2.3-1.9-3l-0.2,0.1
					c-0.4,0.1-0.9,0.1-1.3,0.1c0.2-0.3,0.5-0.4,0.8-0.5c-0.3-0.2-0.6-0.3-1-0.4c-0.2,0.2-0.6,0.3-0.9,0.4l0,0c0-0.3-0.1-0.6,0.3-0.6
					c-0.4-0.2-1-0.1-1.3,0c-0.1,0.3-0.4,0.5-0.4,0.8c-0.2,0.2-0.4,0.5-0.6,0.7c0-0.5,0.2-1,0.3-1.5c-0.3,0.1-0.6,0.3-0.9,0.4
					c-0.5-0.3-1-0.6-1.6-0.8c0,0-0.2,0-0.1,0c0.5,0.3,0.3,0.9,0.3,1.4l-0.3-0.2c-0.1-0.4-0.5-0.6-0.6-1c-0.5,0.1-0.8,0.2-1.2,0.4
					l-0.1,0c0.3,0,0.6,0.3,0.8,0.5c-0.5,0-0.9-0.2-1.4-0.2c0,0-0.1-0.1-0.2-0.1c-0.2,0.1-0.5,0.3-0.7,0.4c-0.5,0.5-1,1-1.2,1.6
					c0.2,0,0.4,0,0.5,0.1c-0.3,0.2-0.5,0.4-0.8,0.6c-0.1,0.4-0.1,0.8-0.1,1.2c-0.2,0.3-0.5,0.6-0.6,0.9c-0.4,1.4-0.5,3-0.5,4.6
					c-0.1,0.1-0.3,0.2-0.5,0.3l0,1.4h0c0.1-0.3,0.4-0.5,0.6-0.7h0.1c0,0.3-0.1,0.6-0.1,1l-0.4,0.3c-0.4,0.4-0.1,0.9-0.1,1.3
					c0,0.1,0,0.3,0.1,0.3c0-0.2,0.2-0.3,0.3-0.5c0.2,0,0.3-0.2,0.5-0.2c-0.1,0.4-0.2,0.7-0.4,1c-0.1,0-0.1,0.1-0.2,0.2
					c-0.1,0.1-0.1,0.2-0.1,0.3c0.3,1.7,0.8,3.3,1.4,4.9c-0.4,0.7-0.6,1.4-0.9,2.1c0,0.1-0.1,0.2-0.1,0.3c-0.3,0.8-0.4,1.7-0.8,2.5
					c-0.2-0.1-0.3-0.2-0.5-0.3c-0.8-0.3-1.6-0.1-2.2,0.5c-0.5-0.1-1,0-1.4,0.3c-0.3,0.2-0.5,0.5-0.6,0.8c-0.1,0.2-0.1,0.4-0.1,0.7
					c-0.3,0.2-0.5,0.6-0.6,0.9c-0.1,0.8,0.1,1.5,0.6,2.1h12.4c-0.2-0.2-0.4-0.5-0.5-0.8c-0.3-0.4-0.1-1-0.1-1.4
					c0.3-0.5,0.5-1,0.8-1.5c0.1-0.1,0.1-0.2,0.2-0.3l0.6-0.2c0.3,0,0.6-0.2,0.8-0.1c0.4,0.4,0.4-0.4,0.8-0.4c0.9-0.1,1.7,0,2.2,0.7
					c0,0.1,0.2,0.1,0.1,0.2c-0.1,0-0.2,0-0.3,0c-0.5-0.1-1.2-0.5-1.7-0.2c0,0.1,0,0.3-0.1,0.4c0,0.1-0.1,0.3-0.1,0.4
					c0.3,0.1,0.6,0.3,0.9,0.6c0.2-0.3,0.5-0.5,0.9-0.6c0.3,0.1,0.6,0.1,0.8,0.3c0.4,0.4,0.2,1.1,0.2,1.6c0.4,0.2,0.8,0.4,1.2,0.6
					c-0.2,0.2-0.4,0.2-0.7,0.3l-0.7-0.1c-0.1-0.1-0.2-0.1-0.2-0.2c-0.2,0.2-0.5,0.6-0.6,0.9h9.6c-0.1-0.3-0.3-0.5-0.4-0.8
					c-0.2-0.4-0.1-1-0.1-1.4l0.9-1.4c0.5,0,1-0.2,1.6-0.1c0,0,0.1,0,0.1,0c0.2-0.2,0.3-0.5,0.6-0.5c0.6-0.2,1,0.1,1.5,0.4
					c0,0,0,0.1,0,0.1c-0.2,0.3-0.5,0-0.8,0.1c-0.1,0.1,0,0.2,0.1,0.4c0.1,0.1-0.1,0.1-0.2,0.1c-0.1,0-0.3,0-0.4-0.1
					c0,0,0-0.1-0.1-0.1c-0.1,0.2-0.3,0.4-0.4,0.6c0.2,0.2,0.4,0.3,0.5,0.5c0.2,0.2-0.1,0.4-0.2,0.6c0,0-0.1,0-0.1,0
					c-0.1-0.1-0.3-0.3-0.4-0.2c-0.1,0.6,0,1.3,0,1.9c0.3,0.1,0.6,0,0.9,0l0.1-1.3c0.1-0.9,0.6-1.6,1.2-2.2c0.6-0.4,1.1,0.4,1.5,0.7
					c0.1,0,0.1,0.1,0.1,0.1c0,0.1-0.2,0.2-0.3,0.2c-0.3,0.1-0.5-0.2-0.7-0.4c-0.2,0.2-0.3,0.4-0.5,0.6l0.1,0
					c0.2,0.2,0.5,0.5,0.5,0.8c0,0.3-0.2,0.6-0.4,0.7c-0.2-0.3-0.3-0.7-0.5-1c0,0,0,0,0,0c-0.4,0.1-0.5,0.5-0.6,0.9
					c0,0.3-0.2,0.5-0.2,0.8h5c0.6-0.1,1.1-0.1,1.6-0.5c1.9,0.3,3.8-0.2,5.3-1.2c0.8-0.6,1.5-1.4,2-2.1c0.5-0.7,0.9-1.4,1.1-2.1
					c0.2-0.5,0.3-1,0.5-1.5C152.5,47.6,152.2,44.9,151.4,42.5z"/>
				<path id="path159" class="st12" d="M119.2,55.6c0.3-0.2,0.7-0.2,0.8-0.6c-0.1-0.1-0.2-0.2-0.3-0.2l-0.3,0.1
					c0-0.2,0.1-0.4,0.2-0.5l0.9-0.3c-0.1,0.4-0.2,0.9-0.2,1.4c0.1,0.7,0.2,1.5,0.6,2.1h-1C119.6,56.8,118.9,56.3,119.2,55.6
					L119.2,55.6z"/>
				<path id="path161" class="st12" d="M121.3,54.7L121.3,54.7l0.7,0.6l0.1,0c-0.1,0.7-0.1,1.4-0.1,2.2h-0.7
					c-0.1-0.7-0.4-1.4-0.4-2.2C121.1,55.1,121.2,54.9,121.3,54.7L121.3,54.7z"/>
				<path id="path163" class="st12" d="M122.8,55.4c0.1-0.2,0.2-0.5,0.5-0.5c0.2,0,0.4,0,0.5,0.2c0.2,0.3,0,0.7-0.1,1
					c-0.1,0.5-0.3,1-0.4,1.4h-0.7L122.8,55.4L122.8,55.4z"/>
				<path id="path165" class="st12" d="M133.5,55.2c0.2,0.2,0.2,0.5,0.4,0.6c0.2-0.3,0.3-0.7,0.2-1.1l-0.2-0.2
					c0.3-0.1,0.5-0.1,0.8-0.1c-0.1,0.4-0.3,0.7-0.3,1.1c0,0.6,0.1,1.3,0.2,1.9h-0.8c-0.3-0.6-0.6-1.2-0.5-1.9
					C133.3,55.4,133.4,55.3,133.5,55.2L133.5,55.2z"/>
				<path id="path167" class="st11" d="M136.8,41.7c0,0.2-0.1,0.4,0,0.5c0.2-0.2,0.5-0.2,0.7-0.3c0.6-0.1,1.2,0.1,1.8,0.3
					c-0.1-0.2-0.2-0.5-0.4-0.7c-0.3-0.1-0.8,0.1-0.9-0.3c-0.2-0.2-0.5,0-0.7,0C137.1,41.3,136.9,41.5,136.8,41.7L136.8,41.7z"/>
				<path id="path169" class="st11" d="M115.3,35.6C115.3,35.6,115.3,35.6,115.3,35.6C115.3,35.6,115.3,35.6,115.3,35.6L115.3,35.6z
					"/>
				<path id="path171" class="st11" d="M117.9,41.9l0.4-0.4c0,0,0.1,0,0.1,0l0,0.8c0.2,0.2,0.5,0.3,0.7,0.3c0-0.2,0.2-0.4,0.3-0.5
					c0.1-0.1,0-0.4,0.2-0.5l0,0c0,0.2,0,0.5,0.2,0.7c0,0.1,0,0.3,0,0.4c0.3,0,0.6-0.1,0.8-0.2c0-0.3,0.1-0.5,0.1-0.7
					c0.1-0.1-0.1-0.2,0.1-0.2c0.1,0.2,0.3,0.4,0.4,0.7c0.4-0.4,0.6-1,0.7-1.5c-0.1-0.2-0.3-0.2-0.4-0.3c-1.2-0.4-2.7-0.5-3.9,0.1
					C117.5,41,117.6,41.5,117.9,41.9z"/>
				<path id="path173" class="st11" d="M106.7,55.1c0,0.5,0,1,0,1.6c0.1,0.2,0.3,0.4,0.5,0.4l0-0.4c0.1-0.5-0.2-1,0.1-1.4
					c0.2,0.1,0.4,0.2,0.6,0.3c0.1-0.5,0-1-0.5-1.3C107.5,54.2,106.7,55.1,106.7,55.1z"/>
				<path id="path175" class="st11" d="M108.4,54.3c-0.3,0.8-0.5,1.8-0.1,2.7c0.2-0.1,0.4-0.2,0.6-0.4c0-0.7-0.1-1.4,0.3-1.9
					c0.3,0.1,0.6,0.4,0.7,0.8c0.2-0.3,0.3-0.7,0.2-1.1c0-0.3-0.3-0.2-0.5-0.4c0.1-0.3,0-0.6,0.3-0.7l-0.8,0.1
					C108.8,53.6,108.6,53.9,108.4,54.3z"/>
				<path id="path177" class="st11" d="M110.2,56.7c0,0.1,0,0.2,0.1,0.2c0.1-0.6,0.6-1,0.8-1.5c0.1-0.2,0.1-0.4,0.3-0.6
					c0.3,0,0.5,0.2,0.7,0.2c0.1,0.1,0,0.1-0.1,0.2c-0.1,0.5-0.2,0.9-0.2,1.4h0c0.4-0.4,0.6-0.8,0.9-1.3l0-0.4c0.1-0.5-0.5-0.8-0.8-1
					l0.3-0.4l-0.4-0.1c-0.5,0-0.9,0.3-1.3,0.6C110.3,54.9,110.2,55.8,110.2,56.7L110.2,56.7z"/>
				<path id="path179" class="st11" d="M112.1,52.6c0.2,0,0.3-0.1,0.5,0c0.6,0.2,1.3,0.5,1.8,1l0.6,1.5l0.3-0.9l-0.2-0.5
					c-0.2-0.4-0.6-0.3-0.9-0.3c-0.1-0.1,0-0.3,0-0.4c0.1-0.5-0.5-0.5-0.7-0.7c0-0.3-0.4-0.2-0.6-0.2l-0.1-0.1c0-0.1-0.1-0.1-0.2,0
					c0,0,0,0,0-0.1l-0.2,0C112.2,52,112.1,52.3,112.1,52.6L112.1,52.6z"/>
				<path id="path181" class="st11" d="M112.5,50.9c0,0.1,0.1,0.2,0.1,0.2c0.3-0.1,0.6-0.3,1-0.2c0.5,0.4,1,0.8,1.5,1.1l0.2,0
					c0.1,0,0.3,0,0.3,0.2c0.1,0.2-0.1,0.3-0.2,0.5c0.3,0.2,0.2,0.6,0.4,0.9l0.5-0.7c-0.1-0.3,0-0.8-0.5-0.8
					c-0.2-0.1-0.3-0.2-0.3-0.4c-0.3-0.3-0.7-0.4-1-0.7c-0.2-0.2-0.4-0.5-0.7-0.6c-0.2-0.1-0.5-0.2-0.7-0.2
					C112.8,50.2,112.8,50.7,112.5,50.9z"/>
				<path id="path183" class="st11" d="M113.1,49.6l0.1,0.1c0.4,0,0.7-0.2,1-0.2c0.2,0.1,0.5,0.1,0.8,0.3c0.2,0.3,0.4,0.6,0.7,0.7
					c0.6,0.1,0.9,0.7,1.1,1.1v-0.2c0.1-0.3,0-0.7-0.1-0.9c-0.1-0.1-0.3-0.2-0.5-0.4c0-0.1,0-0.1,0-0.2c-0.2-0.2-0.5-0.4-0.8-0.5
					c-0.4-0.5-1.1-0.4-1.7-0.5L113.1,49.6L113.1,49.6z"/>
				<path id="path185" class="st11" d="M113.1,44.4c0.1,0.2,0.1,0.5,0.2,0.7c0.2-0.4,0.6-0.6,0.9-1c-0.2-0.1-0.4-0.2-0.7-0.2v0
					C113.4,44,113.2,44.2,113.1,44.4z"/>
				<path id="path187" class="st11" d="M114.4,46.7l0.3-0.3c0.3-0.3,0.6-0.7,0.6-1.1c-0.2-0.1-0.5,0-0.7,0
					C114.5,45.8,114.4,46.2,114.4,46.7L114.4,46.7z"/>
				<path id="path189" class="st11" d="M114.6,47.7c0.5,0,1,0.1,1.3-0.1l0.4-1.3c-0.1,0-0.3-0.1-0.4,0
					C115.8,46.8,115.2,47.4,114.6,47.7z"/>
				<path id="path191" class="st11" d="M114.8,43.2c0.3,0.5,0.8,1,1.4,1.1c-0.1-0.6-0.6-1-0.8-1.5l0-0.2c-0.2-0.2-0.4-0.3-0.7-0.4
					C114.6,42.6,114.7,42.9,114.8,43.2L114.8,43.2z"/>
				<path id="path193" class="st11" d="M116.5,47.8c0.4,0.1,0.8,0,1.1-0.1c0.5-0.1,0.8-0.7,0.9-1.1h-0.6l-0.7,0.7
					C117,47.4,116.7,47.6,116.5,47.8L116.5,47.8z"/>
				<path id="path195" class="st11" d="M116.4,42.6c0.1,0.5,0.3,1,0.7,1.5l0.1-1C117.2,43.1,116.4,42.6,116.4,42.6z"/>
				<path id="path197" class="st11" d="M118.7,45.3c0-0.4-0.1-0.8-0.1-1.1c-0.2-0.1-0.5-0.1-0.7-0.3C117.9,44.5,118.3,45,118.7,45.3
					z"/>
				<path id="path199" class="st11" d="M118.1,48.9c0.4-0.1,0.9-0.3,1.3-0.5c0.3-0.4,0.7-0.7,0.7-1.1c-0.3,0.1-0.6,0-0.9,0.1
					c-0.2,0.3-0.3,0.7-0.6,0.9C118.5,48.5,118.2,48.7,118.1,48.9z"/>
				<path id="path201" class="st11" d="M118.8,49.7l0.5,0.7c0.3,0.1,0.6,0.1,0.9-0.1l-0.2-0.6C119.6,49.9,119.2,49.8,118.8,49.7z"/>
				<path id="path203" class="st11" d="M119.7,44.8l0.2,0.9c0.5-0.4,0.6-1,0.6-1.6C120.2,44.4,120,44.6,119.7,44.8L119.7,44.8z"/>
				<path id="path205" class="st11" d="M121,46.4c0,0.1,0,0.3,0.1,0.4c0.5,0.2,0.6,0.9,1.1,1.1c0.3,0.1,0.7,0,1-0.2
					c-0.2-0.2-0.5-0.4-0.7-0.7c-0.1-0.1-0.3-0.2-0.3-0.3L121,46.4L121,46.4z"/>
				<path id="path207" class="st11" d="M121.5,49.7c0.2,0.3,0.6,0.4,0.9,0.5c-0.1-0.1,0,0,0,0l-0.4-0.9c-0.2,0-0.4,0.1-0.6,0
					C121.4,49.4,121.4,49.6,121.5,49.7z"/>
				<path id="path209" class="st11" d="M122.2,45.4c-0.2-0.5-0.3-1-0.3-1.5c-0.2,0.3-0.4,0.4-0.6,0.7
					C121.2,45.1,121.9,45.2,122.2,45.4z"/>
				<path id="path211" class="st11" d="M123.1,44.9c0.3,0.3,0.8,0.2,1.1,0.1c-0.1-0.3-0.6-0.4-0.7-0.7c0-0.5-0.1-1-0.3-1.4
					C122.9,43.6,122.6,44.3,123.1,44.9z"/>
				<path id="path213" class="st11" d="M123.5,46.4c0.7,0.5,1.4,1.1,2.4,0.9c0.1,0,0.2,0,0.2-0.1c-0.3-0.2-0.6-0.3-0.9-0.5l-0.3-0.5
					h-0.2C124.3,46.3,123.9,46.4,123.5,46.4L123.5,46.4z"/>
				<path id="path215" class="st11" d="M123.5,52.1L123.5,52.1c0.5-0.3,1-0.4,1.5-0.6c0.1,0,0,0.2,0.2,0.3c0.3-0.1,0.7-0.1,1-0.2
					c0.4,0,0.7,0,1,0.2c0.2,0.3,0.7,0.3,1,0.5l-0.1-0.5c-0.7-0.8-1.7-0.8-2.6-0.8l0-0.1c-0.2,0-0.5,0-0.7,0.1
					c-0.3,0-0.6,0.2-0.9,0.3C123.7,51.5,123.6,51.8,123.5,52.1z"/>
				<path id="path217" class="st11" d="M124.1,43.5c0.3,0.4,0.7,0.6,1.1,0.5c-0.2-0.2-0.5-0.5-0.5-0.8c0.1-0.6-0.6-0.7-1-1
					C123.9,42.6,123.9,43.1,124.1,43.5z"/>
				<path id="path219" class="st11" d="M124,53.3L124,53.3c0.5-0.2,1-0.1,1.4-0.3c0.2-0.1,0.2,0.2,0.4,0.3c0.3,0.2,0.4,0.8,0.9,0.7
					c0.6,0.3,0.4,1,0.5,1.5l0.5-0.3c0-0.3,0.1-0.6-0.1-0.8c-0.1-0.3-0.5-0.3-0.7-0.6c0.2-0.4-0.3-0.5-0.4-0.8l0,0l0.7,0.1
					c0.3,0.2,0.3,0.4,0.4,0.7c0.6,0.1,0.7,0.8,0.9,1.2c0.1-0.3,0.2-0.6,0.3-0.9c0-0.2-0.3-0.2-0.5-0.3c0-0.4-0.2-0.7-0.5-0.9
					c-0.6-0.2-1.2-0.5-1.9-0.5l-0.6,0.2c-0.3,0.1-0.7,0-0.9,0.2C124.1,52.7,124.1,53.1,124,53.3z"/>
				<path id="path221" class="st11" d="M124.4,50.5l0.1,0.1c0.3-0.1,0.6-0.3,0.9-0.4c0.5-0.1,0.8,0.4,1.2,0.1c0.1-0.1,0.3,0,0.4,0.1
					c0.2,0.3,0.6,0.3,0.9,0.4c-0.1-0.4-0.3-0.9-0.8-1c-0.2-0.1-0.4-0.1-0.6-0.2c-0.5-0.6-0.9,0.5-1.5,0.2
					C124.7,49.9,124.4,50.2,124.4,50.5z"/>
				<path id="path223" class="st11" d="M124.5,53.9c0.2,0.2,0.5,0.5,0.8,0.5c0.4,0.2,0.3,0.8,0.5,1.1l0.3-0.2l0,0l0,0l0,0
					c0.1-0.2,0-0.6-0.1-0.8c-0.2-0.1-0.3,0-0.5-0.1c0-0.2-0.2-0.3-0.3-0.5c-0.1-0.1-0.3,0-0.4,0C124.7,53.8,124.5,53.9,124.5,53.9z"
					/>
				<path id="path225" class="st11" d="M125.4,45.3c0.2,0.4,0.7,0.6,1,0.9c0.3,0.1,0.7,0.2,1,0.1c-0.3-0.2-0.6-0.5-0.8-0.8
					c-0.1-0.1-0.1-0.3-0.3-0.4C126,45.1,125.7,45.1,125.4,45.3L125.4,45.3z"/>
				<path id="path227" class="st11" d="M125.8,42.8c0.3,0.4,0.8,0.2,1.3,0.3v0l-0.7-0.6C126.2,42.5,126,42.7,125.8,42.8z"/>
				<path id="path229" class="st11" d="M112.9,36.2l0.4,1.3c0-0.7,0.3-1.3,0.3-2l0.3-0.4l-0.6,0.2C113,35.5,112.9,35.8,112.9,36.2z"
					/>
				<path id="path231" class="st11" d="M113.1,34l0.6-0.3v-0.8c-0.2,0.1-0.4,0.4-0.5,0.6L113.1,34z"/>
				<path id="path233" class="st11" d="M124.5,35.3c-0.1,0.2-0.3,0.2-0.5,0.3c0.3-0.5,0.4-1.3,0.2-1.9c0.2-0.1,0.3-0.1,0.5-0.2l0,0
					l0.4-0.3c0.5-0.4,0.3-1,0.5-1.5c-0.3-0.4-0.3-0.9-0.7-1.2l0,0c-0.3-0.4-0.8-0.3-1.2-0.5c-0.5-0.2-0.9,0.2-1.3,0.4
					c-0.2,0-0.1,0.2-0.2,0.2c-0.1,0.3-0.2,0.5-0.3,0.8c-0.7-0.1-1.4,0-2,0.4c-0.3-0.2-0.7-0.3-1-0.4c-0.3-0.1-0.5,0-0.7-0.1
					c-0.3-0.3-0.3-0.8-0.8-0.9c-0.2-0.1-0.2-0.2-0.2-0.4c-0.3-0.1-0.6-0.2-0.9-0.3c-0.4-0.2-0.8,0.1-1.1,0.3
					c-0.1,0.1-0.3,0.1-0.5,0.2c-0.3,0.4-0.5,0.8-0.7,1.2c0.1,0.4,0.2,0.7,0.4,1c0.2,0.5,0.7,0.8,1.1,1c-0.2,0.7-0.2,1.5,0,2.2
					c0,0,0,0,0,0c0,0,0,0,0,0c-0.1,0-0.1,0-0.2,0h0c0.1,0.7,0.4,1.3,0.9,1.8c0.2,0.1,0.1,0.3,0.2,0.4c0,0.1,0.1,0.2,0,0.3
					c-1.1,0-2.1,0.2-3,0.7c-0.2,0.1-0.1,0.4-0.1,0.6c0.6-0.4,1.3-0.7,2-0.8c0.3,0,0.7-0.1,1,0l0,0.6c-0.8,0.4-1.7,0.7-2.5,1.4
					c0,0.2,0,0.5,0,0.7l0.6-0.5c0.6-0.5,1.3-0.9,2-1.1c0.2,0.2,0.4,0.5,0.6,0.6c0.4-0.3,0.9-0.5,1.4-0.6c0.3-0.2,0.7,0,0.8-0.3
					l0.1-0.6c0,0,0,0-0.1,0c-0.3-0.2-0.5-0.5-0.5-0.9c-0.1,0.1-0.2,0.1-0.4,0.1c-0.1,0-0.2-0.1-0.3-0.2c0-0.1-0.1-0.4,0.1-0.5
					c0.5-0.3,1-0.3,1.6-0.3c0.4,0.1,1,0,1.2,0.5c0,0.1,0,0.3-0.2,0.4c-0.2,0.1-0.3,0-0.5-0.1c-0.1,0.3-0.3,0.7-0.7,0.8l0,0.4
					c0,0.2,0.1,0.5,0.4,0.4c0.7,0.2,1.3,0.5,1.8,0.9c0.2-0.2,0.4-0.4,0.5-0.6c1,0.4,1.9,1.1,2.8,1.9l0-0.6c-0.8-0.7-1.7-1.2-2.7-1.6
					c0-0.2,0.1-0.4,0.1-0.6c1.1,0.1,2.2,0.4,3.1,0.9l0-0.5c-1-0.5-2-0.9-3.2-0.9c0-0.1-0.1-0.2,0-0.2c0.6-0.1,1-0.7,1.1-1.2
					c0.3-0.3,0.7-0.7,0.6-1.2c0,0,0-0.1,0-0.1C124.5,35.5,124.6,35.4,124.5,35.3L124.5,35.3z"/>
				<path id="path235" class="st11" d="M125.5,37.1l0.6-0.2l0.1-0.3c0.2-0.5-0.2-0.8-0.4-1.2L125.5,37.1z"/>
				<path id="path237" class="st11" d="M127,39.3c0.3,0.3,0.5,0.8,1,0.6c0-0.2-0.1-0.4-0.2-0.6c-0.1-0.1-0.2-0.6-0.4-0.4
					c-0.2-0.1-0.2-0.3-0.4-0.5C126.9,38.7,127,39,127,39.3L127,39.3z"/>
				<path id="path239" class="st11" d="M127.1,41.4c0.1,0.1,0.1,0.3,0.2,0.5c0.2,0.1,0.5,0.1,0.7,0.1c0.2,0,0.3,0.2,0.5,0
					c-0.2-0.2-0.4-0.4-0.6-0.6C127.6,41.1,127.4,41.3,127.1,41.4z"/>
				<path id="path241" class="st11" d="M127.4,44.6c0.5,0.3,1.1,0.6,1.7,0.5c0.1,0,0.2,0,0.2-0.1c-0.4-0.1-0.8-0.5-1.2-0.6
					c-0.2-0.4-0.5,0.1-0.8,0.1C127.3,44.5,127.4,44.6,127.4,44.6z"/>
				<path id="path243" class="st11" d="M128.9,50.8L129,51c0.1,0.7,0.6,1.4,0.3,2.2c0.2,0.1,0.3,0.4,0.4,0.6h0c0.2-0.6,0-1.2,0-1.9
					C129.8,51.4,129.2,51.1,128.9,50.8L128.9,50.8z"/>
				<path id="path245" class="st11" d="M129,43.6c0.4,0.3,0.9,0.3,1.4,0.2c-0.3-0.1-0.6-0.3-0.8-0.5L129,43.6z"/>
				<path id="path247" class="st11" d="M130.8,45.8c0,0.3,0.2,0.5,0.4,0.7c0.1-0.2,0.2-0.3,0.2-0.5c-0.1-0.3-0.2-0.6-0.5-0.8
					C130.8,45.4,130.7,45.6,130.8,45.8L130.8,45.8z"/>
				<path id="path249" class="st11" d="M130.8,49c-0.1,0.3,0.3,0.4,0.5,0.6c0.1,0.2-0.1,0.3-0.1,0.4c0.3,0.3,0.4,0.7,0.4,1.2
					c0.1-0.4,0.3-0.8,0.3-1.3c0-0.3-0.5-0.2-0.4-0.6c0.1-0.4,0-0.7-0.1-1c0,0-0.1-0.1-0.1-0.1C131.1,48.4,130.8,48.6,130.8,49z"/>
				<path id="path251" class="st11" d="M131.7,47.3l0.4,0.7c0.2,0,0.3-0.2,0.4-0.3c0.1-0.3-0.2-0.5-0.2-0.7c-0.1-0.2,0-0.4-0.1-0.5
					c-0.1-0.1-0.2-0.1-0.3-0.1L131.7,47.3L131.7,47.3z"/>
				<path id="path253" class="st11" d="M132.2,45.5c0.3,0.2,0.6,0.4,0.8,0.7c0.2,0.7,0.6,1.4,0.9,2.1c0.1,0.5,0.2,0.9,0.3,1.4
					c0.1,0.1,0,0.4,0.2,0.4c0.1-0.5,0.2-1,0.2-1.6c-0.2-0.2-0.4-0.3-0.6-0.5v0c0-0.1,0.1-0.3,0.3-0.2c0.1-0.1,0.3-0.1,0.2-0.3
					c-0.4-0.4-0.3-1-0.9-1.1c-0.2-0.1-0.3-0.3-0.3-0.5C133,45.5,132.5,45.5,132.2,45.5L132.2,45.5z"/>
				<path id="path255" class="st11" d="M132.5,49.3c0.4,0.3,0.2,0.8,0.2,1.2c-0.1,0.3,0.3,0.1,0.4,0.3c0.2,0.3,0.1,0.8,0,1.1
					c0.2-0.3,0.4-0.5,0.6-0.9c0-0.1,0.1-0.2,0.1-0.3c0.1-0.2-0.2-0.1-0.3-0.1c-0.1,0-0.2-0.1-0.1-0.2c0.2-0.4,0-0.8-0.1-1.1
					c-0.1-0.3,0-0.7-0.1-0.9C133,48.7,132.4,48.7,132.5,49.3z"/>
				<path id="path257" class="st11" d="M133.2,44.3c0.6,0.6,1.1,1.3,1.8,1.9c0-0.3,0-0.5,0-0.8c-0.1-0.2-0.3-0.3-0.4-0.5
					C134,44.8,133.7,44.2,133.2,44.3L133.2,44.3z"/>
				<path id="path259" class="st11" d="M134.8,47.6c0,0.1,0,0.1,0.1,0.2c0.3,0.4,0.5,0.9,0.7,1.4c-0.1-0.5,0.3-1.2-0.2-1.6
					c-0.1-0.2-0.3-0.1-0.4-0.1L134.8,47.6L134.8,47.6z"/>
				<path id="path261" class="st11" d="M136.5,52.7c0.2,0.1,0.4-0.1,0.6-0.2c0.2,0,0.3,0.1,0.5,0.1c0.1,0.1,0,0.2,0,0.3
					c0.4,0.1,0.8,0.3,1.2,0.5l0.1-0.1c0-0.3-0.2-0.5-0.4-0.7c-0.1-0.1-0.4,0-0.5-0.2c0.1-0.1,0.1-0.3,0.1-0.4
					c-0.2,0-0.4-0.1-0.6-0.2c-0.1,0-0.2-0.1-0.3,0C136.9,52.2,136.9,52.6,136.5,52.7L136.5,52.7z"/>
				<path id="path263" class="st11" d="M137,43.9c0.2-0.1,0.4-0.1,0.5-0.2c0.5-0.4,1.2-0.1,1.7-0.1c-0.1-0.2-0.3-0.4-0.4-0.5
					c-0.2-0.1-0.4-0.2-0.6-0.2c-0.5-0.3-0.8,0.2-1.2,0.4C137,43.4,136.9,43.7,137,43.9L137,43.9z"/>
				<path id="path265" class="st11" d="M137,45.4C137,45.3,137,45.3,137,45.4c0.1,0,0,0.1,0.1,0.2c0.2-0.1,0.4-0.2,0.5-0.3
					c0.5,0,0.8-0.5,1.2-0.5c0.8,0.1,1.5,0.3,2.2,0.7c0-0.5-0.4-0.9-0.8-1.1c-0.2-0.1-0.4,0-0.6,0.2c-0.5,0.3-0.2-0.4-0.6-0.4
					c-0.4,0.1-0.9,0.3-1.3,0.2c-0.3,0.1-0.5,0.4-0.8,0.3C137,44.9,136.9,45.2,137,45.4z"/>
				<path id="path267" class="st11" d="M137.3,46.9c0.1,0.2,0.4,0.1,0.6,0.2l0.6-0.2c0-0.1-0.2-0.1-0.1-0.3c0.2-0.2,0.4-0.1,0.6-0.1
					c0.3,0,0.6-0.3,0.9-0.1c0,0,0,0.1,0,0.1c-0.1,0.2,0.1,0.4,0.2,0.4c0.3,0.1,0.7,0.4,1,0.2c0-0.3-0.1-0.6-0.2-0.8
					c-0.3,0-0.5-0.3-0.8-0.4c-0.1,0.1-0.3,0.2-0.4,0.2c-0.5-0.1-1.2-0.5-1.7-0.1c-0.2,0.2-0.5,0.2-0.8,0.3
					C137.3,46.5,137.3,46.7,137.3,46.9z"/>
				<path id="path269" class="st11" d="M137.6,51.1c0,0.1-0.2,0.3,0.1,0.4c0.4,0,1-0.2,1.4,0.1c0.1,0.1,0.1,0.3,0.1,0.4l0.6,0.5
					c0.1-0.3,0.2-0.6,0.2-0.9c0-0.2-0.2-0.4-0.4-0.6c-0.4,0-0.6-0.5-1-0.4c-0.2,0-0.4,0.1-0.6,0.1C137.7,50.9,137.7,51,137.6,51.1
					L137.6,51.1z"/>
				<path id="path271" class="st11" d="M137.7,47.8c0.1,0.2,0.2,0.5,0.4,0.5c0.4-0.2,1-0.3,1.5-0.1c0.2,0,0.2,0.2,0.1,0.3
					c0.2,0.1,0.5,0.3,0.8,0.4l-0.1-0.4c0-0.5-0.6-0.5-0.6-0.9c-0.5-0.2-1-0.2-1.5-0.1c-0.2,0.1-0.4,0.1-0.6,0.2
					C137.7,47.7,137.7,47.7,137.7,47.8L137.7,47.8z"/>
				<path id="path273" class="st11" d="M137.9,50.1c0.3-0.1,0.5-0.4,0.7-0.4c0.4,0,0.8,0.2,1.1,0.6c0.2,0.1,0.1,0.4,0.4,0.4
					c-0.1-0.3,0-0.7,0-1c-0.3-0.5-1-0.1-1.3-0.7l-0.5,0c-0.4,0.1-0.3,0.5-0.3,0.8C137.9,49.9,137.9,49.9,137.9,50.1L137.9,50.1z"/>
				<path id="path275" class="st11" d="M140.4,53.1c0.2,0.4,0.7,0.8,0.7,1.3c0.1-0.1,0.2-0.3,0.3-0.4c0-0.1-0.2-0.1-0.2-0.3
					c-0.1-0.2,0-0.3,0.1-0.5c-0.1-0.3-0.3-0.5-0.6-0.7L140.4,53.1L140.4,53.1z"/>
				<path id="path277" class="st11" d="M141.3,52l0.5,0.7c0.2-0.3,0.2-0.8,0.1-1.3c0-0.1-0.1-0.2-0.3-0.1
					C141.5,51.5,141.5,51.8,141.3,52z"/>
				<path id="path279" class="st11" d="M139.3,32.8c0.2,0.1,0.4,0.2,0.6,0.2c0.1-0.1,0.3-0.1,0.5-0.1c0.3,0.2,0.6,0,0.9,0
					c-0.3-0.3-0.6-0.4-0.9-0.6C140,32.4,139.6,32.7,139.3,32.8z"/>
				<path id="path281" class="st11" d="M142,33.5c0.4,0,0.6,0.4,0.9,0.6c0.3,0,0.6,0.3,0.7,0.5l-0.1-0.4c-0.1-0.4-0.3-0.7-0.6-1
					C142.6,33.3,142.3,33.3,142,33.5z"/>
				<path id="path283" class="st12" d="M115.8,30.4l0.2,0c0.5,0.3,1.4,0.4,1.5,1.2c-0.6,0.2-1.1,0.5-1.5,1c-0.3-0.3-1-0.2-1.1-0.8
					C114.9,31.3,115.1,30.5,115.8,30.4z"/>
				<path id="path285" class="st12" d="M116.3,34c0.6-0.1,1.3,0,1.9,0c0.2,0.1,0.3,0.2,0.4,0.4c0,0.8-0.3,1.5-0.3,2.3
					c-0.3,0.1-0.6,0.4-0.6,0.7c-0.3,0.1-0.5,0.2-0.7,0.4c-0.1-0.2-0.1-0.6,0.1-0.8c0.3-0.4,1-0.3,0.9-0.9c0.2-0.3,0-0.7,0-1
					c-0.1-0.2-0.1,0.1-0.3,0.1c-0.2,0-0.5,0.1-0.7-0.1c-0.1-0.2-0.3-0.3-0.4-0.5c-0.2-0.1-0.4-0.3-0.5-0.5L116.3,34L116.3,34z"/>
				<path id="path287" class="st12" d="M117.1,38.5c0.3,0,0.6-0.1,0.9,0.1c-0.1,0.1-0.2,0.1-0.3,0.2l-0.5,0.2
					C117,38.9,117.1,38.6,117.1,38.5z"/>
				<path id="path289" class="st12" d="M118.3,32.7c0.3-0.1,0.6-0.3,0.9-0.2c-0.2,0.2-0.4,0.5-0.6,0.8l-1,0
					C117.8,33,118.1,32.8,118.3,32.7z"/>
				<path id="path291" class="st12" d="M121.1,32.4c0.4-0.1,0.4,0.4,0.7,0.5c0.1,0.1,0.2,0.2,0.1,0.3c-0.2,0.1-0.5,0-0.8,0.1
					c-0.3-0.2-0.1-0.7-0.6-0.7c0,0-0.1-0.1,0-0.2C120.8,32.4,121,32.4,121.1,32.4z"/>
				<path id="path293" class="st12" d="M120.9,34.3c0.2-0.2,0.4-0.3,0.7-0.3l1.8,0c0.1,0.1-0.1,0.1-0.1,0.2
					c-0.1,0.1-0.3,0.1-0.4,0.2c-0.2,0-0.2,0.3-0.4,0.4c-0.3,0.3-0.6,0.1-0.9,0.1c-0.1-0.1-0.2-0.2-0.3-0.3l-0.1,0.1
					c0.1,0.4,0.1,0.8,0.2,1.2l0.4,0.3c0,0.6,0.8,0.5,1.1,0.8c-0.1,0.2-0.2,0.4-0.4,0.6c-0.3-0.3-0.6-0.4-0.9-0.5
					c0-0.4-0.4-0.6-0.7-0.8C120.9,35.7,120.9,35,120.9,34.3L120.9,34.3z"/>
				<path id="path295" class="st12" d="M121.5,38.6h0.8l-0.1,0.4l-0.8-0.4C121.4,38.7,121.5,38.6,121.5,38.6L121.5,38.6z"/>
				<path id="path297" class="st12" d="M123.1,30.7l0.6-0.2c0.4,0.2,0.7,0.4,1,0.6c0.3,0.5,0.2,1.1,0.1,1.7c-0.2,0.2-0.6,0-0.8,0.3
					h0c-0.2-0.7-0.9-1.3-1.5-1.6C122.6,31.2,122.7,30.9,123.1,30.7L123.1,30.7z"/>
			</g>
		</g>
	</g>
</g>
</svg>
