<?xml version="1.0" encoding="utf-8"?>
<!-- Generator: Adobe Illustrator 25.2.3, SVG Export Plug-In . SVG Version: 6.00 Build 0)  -->
<svg version="1.1" id="Layer_1" xmlns="http://www.w3.org/2000/svg" xmlns:xlink="http://www.w3.org/1999/xlink" x="0px" y="0px"
	 viewBox="0 0 57.8 57.8" style="enable-background:new 0 0 57.8 57.8;" xml:space="preserve">
<style type="text/css">
	.st0{fill:#FFFFFF;}
</style>
<g>
	<path d="M0,30.6c0-1.1,0-2.3,0-3.4c0-0.2,0.1-0.4,0.1-0.6c0.1-1,0.2-2.1,0.4-3.1c1.2-6.4,4.2-11.7,9-16.1c4.1-3.7,8.9-6.1,14.4-7
		C25,0.3,26.1,0.1,27.2,0c1.1,0,2.3,0,3.4,0c0.7,0.1,1.5,0.2,2.2,0.3c5.7,0.8,10.7,3,15,6.8c7.7,6.9,10.9,15.5,9.7,25.7
		c-0.8,6.2-3.4,11.7-7.8,16.1c-7.3,7.3-16,10.1-26.2,8.3c-5.8-1-10.8-3.7-14.9-7.9c-4.3-4.3-7.1-9.5-8.1-15.5
		C0.3,32.8,0.1,31.7,0,30.6z M33.5,46.3c0,0.1,0,0.2,0,0.2c2.7-0.3,5.5-0.7,8.2-1c0.4,0,0.6-0.2,0.8-0.6c1.9-3.6,3.8-7.1,5.7-10.7
		c0.2-0.3,0.2-0.6,0-0.9c-1.5-2.5-3-4.9-4.4-7.4c-0.3-0.6-0.7-0.7-1.3-0.6c-3.8,0.4-7.7,0.8-11.6,1.2c-0.4,0-0.6,0.2-0.7,0.5
		c-1.4,2.7-2.8,5.4-4.3,8.1c-0.2,0.4-0.2,0.7,0,1.1c1.7,3,3.5,5.9,5.2,8.9C31.7,46.1,32.2,46.8,33.5,46.3z M35,6.1C35,6,35,6,35,5.9
		c-2.4,0.2-4.8,0.5-7.2,0.7c-0.2,0-0.5,0.2-0.5,0.4c-1.1,3.3-2.2,6.5-3.2,9.8c-0.1,0.2,0,0.5,0.2,0.7c0.6,0.7,1.2,1.3,1.8,2
		c1.4,1.6,2.8,3.2,4.2,4.8c0.3,0.3,0.5,0.4,0.9,0.4c0.5-0.1,0.9-0.1,1.4-0.1c3.4-0.3,6.8-0.7,10.2-1.1c0.2,0,0.5-0.2,0.5-0.4
		c0.9-2.3,1.8-4.6,2.6-6.9c0.1-0.2,0-0.5-0.2-0.7c-2.3-2.6-4.7-5.2-7-7.9C37.8,6.3,36.7,5.6,35,6.1z M26.5,52.5
		c0.1-0.1,0.3-0.1,0.4-0.3c1-1.4,2.1-2.8,3.1-4.2c0.3-0.4,0.4-0.7,0.1-1.2c-1.8-3.1-3.6-6.2-5.4-9.3c-0.2-0.4-0.5-0.6-0.9-0.7
		c-3.1-0.6-6.3-1.2-9.4-1.9c-0.4-0.1-0.6,0-0.8,0.3c-1.5,2.4-3,4.7-4.5,7c-0.2,0.3-0.2,0.6,0,0.9c1.3,2.4,2.8,4.6,4.5,6.7
		c0.1,0.2,0.3,0.3,0.5,0.3c1.8,0.3,3.5,0.6,5.3,1C21.6,51.6,24,52,26.5,52.5z M6.1,17.2c0.1,0.1,0.2,0.2,0.3,0.3
		c1.9,1.1,3.8,2.3,5.7,3.4c0.3,0.2,0.5,0.2,0.8,0c2.9-1.9,6-3.4,9.1-4.7c0.2-0.1,0.4-0.3,0.5-0.5c1-3,2-6,3-9c0.1-0.3,0-0.5-0.2-0.7
		c-1.5-1-3-1.8-4.7-2.5c-0.4-0.1-0.7-0.2-1.1,0c-3.2,1.2-6.1,2.9-8.6,5.1c-0.8,0.7-1.7,1.5-2.3,2.4c-1,1.8-1.7,3.7-2.5,5.6
		C6.2,16.8,6.1,16.9,6.1,17.2z M5,18.8c-0.8,1.3-1.6,2.6-2.4,3.9c-0.1,0.1-0.1,0.2-0.1,0.4c-0.9,4.4-0.8,8.7,0.3,13.1
		c0.3,1,0.5,2,1.4,2.7c1.1,0.8,2.2,1.7,3.3,2.5c0.2-0.3,0.3-0.5,0.4-0.6c1.3-2,2.5-4,3.8-5.9c0.7-1,1.1-1.9,0.6-3.1
		c-0.1-0.2-0.1-0.4-0.1-0.7c-0.2-2.6-0.4-5.2-0.7-7.9c0-0.2-0.1-0.5-0.3-0.6C9.2,21.3,7.1,20.1,5,18.8z M55.8,31.3
		c-1.7,0.9-3.5,1.9-5.2,2.9c-0.2,0.1-0.5,0.4-0.6,0.6c-2,3.6-3.9,7.3-5.9,10.9c-0.3,0.5-0.3,0.9-0.2,1.4c0.2,0.8,0.4,1.6,0.6,2.4
		c0.1,0.4,0.1,0.8,0.2,1.2C50.2,46.9,55.1,39.9,55.8,31.3z M53.4,17.6c-3-6.4-7.7-11-14.3-13.8c0,0.6-0.3,1.1,0.1,1.5
		c2.7,3,5.3,6,8,9c0.1,0.1,0.3,0.3,0.4,0.3C49.7,15.5,51.6,16.5,53.4,17.6z M29.7,55.8c-1-0.4-1.9-0.9-2.9-1.3
		c-0.4-0.2-0.8-0.3-1.2-0.4c-2.3-0.4-4.5-0.8-6.8-1.2c-1-0.2-2-0.3-3-0.5C20.2,54.9,24.8,56,29.7,55.8z"/>
	<path class="st0" d="M33.5,46.3c-1.3,0.5-1.8-0.2-2.3-1.2c-1.7-3-3.4-6-5.2-8.9c-0.2-0.4-0.2-0.7,0-1.1c1.4-2.7,2.9-5.4,4.3-8.1
		c0.2-0.3,0.3-0.5,0.7-0.5c3.9-0.4,7.7-0.8,11.6-1.2c0.6-0.1,1,0,1.3,0.6c1.4,2.5,2.9,5,4.4,7.4c0.2,0.3,0.2,0.6,0,0.9
		c-1.9,3.6-3.8,7.1-5.7,10.7c-0.2,0.4-0.4,0.5-0.8,0.6c-2.7,0.3-5.5,0.7-8.2,1C33.4,46.5,33.4,46.4,33.5,46.3z"/>
	<path class="st0" d="M35,6.1c1.7-0.5,2.7,0.2,3.8,1.5c2.2,2.7,4.6,5.3,7,7.9c0.1,0.2,0.2,0.5,0.2,0.7c-0.8,2.3-1.7,4.6-2.6,6.9
		c-0.1,0.2-0.3,0.4-0.5,0.4c-3.4,0.4-6.8,0.7-10.2,1.1c-0.5,0-0.9,0.1-1.4,0.1c-0.4,0.1-0.6,0-0.9-0.4c-1.4-1.6-2.8-3.2-4.2-4.8
		c-0.6-0.7-1.2-1.3-1.8-2c-0.1-0.2-0.2-0.5-0.2-0.7c1.1-3.3,2.1-6.5,3.2-9.8c0.1-0.2,0.3-0.4,0.5-0.4c2.4-0.3,4.8-0.5,7.2-0.7
		C35,6,35,6,35,6.1z"/>
	<path class="st0" d="M26.5,52.5c-2.5-0.4-4.8-0.9-7.2-1.3c-1.8-0.3-3.5-0.6-5.3-1c-0.2,0-0.4-0.2-0.5-0.3c-1.7-2.1-3.2-4.3-4.5-6.7
		c-0.2-0.4-0.2-0.6,0-0.9c1.5-2.3,3-4.7,4.5-7c0.2-0.3,0.4-0.4,0.8-0.3c3.1,0.6,6.3,1.3,9.4,1.9c0.4,0.1,0.7,0.3,0.9,0.7
		c1.8,3.1,3.6,6.2,5.4,9.3c0.3,0.5,0.2,0.8-0.1,1.2c-1.1,1.4-2.1,2.8-3.1,4.2C26.7,52.3,26.5,52.4,26.5,52.5z"/>
	<path class="st0" d="M6.1,17.2c0.1-0.3,0.1-0.4,0.1-0.6C7,14.8,7.7,12.8,8.7,11c0.5-0.9,1.4-1.7,2.3-2.4c2.5-2.3,5.4-4,8.6-5.1
		c0.4-0.1,0.7-0.1,1.1,0C22.3,4.2,23.8,5,25.3,6c0.3,0.2,0.4,0.3,0.2,0.7c-1,3-2,6-3,9c-0.1,0.2-0.3,0.4-0.5,0.5
		c-3.2,1.3-6.2,2.9-9.1,4.7c-0.3,0.2-0.5,0.2-0.8,0c-1.9-1.1-3.8-2.3-5.7-3.4C6.3,17.4,6.2,17.3,6.1,17.2z"/>
	<path class="st0" d="M5,18.8c2.2,1.3,4.2,2.5,6.3,3.7c0.2,0.1,0.3,0.4,0.3,0.6c0.2,2.6,0.4,5.2,0.7,7.9c0,0.2,0,0.5,0.1,0.7
		c0.4,1.2,0.1,2.1-0.6,3.1c-1.3,1.9-2.5,3.9-3.8,5.9c-0.1,0.2-0.2,0.3-0.4,0.6c-1.1-0.9-2.2-1.7-3.3-2.5c-0.9-0.7-1.1-1.7-1.4-2.7
		c-1.2-4.3-1.3-8.7-0.3-13.1c0-0.1,0.1-0.3,0.1-0.4C3.4,21.4,4.2,20.1,5,18.8z"/>
	<path class="st0" d="M55.8,31.3c-0.7,8.6-5.6,15.7-11,19.5c-0.1-0.4-0.1-0.8-0.2-1.2c-0.2-0.8-0.3-1.6-0.6-2.4
		c-0.2-0.5-0.1-0.9,0.2-1.4c2-3.6,3.9-7.3,5.9-10.9c0.1-0.2,0.4-0.5,0.6-0.6C52.3,33.2,54.1,32.2,55.8,31.3z"/>
	<path class="st0" d="M53.4,17.6c-1.8-1.1-3.7-2.1-5.7-2.9c-0.2-0.1-0.3-0.2-0.4-0.3c-2.7-3-5.3-6-8-9c-0.4-0.5-0.1-0.9-0.1-1.5
		C45.7,6.7,50.4,11.2,53.4,17.6z"/>
	<path class="st0" d="M29.7,55.8c-4.9,0.2-9.5-0.9-13.8-3.4c1,0.2,2,0.3,3,0.5c2.3,0.4,4.5,0.8,6.8,1.2c0.4,0.1,0.8,0.2,1.2,0.4
		C27.8,55,28.7,55.4,29.7,55.8z"/>
</g>
</svg>
