<svg width="16" height="16" viewBox="0 0 16 16" fill="none" xmlns="http://www.w3.org/2000/svg">
<path d="M8.00008 13.6836C7.85564 13.6836 7.71408 13.6587 7.57541 13.6089C7.4363 13.5587 7.30564 13.4892 7.18341 13.4003L2.68341 9.90026C2.50564 9.76693 2.41964 9.59182 2.42541 9.37493C2.43075 9.15848 2.5223 8.98359 2.70008 8.85026C2.8223 8.76137 2.95564 8.71693 3.10008 8.71693C3.24453 8.71693 3.37786 8.76137 3.50008 8.85026L8.00008 12.3336L12.5001 8.85026C12.6223 8.76137 12.7556 8.71693 12.9001 8.71693C13.0445 8.71693 13.1779 8.76137 13.3001 8.85026C13.4779 8.98359 13.5696 9.15848 13.5754 9.37493C13.5807 9.59182 13.4945 9.76693 13.3167 9.90026L8.81675 13.4003C8.69453 13.4892 8.56408 13.5587 8.42541 13.6089C8.2863 13.6587 8.14453 13.6836 8.00008 13.6836ZM8.00008 10.3169C7.85564 10.3169 7.71408 10.292 7.57541 10.2423C7.4363 10.192 7.30564 10.1225 7.18341 10.0336L2.68341 6.53359C2.59453 6.46693 2.52786 6.38648 2.48341 6.29226C2.43897 6.19759 2.41675 6.10026 2.41675 6.00026C2.41675 5.90026 2.43897 5.80293 2.48341 5.70826C2.52786 5.61404 2.59453 5.53359 2.68341 5.46693L7.18341 1.96693C7.30564 1.87804 7.4363 1.80848 7.57541 1.75826C7.71408 1.70848 7.85564 1.68359 8.00008 1.68359C8.14453 1.68359 8.2863 1.70848 8.42541 1.75826C8.56408 1.80848 8.69453 1.87804 8.81675 1.96693L13.3167 5.46693C13.4056 5.53359 13.4723 5.61404 13.5167 5.70826C13.5612 5.80293 13.5834 5.90026 13.5834 6.00026C13.5834 6.10026 13.5612 6.19759 13.5167 6.29226C13.4723 6.38648 13.4056 6.46693 13.3167 6.53359L8.81675 10.0336C8.69453 10.1225 8.56408 10.192 8.42541 10.2423C8.2863 10.292 8.14453 10.3169 8.00008 10.3169ZM8.00008 8.96693L11.8334 6.00026L8.00008 3.03359L4.16675 6.00026L8.00008 8.96693Z" fill="#6A6D6D"/>
</svg>