<svg width="32" height="32" viewBox="0 0 32 32" fill="none" xmlns="http://www.w3.org/2000/svg">
<path d="M23.0667 12.3999C23.3111 12.6444 23.4333 12.9555 23.4333 13.3333C23.4333 13.711 23.3111 14.0222 23.0667 14.2666L16.9333 20.3999C16.8 20.5333 16.6556 20.6279 16.5 20.6839C16.3445 20.739 16.1778 20.7666 16 20.7666C15.8222 20.7666 15.6498 20.7333 15.4827 20.6666C15.3165 20.5999 15.1778 20.511 15.0667 20.3999L8.93335 14.2666C8.68891 14.0222 8.56668 13.711 8.56668 13.3333C8.56668 12.9555 8.68891 12.6444 8.93335 12.3999C9.17779 12.1555 9.4889 12.0333 9.86668 12.0333C10.2445 12.0333 10.5556 12.1555 10.8 12.3999L16 17.5999L21.2 12.3999C21.4445 12.1555 21.7556 12.0333 22.1333 12.0333C22.5111 12.0333 22.8222 12.1555 23.0667 12.3999Z" fill="#193860"/>
</svg>