<svg width="69" height="18" viewBox="0 0 69 18" fill="none" xmlns="http://www.w3.org/2000/svg">
<path d="M11.7006 1.3971C10.8342 0.799518 9.7036 0.5 8.30885 0.5H2.90913C2.48156 0.5 2.24533 0.714547 2.20046 1.14323L0.00688527 14.9582C-0.0159118 15.0939 0.0179227 15.218 0.10808 15.3308C0.197721 15.4438 0.310468 15.5 0.445497 15.5H3.01033C3.46018 15.5 3.70744 15.286 3.75283 14.8568L4.3602 11.1324C4.38238 10.9519 4.4615 10.8051 4.59653 10.6921C4.73146 10.5793 4.90022 10.5055 5.10271 10.4716C5.3052 10.4381 5.49614 10.4212 5.67645 10.4212C5.85625 10.4212 6.06988 10.4326 6.31776 10.4551C6.56503 10.4776 6.72265 10.4886 6.79021 10.4886C8.72497 10.4886 10.2436 9.94164 11.3462 8.84655C12.4483 7.75187 13 6.23399 13 4.2923C13 2.96062 12.5665 1.99562 11.7006 1.3971ZM8.91643 5.54523C8.80358 6.33542 8.51145 6.85435 8.039 7.10274C7.56645 7.35144 6.89151 7.47512 6.01418 7.47512L4.90042 7.50896L5.47427 3.88587C5.51904 3.63779 5.66521 3.5136 5.91288 3.5136H6.5543C7.4538 3.5136 8.10667 3.64369 8.51165 3.90285C8.91643 4.16262 9.05146 4.71022 8.91643 5.54523Z" fill="#003087"/>
<path d="M68.6082 0.5H66.3796C66.1582 0.5 66.0278 0.624196 65.9881 0.872587L64.0302 14.9583L64 15.026C64 15.1394 64.0402 15.2461 64.1207 15.3478C64.2006 15.4492 64.3014 15.5 64.4217 15.5H66.4098C66.7907 15.5 67.0016 15.286 67.0423 14.8568L69 1.00765V0.974012C68.9999 0.658039 68.869 0.5 68.6082 0.5Z" fill="#009CDE"/>
<path d="M38 4.95611C38 4.84776 37.9526 4.74439 37.859 4.64679C37.7645 4.5491 37.6584 4.5 37.541 4.5H34.8208C34.5612 4.5 34.3493 4.60915 34.1849 4.82575L30.4403 9.90868L28.8859 5.02144C28.7677 4.67418 28.5089 4.5 28.1088 4.5H25.4589C25.3409 4.5 25.235 4.549 25.1413 4.64679C25.0469 4.74439 25 4.84786 25 4.95611C25 4.99993 25.2297 5.64037 25.6888 6.87844C26.1479 8.1168 26.6425 9.45266 27.1724 10.8863C27.7024 12.3197 27.9789 13.0803 28.0026 13.1667C26.0713 15.5996 25.1059 16.9029 25.1059 17.0764C25.1059 17.359 25.2588 17.5 25.5652 17.5H28.2854C28.5443 17.5 28.7562 17.3917 28.9213 17.1744L37.9296 5.18416C37.9765 5.14104 38 5.06536 38 4.95611Z" fill="#003087"/>
<path d="M63.5062 4.74837H60.6626C60.3132 4.74837 60.1018 5.13882 60.027 5.9195C59.3778 4.97364 58.1937 4.5 56.4724 4.5C54.6765 4.5 53.1485 5.13882 51.8893 6.41623C50.6295 7.69365 50 9.19611 50 10.9228C50 12.3187 50.4301 13.4304 51.2905 14.2581C52.1511 15.0866 53.3046 15.5 54.7517 15.5C55.4748 15.5 56.2105 15.3578 56.9588 15.0742C57.7071 14.7904 58.2928 14.4121 58.7175 13.9388C58.7175 13.9625 58.6921 14.0688 58.6426 14.2579C58.5923 14.4475 58.5677 14.5897 58.5677 14.6837C58.5677 15.0627 58.7294 15.2514 59.0542 15.2514H61.6359C62.1091 15.2514 62.3839 15.0271 62.4586 14.5774L63.9927 5.31615C64.0173 5.17417 63.9799 5.04424 63.8804 4.92581C63.7803 4.8077 63.6559 4.74837 63.5062 4.74837ZM58.6238 11.7388C57.9878 12.3302 57.2209 12.6258 56.3229 12.6258C55.5993 12.6258 55.0137 12.4368 54.5645 12.0581C54.1154 11.6802 53.8909 11.1597 53.8909 10.4968C53.8909 9.62214 54.2026 8.88234 54.8264 8.27921C55.4493 7.67597 56.2231 7.37435 57.1461 7.37435C57.8438 7.37435 58.4238 7.56957 58.8857 7.95969C59.3468 8.35014 59.578 8.88842 59.578 9.57452C59.5779 10.426 59.2598 11.1477 58.6238 11.7388Z" fill="#009CDE"/>
<path d="M23.5771 4.74837H21.1398C20.8401 4.74837 20.6587 5.13882 20.5945 5.9195C20.0173 4.97364 19.0017 4.5 17.5479 4.5C16.0086 4.5 14.6989 5.13882 13.6194 6.41623C12.5396 7.69365 12 9.19611 12 10.9228C12 12.3187 12.3689 13.4304 13.1065 14.2581C13.8441 15.0866 14.8326 15.5 16.0728 15.5C16.6711 15.5 17.2915 15.3578 17.9328 15.0742C18.5741 14.7904 19.0873 14.4121 19.4721 13.9388C19.3863 14.2226 19.3438 14.4711 19.3438 14.6837C19.3438 15.0627 19.4827 15.2514 19.7607 15.2514H21.9734C22.3793 15.2514 22.6148 15.0271 22.679 14.5774L23.9937 5.31615C24.0148 5.17417 23.9828 5.04424 23.8976 4.92581C23.812 4.8077 23.7051 4.74837 23.5771 4.74837ZM19.392 11.7564C18.8467 12.3366 18.1783 12.6258 17.3878 12.6258C16.7674 12.6258 16.2703 12.4368 15.8965 12.0581C15.5221 11.6802 15.3352 11.1597 15.3352 10.4968C15.3352 9.62214 15.6023 8.88234 16.137 8.27921C16.6711 7.67597 17.3339 7.37435 18.1253 7.37435C18.7236 7.37435 19.2207 7.56957 19.6166 7.95969C20.0118 8.35014 20.2098 8.88842 20.2098 9.57452C20.2098 10.4498 19.9372 11.1774 19.392 11.7564Z" fill="#003087"/>
<path d="M49.8007 1.3971C49.001 0.799518 47.9576 0.5 46.6699 0.5H41.7166C41.301 0.5 41.0725 0.714547 41.0312 1.14323L39.0064 14.9582C38.9853 15.0939 39.0165 15.218 39.0998 15.3308C39.1822 15.4438 39.2866 15.5 39.4112 15.5H41.9656C42.2148 15.5 42.3809 15.3534 42.4641 15.0599L43.025 11.1324C43.0455 10.9519 43.1183 10.8051 43.243 10.6921C43.3677 10.5793 43.5233 10.5055 43.7104 10.4716C43.8972 10.4381 44.0734 10.4212 44.24 10.4212C44.406 10.4212 44.6032 10.4326 44.8317 10.4551C45.0601 10.4776 45.2059 10.4886 45.2678 10.4886C47.0541 10.4886 48.4557 9.94164 49.4735 8.84655C50.4911 7.75187 51 6.23399 51 4.2923C51.0001 2.96062 50.6001 1.99562 49.8007 1.3971ZM46.6076 6.96726C46.1506 7.3058 45.4652 7.47502 44.5516 7.47502L43.5546 7.50886L44.0843 3.88577C44.1254 3.63769 44.2604 3.5135 44.4892 3.5135H45.0497C45.5065 3.5135 45.87 3.53606 46.1404 3.58108C46.41 3.62651 46.6699 3.76727 46.9191 4.00428C47.1685 4.24128 47.293 4.58571 47.293 5.03706C47.293 5.98529 47.0642 6.62842 46.6076 6.96726Z" fill="#009CDE"/>
</svg>