<svg width="150" height="24" viewBox="0 0 150 24" fill="none" xmlns="http://www.w3.org/2000/svg">
<path d="M0 0.972656H34.4047V23.027H0V0.972656Z" fill="#16366F"/>
<path d="M19.8057 11.9995C19.8057 16.3726 16.2606 19.917 11.8877 19.917C7.51478 19.917 3.97021 16.3724 3.97021 11.9995C3.97021 7.62691 7.51487 4.08203 11.8877 4.08203C16.2605 4.08203 19.8057 7.62704 19.8057 11.9995Z" fill="#D9222A"/>
<path d="M22.5172 4.08203C20.4714 4.08203 18.6073 4.85817 17.2021 6.13158C16.9158 6.39134 16.6486 6.67134 16.4026 6.96947H18.0023C18.2213 7.23575 18.4229 7.51589 18.6059 7.80811H15.7991C15.6303 8.0781 15.4779 8.3581 15.3429 8.64652H19.0618C19.1894 8.91934 19.3014 9.1992 19.397 9.48476H15.0077C14.9155 9.75978 14.8387 10.0397 14.7776 10.3232H19.6269C19.7455 10.8741 19.8053 11.4361 19.8051 11.9997C19.8051 12.879 19.6616 13.7249 19.397 14.5148H15.0076C15.1031 14.8006 15.2149 15.0805 15.3426 15.3533H19.0617C18.9266 15.6418 18.7741 15.9218 18.6053 16.1919H15.7989C15.9822 16.4843 16.184 16.7644 16.4025 17.0298H18.0018C17.7562 17.3285 17.4889 17.6088 17.2022 17.8684C18.6075 19.1417 20.4714 19.9174 22.5172 19.9174C26.8901 19.9174 30.4352 16.3728 30.4352 11.9999C30.4352 7.62744 26.8902 4.08243 22.5172 4.08243" fill="#EE9F2D"/>
<path d="M29.3797 16.413C29.3797 16.2718 29.494 16.1572 29.6354 16.1572C29.7767 16.1572 29.891 16.2718 29.891 16.413C29.891 16.5541 29.7767 16.6688 29.6354 16.6688C29.4941 16.6688 29.3797 16.5542 29.3797 16.413ZM29.6354 16.6075C29.7428 16.6074 29.8297 16.5203 29.8298 16.413C29.8298 16.3057 29.7428 16.2188 29.6355 16.2188H29.6354C29.5282 16.2186 29.4413 16.3054 29.4411 16.4125V16.4131C29.441 16.5203 29.5279 16.6074 29.6351 16.6075C29.6352 16.6075 29.6353 16.6075 29.6354 16.6075ZM29.6008 16.5254H29.5484V16.3007H29.6432C29.6631 16.3007 29.6833 16.3007 29.7008 16.3119C29.719 16.3242 29.7293 16.3459 29.7293 16.3683C29.7293 16.3934 29.7144 16.417 29.6903 16.4262L29.7316 16.5254H29.6736L29.6392 16.4365H29.6009V16.5254H29.6008ZM29.6008 16.3979H29.6298C29.6407 16.3979 29.6521 16.3988 29.6618 16.3935C29.6705 16.388 29.6749 16.3777 29.6749 16.3678C29.6749 16.3592 29.6696 16.3492 29.6622 16.345C29.653 16.3392 29.6385 16.3406 29.6287 16.3406H29.6008V16.3979ZM10.0387 12.8665C9.94845 12.856 9.90875 12.8532 9.84678 12.8532C9.3596 12.8532 9.11294 13.0203 9.11294 13.3502C9.11294 13.5536 9.23336 13.6831 9.42113 13.6831C9.77126 13.6831 10.0236 13.3496 10.0387 12.8665ZM10.6637 14.3219H9.95154L9.9679 13.9833C9.75067 14.2509 9.46083 14.3781 9.06698 14.3781C8.60111 14.3781 8.28167 14.0142 8.28167 13.4858C8.28167 12.6908 8.83726 12.2269 9.79094 12.2269C9.88833 12.2269 10.0133 12.2358 10.1412 12.252C10.1679 12.1444 10.1749 12.0983 10.1749 12.0403C10.1749 11.8238 10.0251 11.7431 9.6235 11.7431C9.20301 11.7383 8.85619 11.8433 8.71376 11.8902C8.72276 11.8359 8.83285 11.1554 8.83285 11.1554C9.26124 11.0299 9.54375 10.9826 9.86169 10.9826C10.5998 10.9826 10.9907 11.314 10.99 11.9403C10.9914 12.1082 10.9637 12.3152 10.9203 12.5874C10.8457 13.0608 10.6856 14.0747 10.6637 14.3219ZM7.92201 14.3219H7.06242L7.55481 11.2344L6.4554 14.3219H5.86964L5.7973 11.2521L5.27973 14.3219H4.4751L5.14722 10.3056H6.38315L6.45813 12.5537L7.21204 10.3056H8.58677L7.92201 14.3219ZM23.5797 12.8665C23.4898 12.856 23.4499 12.8532 23.3882 12.8532C22.9012 12.8532 22.6545 13.0203 22.6545 13.3502C22.6545 13.5536 22.7747 13.6831 22.9625 13.6831C23.3127 13.6831 23.5652 13.3496 23.5797 12.8665ZM24.2053 14.3219H23.4931L23.5092 13.9833C23.292 14.2509 23.002 14.3781 22.6085 14.3781C22.1425 14.3781 21.8234 14.0142 21.8234 13.4858C21.8234 12.6908 22.3786 12.2269 23.3325 12.2269C23.4299 12.2269 23.5546 12.2358 23.6824 12.252C23.7091 12.1444 23.7161 12.0983 23.7161 12.0403C23.7161 11.8238 23.5665 11.7431 23.1649 11.7431C22.7444 11.7383 22.3979 11.8433 22.2549 11.8902C22.264 11.8359 22.3744 11.1554 22.3744 11.1554C22.8028 11.0299 23.0851 10.9826 23.4027 10.9826C24.1411 10.9826 24.532 11.314 24.5313 11.9403C24.5327 12.1082 24.505 12.3152 24.4616 12.5874C24.3874 13.0608 24.227 14.0747 24.2053 14.3219ZM14.4842 14.2723C14.2489 14.3464 14.0655 14.3781 13.8667 14.3781C13.4272 14.3781 13.1874 14.1256 13.1874 13.6606C13.1811 13.5163 13.2506 13.1366 13.3052 12.79C13.3548 12.4849 13.6779 10.5612 13.6779 10.5612H14.5323L14.4325 11.0556H14.9486L14.832 11.8405H14.3141C14.2149 12.4617 14.0735 13.2355 14.0719 13.338C14.0719 13.5064 14.1617 13.5799 14.3661 13.5799C14.4641 13.5799 14.5399 13.5699 14.5979 13.549L14.4842 14.2723ZM17.1038 14.2458C16.8103 14.3355 16.5271 14.3789 16.227 14.3781C15.2706 14.3772 14.772 13.8777 14.772 12.9211C14.772 11.8046 15.4063 10.9827 16.2673 10.9827C16.9717 10.9827 17.4216 11.4429 17.4216 12.1646C17.4216 12.4041 17.3907 12.6379 17.3163 12.9679H15.6148C15.5573 13.4417 15.8605 13.6391 16.3575 13.6391C16.6634 13.6391 16.9392 13.576 17.2459 13.4334L17.1038 14.2458ZM16.6236 12.3094C16.6283 12.2414 16.7142 11.7264 16.2261 11.7264C15.9539 11.7264 15.7593 11.9339 15.68 12.3094H16.6236ZM11.1797 12.0881C11.1797 12.5013 11.38 12.7861 11.8344 13.0001C12.1825 13.1637 12.2363 13.2122 12.2363 13.3605C12.2363 13.5641 12.0828 13.656 11.7427 13.656C11.4863 13.656 11.2478 13.616 10.9726 13.5272C10.9726 13.5272 10.8596 14.2471 10.8544 14.2815C11.0498 14.3241 11.224 14.3636 11.7489 14.3781C12.6559 14.3781 13.0747 14.0328 13.0747 13.2864C13.0747 12.8376 12.8994 12.5743 12.4688 12.3763C12.1084 12.2109 12.067 12.174 12.067 12.0214C12.067 11.8448 12.2099 11.7548 12.4877 11.7548C12.6565 11.7548 12.8869 11.7728 13.1053 11.8038L13.2277 11.0463C13.0051 11.011 12.6677 10.9827 12.4712 10.9827C11.5096 10.9827 11.1768 11.4849 11.1797 12.0881ZM21.2846 11.0685C21.5233 11.0685 21.7459 11.1311 22.0526 11.2855L22.1932 10.4139C22.0673 10.3645 21.624 10.0742 21.2486 10.0742C20.6733 10.0742 20.1871 10.3596 19.8451 10.8307C19.3462 10.6655 19.1411 10.9994 18.8897 11.3321L18.6664 11.3841C18.6833 11.2745 18.6986 11.1657 18.6935 11.0556H17.9041C17.7963 12.0665 17.6051 13.0904 17.4555 14.1024L17.4165 14.3219H18.2764C18.42 13.3893 18.4986 12.7922 18.5464 12.3881L18.8703 12.208C18.9186 12.028 19.07 11.9672 19.3738 11.9746C19.333 12.1954 19.3125 12.4196 19.3128 12.6443C19.3128 13.7128 19.8893 14.3781 20.8147 14.3781C21.0531 14.3781 21.2576 14.3467 21.5743 14.2609L21.7256 13.3452C21.4407 13.4855 21.2069 13.5515 20.9951 13.5515C20.4955 13.5515 20.1931 13.1826 20.1931 12.573C20.1931 11.6886 20.6428 11.0685 21.2846 11.0685Z" fill="black"/>
<path d="M8.16932 14.0831H7.3096L7.8023 10.996L6.70289 14.0831H6.11704L6.04461 11.0137L5.52709 14.0831H4.72241L5.39454 10.0674H6.63046L6.66522 12.5534L7.49905 10.0674H8.83409L8.16932 14.0831Z" fill="white"/>
<path d="M28.5608 10.3057L28.3703 11.4661C28.1352 11.1568 27.8827 10.9329 27.5493 10.9329C27.1155 10.9329 26.7208 11.2617 26.4624 11.7456C26.1025 11.671 25.7303 11.5444 25.7303 11.5444L25.7301 11.5473C25.7592 11.2768 25.7707 11.1117 25.7682 11.0557H24.9786C24.8711 12.0665 24.68 13.0904 24.5306 14.1025L24.4912 14.322H25.351C25.4671 13.5678 25.5561 12.9417 25.6215 12.4451C25.9152 12.1797 26.0622 11.9481 26.359 11.9636C26.2276 12.2814 26.1506 12.6474 26.1506 13.0229C26.1506 13.8395 26.5638 14.3782 27.1887 14.3782C27.5037 14.3782 27.7453 14.2696 27.9811 14.0178L27.9409 14.3214H28.754L29.4086 10.3057H28.5608ZM27.4858 13.5671C27.1932 13.5671 27.0455 13.3506 27.0455 12.9233C27.0455 12.2814 27.3221 11.8261 27.7121 11.8261C28.0074 11.8261 28.1673 12.0512 28.1673 12.466C28.1673 13.1136 27.8863 13.5671 27.4858 13.5671Z" fill="black"/>
<path d="M10.2857 12.6292C10.1956 12.6188 10.1557 12.616 10.094 12.616C9.60676 12.616 9.36028 12.7831 9.36028 13.1129C9.36028 13.316 9.4807 13.4458 9.66816 13.4458C10.0186 13.4458 10.2709 13.1124 10.2857 12.6292ZM10.9111 14.0841H10.1989L10.2151 13.7461C9.99805 14.0131 9.70786 14.1408 9.31436 14.1408C8.84827 14.1408 8.52905 13.777 8.52905 13.2486C8.52905 12.4532 9.08442 11.9896 10.0383 11.9896C10.1357 11.9896 10.2607 11.9984 10.3884 12.0148C10.415 11.9071 10.422 11.861 10.422 11.8027C10.422 11.5863 10.2724 11.5059 9.87084 11.5059C9.45017 11.5011 9.10357 11.6061 8.96092 11.6524C8.96992 11.5983 9.08001 10.9185 9.08001 10.9185C9.50826 10.7925 9.79109 10.7452 10.1087 10.7452C10.847 10.7452 11.238 11.0768 11.2373 11.7026C11.2386 11.8711 11.2106 12.078 11.1675 12.3499C11.093 12.8229 10.9328 13.8374 10.9111 14.0841ZM22.4402 10.1764L22.2994 11.0483C21.9929 10.8941 21.7701 10.8312 21.5316 10.8312C20.8898 10.8312 20.4399 11.4513 20.4399 12.3357C20.4399 12.9453 20.7424 13.314 21.242 13.314C21.4537 13.314 21.6873 13.2482 21.9721 13.1077L21.8213 14.023C21.5044 14.1094 21.3001 14.1408 21.0615 14.1408C20.1362 14.1408 19.5596 13.4755 19.5596 12.407C19.5596 10.9712 20.3561 9.96777 21.4954 9.96777C21.8706 9.96782 22.3141 10.127 22.4402 10.1764ZM23.8271 12.6292C23.737 12.6188 23.6973 12.616 23.6354 12.616C23.1483 12.616 22.9017 12.7831 22.9017 13.1129C22.9017 13.316 23.022 13.4458 23.2097 13.4458C23.5598 13.4458 23.8123 13.1124 23.8271 12.6292ZM24.4525 14.0841H23.7401L23.7565 13.7461C23.5393 14.0131 23.2492 14.1408 22.8558 14.1408C22.3898 14.1408 22.0704 13.777 22.0704 13.2486C22.0704 12.4532 22.626 11.9896 23.5795 11.9896C23.6771 11.9896 23.8019 11.9984 23.9298 12.0148C23.9563 11.9071 23.9634 11.861 23.9634 11.8027C23.9634 11.5863 23.8138 11.5059 23.4122 11.5059C22.9917 11.5011 22.6449 11.6061 22.5023 11.6524C22.5113 11.5983 22.6216 10.9185 22.6216 10.9185C23.0498 10.7925 23.3324 10.7452 23.65 10.7452C24.3885 10.7452 24.7794 11.0768 24.7785 11.7026C24.7799 11.8711 24.7522 12.078 24.7088 12.3499C24.6346 12.8229 24.474 13.8374 24.4525 14.0841ZM14.7314 14.0346C14.4959 14.1087 14.3125 14.1408 14.1139 14.1408C13.6744 14.1408 13.4346 13.8883 13.4346 13.4234C13.4285 13.2787 13.498 12.8993 13.5526 12.5528C13.602 12.2473 13.9251 10.3238 13.9251 10.3238H14.7794L14.6797 10.8184H15.1183L15.0016 11.603H14.5616C14.4623 12.2245 14.3206 12.9976 14.3191 13.1004C14.3191 13.2693 14.4092 13.3423 14.6134 13.3423C14.7113 13.3423 14.7871 13.3327 14.8451 13.3117L14.7314 14.0346ZM17.3511 14.0085C17.0578 14.0982 16.7741 14.1414 16.4742 14.1408C15.5178 14.1399 15.0192 13.6404 15.0192 12.6838C15.0192 11.5669 15.6535 10.7452 16.5145 10.7452C17.2189 10.7452 17.6688 11.2052 17.6688 11.9273C17.6688 12.167 17.6379 12.4008 17.5637 12.7306H15.8622C15.8046 13.2044 16.1079 13.402 16.6049 13.402C16.9106 13.402 17.1866 13.3388 17.4931 13.1958L17.3511 14.0085ZM16.8707 12.0716C16.8758 12.0038 16.9615 11.4886 16.4731 11.4886C16.2011 11.4886 16.0065 11.6967 15.9273 12.0716H16.8707ZM11.4268 11.8509C11.4268 12.264 11.6271 12.5485 12.0814 12.7628C12.4295 12.9264 12.4833 12.9751 12.4833 13.1232C12.4833 13.3269 12.3297 13.4187 11.9899 13.4187C11.7333 13.4187 11.4948 13.3787 11.2195 13.2899C11.2195 13.2899 11.1068 14.0098 11.1017 14.0442C11.2966 14.0869 11.4711 14.1258 11.9959 14.1408C12.9031 14.1408 13.3218 13.7955 13.3218 13.0493C13.3218 12.6003 13.1467 12.337 12.7158 12.1391C12.3556 11.9733 12.3139 11.9369 12.3139 11.7842C12.3139 11.6077 12.4571 11.517 12.7348 11.517C12.9033 11.517 13.1338 11.5355 13.3525 11.5666L13.4747 10.8088C13.2523 10.7735 12.9149 10.7452 12.7184 10.7452C11.7567 10.7452 11.424 11.2471 11.4268 11.8509ZM29.0019 14.0841H28.1886L28.2291 13.78C27.9932 14.0322 27.7516 14.1408 27.4366 14.1408C26.8116 14.1408 26.3987 13.6021 26.3987 12.7856C26.3987 11.6992 27.0392 10.7834 27.7973 10.7834C28.1307 10.7834 28.3831 10.9196 28.6179 11.2287L28.8087 10.0683H29.6565L29.0019 14.0841ZM27.7339 13.3294C28.1342 13.3294 28.4154 12.8759 28.4154 12.2288C28.4154 11.8139 28.2553 11.5888 27.96 11.5888C27.5702 11.5888 27.2933 12.0439 27.2933 12.686C27.2932 13.1132 27.4413 13.3294 27.7339 13.3294ZM25.2267 10.8184C25.1191 11.8292 24.9279 12.8531 24.7785 13.8646L24.7391 14.0841H25.5989C25.9063 12.0871 25.9808 11.6971 26.4629 11.7459C26.5397 11.3372 26.6826 10.9792 26.7892 10.7985C26.4292 10.7235 26.2281 10.927 25.9649 11.3135C25.9857 11.1464 26.0238 10.9842 26.0162 10.8184H25.2267ZM18.1508 10.8184C18.0429 11.8292 17.8517 12.8531 17.7023 13.8646L17.6632 14.0841H18.5233C18.8304 12.0871 18.9047 11.6971 19.3865 11.7459C19.4637 11.3372 19.6067 10.9792 19.7129 10.7985C19.3532 10.7235 19.152 10.927 18.889 11.3135C18.9098 11.1464 18.9475 10.9842 18.9403 10.8184H18.1508ZM29.3795 13.8284C29.3795 13.6867 29.494 13.5726 29.6352 13.5726C29.7762 13.5725 29.8906 13.6867 29.8908 13.8278V13.8284C29.8907 13.9696 29.7763 14.084 29.6352 14.0841C29.494 14.084 29.3796 13.9696 29.3795 13.8284ZM29.6352 14.0227C29.7424 14.0227 29.8294 13.9358 29.8294 13.8286V13.8285C29.8295 13.7212 29.7426 13.6341 29.6353 13.634H29.6352C29.5278 13.6341 29.4407 13.7211 29.4407 13.8285C29.4408 13.9357 29.5278 14.0227 29.6352 14.0227ZM29.6006 13.9402H29.5482V13.7159H29.6432C29.6629 13.7159 29.6832 13.7163 29.7004 13.7272C29.7187 13.7396 29.7292 13.761 29.7292 13.7833C29.7292 13.8087 29.7143 13.8324 29.69 13.8414L29.7315 13.9401H29.6734L29.639 13.8515H29.6006V13.9401V13.9402ZM29.6006 13.8132H29.6294C29.6402 13.8132 29.6521 13.814 29.6616 13.8088C29.6702 13.8032 29.6746 13.7928 29.6746 13.7829C29.6742 13.7736 29.6695 13.765 29.6619 13.7597C29.6529 13.7546 29.638 13.756 29.6283 13.756H29.6005V13.8132H29.6006Z" fill="white"/>
<path d="M38.4048 0.972656H72.8095V23.027H38.4048V0.972656Z" fill="url(#paint0_linear_2217_16443)" stroke="#95A5AD" stroke-opacity="0.4"/>
<path d="M51.3379 16.3552L52.8094 7.72047H55.1629L53.6904 16.3552H51.3379ZM62.1935 7.90661C61.7273 7.73167 60.9966 7.54395 60.0842 7.54395C57.7585 7.54395 56.1205 8.71507 56.1064 10.3935C56.0933 11.6343 57.276 12.3265 58.1687 12.7395C59.0849 13.1628 59.3928 13.4327 59.3884 13.8105C59.3825 14.3894 58.6568 14.6537 57.9803 14.6537C57.0383 14.6537 56.5379 14.5228 55.7649 14.2006L55.4615 14.0633L55.1313 15.9963C55.681 16.2374 56.6975 16.4461 57.753 16.457C60.2271 16.457 61.8332 15.2992 61.8514 13.5068C61.8602 12.5245 61.2332 11.7771 59.8753 11.1607C59.0527 10.7613 58.5489 10.4947 58.5542 10.0902C58.5542 9.73134 58.9806 9.34755 59.9022 9.34755C60.6717 9.33559 61.2293 9.50343 61.6637 9.67836L61.8746 9.778L62.1935 7.90661ZM68.2501 7.72034H66.4315C65.8681 7.72034 65.4464 7.8741 65.1991 8.4364L61.7037 16.3495H64.1751C64.1751 16.3495 64.5791 15.2855 64.6705 15.0519C64.9406 15.0519 67.3415 15.0556 67.6847 15.0556C67.7551 15.3579 67.9711 16.3495 67.9711 16.3495H70.155L68.2501 7.72007V7.72034ZM65.3646 13.2961C65.5593 12.7986 66.3024 10.8823 66.3024 10.8823C66.2885 10.9053 66.4956 10.3824 66.6144 10.0582L66.7734 10.8026C66.7734 10.8026 67.2241 12.8638 67.3183 13.296H65.3646V13.2961ZM49.34 7.72034L47.0358 13.6088L46.7903 12.4122C46.3613 11.0328 45.0249 9.53823 43.5308 8.79001L45.6377 16.3414L48.1279 16.3386L51.8332 7.72025L49.34 7.7202" fill="#0E4595"/>
<path d="M44.8853 7.71973H41.0901L41.0601 7.89938C44.0126 8.61412 45.9663 10.3414 46.7774 12.417L45.9522 8.44897C45.8098 7.9022 45.3966 7.739 44.8854 7.71995" fill="#F2AE14"/>
<path fill-rule="evenodd" clip-rule="evenodd" d="M76.8096 23.027H110.773V0.972656H76.8096V23.027Z" fill="url(#paint1_radial_2217_16443)"/>
<path fill-rule="evenodd" clip-rule="evenodd" d="M79.8674 9.40681L79.2143 7.82311L78.5653 9.40681H79.8674ZM94.238 8.77844C94.109 8.85166 93.9538 8.85961 93.7668 8.85961H92.6085V7.97524H93.7822C93.9498 7.97524 94.1238 7.98148 94.2369 8.04279C94.3585 8.10352 94.4358 8.2267 94.4358 8.39586C94.4358 8.57125 94.3608 8.70805 94.238 8.77844ZM102.496 9.40681L101.839 7.82311L101.186 9.40681H102.496ZM87.1021 11.1245H86.1251L86.1194 8.00987L84.7389 11.1245H83.9022L82.5143 8.00305V11.1245H80.5756L80.2107 10.2367H78.2254L77.8571 11.1245H76.8209L78.5255 7.14252H79.9436L81.564 10.915V7.14252H83.1219L84.3677 9.84616L85.5147 7.14252H87.1021V11.1245ZM90.9949 11.1245H87.8109V7.14252H90.9949V7.97524H88.7663V8.68989H90.9403V9.50841L88.7663 9.50501V10.3003H90.9949V11.1245ZM95.4856 8.21819C95.4856 8.84769 95.0616 9.18032 94.816 9.27852C95.0241 9.35856 95.2008 9.49593 95.2838 9.61513C95.4185 9.80926 95.4452 9.9909 95.4452 10.3411V11.1245H94.4835L94.4807 10.6238C94.4807 10.3871 94.5034 10.042 94.3261 9.85126C94.1869 9.70879 93.9771 9.67927 93.6327 9.67927H92.6085V11.1245H91.6559V7.14252H93.8504C94.3346 7.14252 94.695 7.15842 95.0042 7.33552C95.306 7.51148 95.4856 7.77203 95.4856 8.21819ZM96.0397 11.1245H97.0122V7.14196H96.0397V11.1245ZM108.294 11.1245H106.942L105.135 8.13872L105.138 11.1245H103.197L102.825 10.2367H100.842L100.486 11.1245H99.3704C98.9054 11.1245 98.3178 11.0212 97.9887 10.6857C97.6499 10.3457 97.4788 9.88986 97.4788 9.16386C97.4788 8.57352 97.5829 8.03427 97.9921 7.60798C98.3007 7.29011 98.7821 7.14252 99.4397 7.14252H100.361V7.99511H99.4602C99.1118 7.99511 98.9134 8.04846 98.7236 8.23294C98.5633 8.40096 98.4496 8.7177 98.4496 9.13605C98.4496 9.56348 98.5349 9.86773 98.7145 10.0715C98.8577 10.2276 99.1254 10.2747 99.3772 10.2747H99.8057L101.149 7.14252H102.577L104.191 10.9093V7.14252H105.645L107.32 9.91541V7.14252H108.294V11.1245ZM76.8096 11.9089H78.4385L78.8057 11.0212H79.6275L79.9936 11.9089H83.1992V11.2312L83.4856 11.9112H85.147L85.4323 11.2227V11.9089H93.3974L93.3934 10.4564H93.5474C93.656 10.4586 93.6884 10.4711 93.6884 10.6499V11.9089H97.8051V11.5712C98.1376 11.7494 98.6554 11.9089 99.3329 11.9089H101.067L101.437 11.0212H102.26L102.627 11.9089H105.963V11.0671L106.469 11.9089H109.141V6.35352H106.496V7.0114L106.127 6.35352H103.407V7.0114L103.068 6.35352H99.3971C98.7821 6.35352 98.2405 6.43809 97.8051 6.67763V6.35352H95.2753V6.67763C94.9939 6.43128 94.616 6.35352 94.1971 6.35352H84.9435L84.32 7.79019L83.6857 6.35352H80.7717V7.0114L80.4483 6.35352H77.9634L76.8096 8.99244V11.9089Z" fill="white"/>
<path fill-rule="evenodd" clip-rule="evenodd" d="M110.773 14.8748H109.033C108.86 14.8748 108.744 14.8816 108.651 14.9457C108.551 15.0093 108.509 15.1085 108.509 15.235C108.509 15.3825 108.594 15.4846 108.721 15.5289C108.816 15.5641 108.927 15.5731 109.09 15.5754L109.6 15.5884C110.121 15.6032 110.471 15.6917 110.685 15.9078C110.72 15.9396 110.746 15.9776 110.773 16.0082V14.8748ZM110.773 17.4996C110.539 17.8389 110.088 18.0096 109.477 18.0096H107.635V17.1542H109.471C109.65 17.1542 109.779 17.1298 109.858 17.0554C109.922 16.997 109.971 16.9068 109.971 16.7973C109.971 16.6799 109.922 16.5869 109.855 16.5335C109.781 16.4706 109.683 16.445 109.518 16.4428C108.623 16.415 107.506 16.4706 107.506 15.2118C107.506 14.6348 107.875 14.0273 108.872 14.0273H110.773V13.2354H109.007C108.474 13.2354 108.088 13.3613 107.813 13.5621V13.2354H105.202C104.789 13.2354 104.3 13.3392 104.064 13.5621L104.068 13.2354H99.4069V13.5621C99.0357 13.2949 98.4117 13.2354 98.119 13.2354H95.0493V13.5621C94.7544 13.2773 94.1053 13.2354 93.7058 13.2354H90.265L89.479 14.0885L88.7418 13.2354H83.6023V18.7908H88.6458L89.4574 17.9274L90.2218 18.7908L93.3261 18.793V17.4866H93.6336C94.0434 17.4923 94.5333 17.4775 94.9618 17.2926V18.7908H97.5245V17.3425H97.6478C97.8058 17.3425 97.8217 17.3516 97.8217 17.5076V18.7908H105.609C106.1 18.7908 106.616 18.6643 106.905 18.4374V18.7908H109.376C109.89 18.7908 110.39 18.7199 110.773 18.5366V17.4996ZM106.969 15.9078C107.156 16.1007 107.255 16.3441 107.255 16.7519C107.255 17.6108 106.717 18.0096 105.758 18.0096H103.899V17.1542H105.75C105.933 17.1542 106.059 17.1298 106.142 17.0554C106.205 16.997 106.252 16.9068 106.252 16.7973C106.252 16.6799 106.201 16.5869 106.136 16.5335C106.062 16.4706 105.963 16.445 105.797 16.4428C104.903 16.415 103.79 16.4706 103.79 15.2118C103.79 14.6348 104.153 14.0273 105.149 14.0273H107.062V14.8748H105.317C105.141 14.8748 105.027 14.8816 104.931 14.9457C104.828 15.0093 104.789 15.1085 104.789 15.235C104.789 15.3825 104.878 15.4846 104.999 15.5289C105.097 15.5641 105.202 15.5731 105.367 15.5754L105.88 15.5884C106.401 15.6032 106.753 15.6917 106.969 15.9078ZM98.3674 15.6639C98.2423 15.7371 98.0826 15.7445 97.899 15.7445H96.7402V14.8527H97.9144C98.0826 14.8527 98.2554 14.8561 98.3674 14.9213C98.4913 14.9883 98.5651 15.1108 98.5651 15.2827C98.5651 15.4512 98.4913 15.5884 98.3674 15.6639ZM98.9437 16.1591C99.1556 16.2357 99.329 16.3764 99.4103 16.4927C99.5444 16.6878 99.5666 16.8694 99.5677 17.2194V18.0096H98.6129V17.5121C98.6129 17.2704 98.6362 16.917 98.4577 16.7332C98.3202 16.5869 98.1071 16.5545 97.7604 16.5545H96.7402V18.0096H95.7837V14.0273H97.9826C98.4668 14.0273 98.8186 14.0471 99.1306 14.2156C99.4313 14.3954 99.6177 14.6479 99.6177 15.1012C99.6177 15.7337 99.1949 16.0582 98.9437 16.1591ZM100.148 14.0273H103.331V14.8527H101.098V15.5731H103.275V16.386H101.098V17.1774L103.331 17.182V18.0096H100.148V14.0273ZM93.7189 15.8636H92.4844V14.8527H93.7291C94.0729 14.8527 94.3111 14.9894 94.3111 15.3405C94.3111 15.6838 94.0843 15.8636 93.7189 15.8636ZM91.5353 17.6483L90.0746 16.0264L91.5353 14.455V17.6483ZM87.7569 17.1774H85.4136V16.386H87.5057V15.5731H85.4136V14.8527H87.8029L88.8436 16.0105L87.7569 17.1774ZM95.3335 15.3405C95.3335 16.4428 94.5094 16.6731 93.674 16.6731H92.4844V18.0096H90.6344L89.4602 16.6924L88.2406 18.0096H84.4662V14.0273H88.2991L89.4716 15.3315L90.6833 14.0273H93.7291C94.4861 14.0273 95.3335 14.2355 95.3335 15.3405Z" fill="white"/>
<path fill-rule="evenodd" clip-rule="evenodd" d="M95.512 8.2204C95.512 8.84855 95.0877 9.17903 94.8423 9.27694C95.0507 9.35673 95.2278 9.49481 95.311 9.61251C95.4459 9.80718 95.4721 9.98714 95.4721 10.3374V11.1172H94.5091L94.5051 10.6187C94.5051 10.3821 94.529 10.0381 94.3508 9.84793C94.2106 9.70589 94.0016 9.67646 93.6554 9.67646H92.6302V11.1172H91.6746V7.14746H93.8746C94.3587 7.14746 94.7204 7.16331 95.0296 7.33987C95.3332 7.51529 95.512 7.77504 95.512 8.2204Z" fill="#2F9BCA"/>
<path fill-rule="evenodd" clip-rule="evenodd" d="M91.0131 11.1172H87.7932V7.14746H91.0131V7.97808H88.7591V8.69045H90.9568V9.50635L88.7591 9.50409V10.2968H91.0131" fill="#2EA3D0"/>
<path fill-rule="evenodd" clip-rule="evenodd" d="M87.0869 11.1172H86.1102L86.1045 8.0126L84.7255 11.1172H83.8891L82.5005 8.00694V11.1172H80.563L80.1977 10.2329H78.213L77.8459 11.1172H76.8096L78.5136 7.14746H79.9306L81.5505 10.909V7.14746H83.1085L84.3545 9.84415L85.4999 7.14746H87.0869" fill="#55B2D8"/>
<path fill-rule="evenodd" clip-rule="evenodd" d="M94.2434 8.78391C94.1138 8.85839 93.9586 8.86521 93.7727 8.86521H92.6135V7.97949H93.7875C93.9552 7.97949 94.1286 7.98575 94.2411 8.04828C94.3639 8.10797 94.4407 8.23134 94.4407 8.40132C94.4407 8.57641 94.3662 8.71456 94.2434 8.78391Z" fill="white"/>
<path fill-rule="evenodd" clip-rule="evenodd" d="M79.8692 9.41325L79.2154 7.82715L78.5662 9.41325" fill="white"/>
<path d="M149.178 23.0273H114.773V0.973032H149.178V23.0273Z" fill="#EEEEEE"/>
<path d="M115.273 1.47303V22.5273H148.678V1.47303H115.273Z" stroke="#95A5AD" stroke-opacity="0.4"/>
<path d="M149.178 12.5295C149.178 12.5295 138.756 19.7819 119.669 23.0273H149.178V12.5295Z" fill="#EB8518"/>
<path d="M119.657 9.02732C119.378 9.27883 119.017 9.38749 118.443 9.38749H118.205V6.38556H118.443C119.017 6.38556 119.364 6.48828 119.657 6.75268C119.963 7.02564 120.148 7.44747 120.148 7.88321C120.148 8.31896 119.963 8.75368 119.657 9.02732ZM118.621 5.61578H117.32V10.1562H118.615C119.303 10.1562 119.799 9.99449 120.237 9.6317C120.755 9.20427 121.061 8.55748 121.061 7.88881C121.061 6.54952 120.059 5.61578 118.621 5.61578Z" fill="#333333"/>
<path d="M121.568 10.1562H122.456V5.61578H121.568V10.1562Z" fill="#333333"/>
<path d="M124.997 7.35802C124.465 7.1619 124.308 7.0317 124.308 6.78647C124.308 6.50053 124.586 6.28346 124.968 6.28346C125.234 6.28346 125.452 6.39221 125.683 6.6516L126.147 6.04494C125.767 5.71124 125.31 5.54125 124.811 5.54125C124.007 5.54125 123.394 6.09897 123.394 6.8428C123.394 7.46736 123.68 7.78715 124.512 8.087C124.859 8.20957 125.036 8.29083 125.126 8.34614C125.302 8.46141 125.39 8.62546 125.39 8.8153C125.39 9.18276 125.098 9.45547 124.702 9.45547C124.279 9.45547 123.939 9.24443 123.735 8.85076L123.162 9.40076C123.571 9.99953 124.061 10.2656 124.736 10.2656C125.657 10.2656 126.304 9.6543 126.304 8.77518C126.304 8.0529 126.005 7.7265 124.997 7.35802Z" fill="#333333"/>
<path d="M126.64 7.88863C126.64 9.22334 127.69 10.2588 129.04 10.2588C129.421 10.2588 129.749 10.1842 130.151 9.99431V8.95156C129.796 9.30511 129.483 9.44863 129.081 9.44863C128.188 9.44863 127.554 8.80253 127.554 7.88303C127.554 7.01155 128.208 6.32337 129.04 6.32337C129.463 6.32337 129.783 6.47385 130.151 6.83435V5.7922C129.761 5.59507 129.441 5.51287 129.06 5.51287C127.718 5.51287 126.64 6.56825 126.64 7.88863Z" fill="#333333"/>
<path d="M137.18 8.66547L135.968 5.61603H135L136.928 10.2725H137.405L139.368 5.61603H138.408L137.18 8.66547Z" fill="#333333"/>
<path d="M139.769 10.1562H142.283V9.38749H140.655V8.16254H142.223V7.39285H140.655V6.38556H142.283V5.61578H139.769V10.1562Z" fill="#333333"/>
<path d="M144.016 7.70695H143.756V6.33085H144.03C144.58 6.33085 144.881 6.56276 144.881 7.00418C144.881 7.46071 144.58 7.70695 144.016 7.70695ZM145.794 6.95609C145.794 6.10717 145.207 5.61578 144.186 5.61578H142.871V10.1562H143.756V8.33321H143.872L145.098 10.1562H146.189L144.758 8.24338C145.426 8.10749 145.794 7.6519 145.794 6.95609Z" fill="#333333"/>
<path d="M135.11 7.91633C135.11 9.23509 134.04 10.3037 132.72 10.3037C131.401 10.3037 130.331 9.23509 130.331 7.91633C130.331 6.59663 131.401 5.52904 132.72 5.52904C134.04 5.52904 135.11 6.59663 135.11 7.91633Z" fill="#EB8518"/>
<defs>
<linearGradient id="paint0_linear_2217_16443" x1="38.4048" y1="0.972656" x2="72.5239" y2="22.9605" gradientUnits="userSpaceOnUse">
<stop stop-color="#FDFDFD"/>
<stop offset="1" stop-color="#EFEFEF"/>
</linearGradient>
<radialGradient id="paint1_radial_2217_16443" cx="0" cy="0" r="1" gradientUnits="userSpaceOnUse" gradientTransform="translate(82.4506 4.8039) scale(40.2538 26.1388)">
<stop stop-color="#88CDE7"/>
<stop offset="1" stop-color="#2274AD"/>
</radialGradient>
</defs>
</svg>