<?xml version="1.0" encoding="utf-8"?>
<!-- Generator: Adobe Illustrator 25.2.3, SVG Export Plug-In . SVG Version: 6.00 Build 0)  -->
<svg version="1.1" id="Layer_1" xmlns="http://www.w3.org/2000/svg" xmlns:xlink="http://www.w3.org/1999/xlink" x="0px" y="0px"
	 viewBox="0 0 36 36" style="enable-background:new 0 0 36 36;" xml:space="preserve">
<style type="text/css">
	.st0{fill:#E99648;}
	.st1{fill:#FFFFFF;}
</style>
<g>
	<circle class="st0" cx="18" cy="18" r="18"/>
	<path class="st1" d="M8.2,9.8V7.1h1.9v2.7H13v1.8h-2.9v2.7H8.2v-2.7H5.4V9.8H8.2z M11.1,15.2v-2.7H14V9.8h6.7l1.8,1.8h3
		c1.1,0,1.9,0.8,1.9,1.8v10.9c0,1-0.9,1.8-1.9,1.8H10.2c-1.1,0-1.9-0.8-1.9-1.8v-9H11.1z M17.8,23.4c2.6,0,4.8-2,4.8-4.5
		c0-2.5-2.1-4.5-4.8-4.5c-2.6,0-4.8,2-4.8,4.5C13,21.3,15.2,23.4,17.8,23.4z M14.7,18.8c0,1.6,1.4,2.9,3.1,2.9
		c1.7,0,3.1-1.3,3.1-2.9c0-1.6-1.4-2.9-3.1-2.9C16.1,15.9,14.7,17.2,14.7,18.8z"/>
</g>
</svg>
