<svg width="112" height="31" viewBox="0 0 112 31" fill="none" xmlns="http://www.w3.org/2000/svg">
<path fill-rule="evenodd" clip-rule="evenodd" d="M57.5472 1.33187C58.9874 1.88329 60.2665 2.79035 61.2669 3.96953C62.3023 5.17473 63.0574 6.72603 63.5325 8.62343C64.0024 10.5208 64.0521 12.813 63.6816 15.5001C63.3111 18.1871 62.6205 20.4793 61.6097 22.3767C60.7133 24.1341 59.5044 25.7115 58.0429 27.0306C56.7427 28.1929 55.23 29.0895 53.5892 29.6702C52.0674 30.2104 50.4666 30.4908 48.8528 30.5001C47.3116 30.5046 45.7828 30.2233 44.343 29.6702C42.9041 29.1175 41.6263 28.2098 40.6271 27.0306C40.5719 26.9677 40.52 26.9016 40.4681 26.8355C40.4508 26.8135 40.4335 26.7914 40.416 26.7695C40.327 26.8572 40.2301 26.9468 40.1333 27.0306C38.8332 28.1929 37.3205 29.0895 35.6797 29.6702C34.1579 30.2104 32.557 30.4908 30.9433 30.5001C29.4034 30.504 27.876 30.2227 26.4373 29.6702C24.9977 29.1178 23.7192 28.2101 22.7195 27.0306C21.6842 25.8254 20.929 24.2741 20.4539 22.3767C19.9789 20.4793 19.9292 18.1871 20.3048 15.5001C20.6805 12.813 21.3705 10.5208 22.3748 8.62343C23.2729 6.86549 24.4838 5.28811 25.9474 3.96953C27.2472 2.80709 28.7601 1.91111 30.4011 1.33187C31.9213 0.790611 33.521 0.509445 35.1336 0.500051C36.6743 0.495621 38.2026 0.777628 39.6415 1.33187C41.0814 1.88284 42.3601 2.78999 43.3593 3.96953C43.4102 4.02895 43.459 4.09131 43.508 4.15384L43.5084 4.15432C43.5284 4.17977 43.5483 4.20525 43.5685 4.23057C43.6575 4.14291 43.7563 4.0533 43.8512 3.96953C45.1515 2.80786 46.6642 1.91197 48.3048 1.33187C49.827 0.790182 51.4286 0.509013 53.0431 0.500051C54.5826 0.495699 56.1096 0.777711 57.5472 1.33187ZM31.6791 24.9325C33.2941 24.9338 34.6179 24.0819 35.6506 22.3767C36.6834 20.6741 37.4011 18.3819 37.8039 15.5001C37.9926 14.2215 38.0768 12.9295 38.0556 11.6371C38.0516 10.6279 37.8935 9.62528 37.587 8.66434C37.3553 7.92724 36.9298 7.26691 36.3555 6.7533C35.7801 6.28365 35.0549 6.04 34.3145 6.06758C33.5186 6.0601 32.7397 6.29953 32.0838 6.7533C31.3673 7.26403 30.7597 7.91379 30.2965 8.66434C29.7235 9.5897 29.2798 10.59 28.9779 11.6371C28.6021 12.9009 28.3256 14.1926 28.151 15.5001C27.7496 18.3806 27.8264 20.6728 28.3815 22.3767C28.9366 24.0806 30.0222 24.9325 31.6384 24.9325H31.6791ZM53.5602 22.3767C54.5942 20.6741 55.3113 18.3819 55.7115 15.5001C55.8995 14.2214 55.983 12.9294 55.9613 11.6371C55.9616 10.6286 55.8081 9.626 55.5062 8.66434C55.2745 7.92724 54.849 7.26691 54.2747 6.7533C53.699 6.28428 52.974 6.04071 52.2337 6.06758C51.4372 6.06046 50.6578 6.29984 50.0011 6.7533C49.2853 7.26423 48.6783 7.91398 48.2158 8.66434C47.6385 9.5887 47.1915 10.5891 46.8874 11.6371C46.5109 12.9009 46.2338 14.1925 46.0586 15.5001C45.6559 18.3806 45.7327 20.6728 46.2891 22.3767C46.8455 24.0806 47.9318 24.9325 49.548 24.9325H49.5887C51.2023 24.9312 52.5261 24.0793 53.5602 22.3767ZM20.1751 6.73382H10.8089L9.98396 12.6325H18.9397L18.138 18.3676H9.18423L7.55768 30.0014H0L4.0509 0.998753H20.9748L20.1751 6.73382ZM65.4573 6.8994H71.6188L68.3909 30.0014H76.1131L79.3411 6.8994H85.5026L86.3275 0.998753H66.2822L65.4573 6.8994ZM98.2033 12.1338L103.497 0.998753H112L100.755 19.4488L99.2799 30.0014H91.5577L93.0332 19.4488L86.9433 0.998753H95.7325L98.122 12.1338H98.2033Z" fill="white"/>
</svg>